<?xml version="1.0" encoding="UTF-8" standalone="no"?>
<!DOCTYPE svg PUBLIC "-//W3C//DTD SVG 1.1//EN"
 "http://www.w3.org/Graphics/SVG/1.1/DTD/svg11.dtd">
<!-- Generated by graphviz version 12.2.1 (20241206.2353)
 -->
<!-- Pages: 1 -->
<svg width="494pt" height="133pt"
 viewBox="14.40 14.40 479.15 118.90" xmlns="http://www.w3.org/2000/svg" xmlns:xlink="http://www.w3.org/1999/xlink">
<g id="graph0" class="graph" transform="scale(1 1) rotate(0) translate(18.4 114.9)">
<polygon fill="white" stroke="none" points="-4,4 -4,-100.5 460.75,-100.5 460.75,4 -4,4"/>
<text text-anchor="middle" x="228.38" y="-7.2" font-family="Times New Roman,serif" font-size="14.00">図5&#45;1 計算グラフによる問1の答え</text>
<!-- A -->
<g id="node1" class="node">
<title>A</title>
<text text-anchor="middle" x="36" y="-54.33" font-family="Times New Roman,serif" font-size="14.00">りんご</text>
</g>
<!-- B -->
<g id="node2" class="node">
<title>B</title>
<ellipse fill="none" stroke="black" cx="164.25" cy="-60.5" rx="36" ry="36"/>
<text text-anchor="middle" x="164.25" y="-55.45" font-family="Times New Roman,serif" font-size="14.00">×2</text>
</g>
<!-- A&#45;&gt;B -->
<g id="edge1" class="edge">
<title>A&#45;&gt;B</title>
<path fill="none" stroke="black" d="M71.83,-60.5C85.79,-60.5 102.08,-60.5 117,-60.5"/>
<polygon fill="black" stroke="black" points="116.58,-64 126.58,-60.5 116.58,-57 116.58,-64"/>
<text text-anchor="middle" x="100.12" y="-63.7" font-family="Times New Roman,serif" font-size="14.00">100</text>
</g>
<!-- C -->
<g id="node3" class="node">
<title>C</title>
<ellipse fill="none" stroke="black" cx="292.5" cy="-60.5" rx="36" ry="36"/>
<text text-anchor="middle" x="292.5" y="-55.45" font-family="Times New Roman,serif" font-size="14.00">×1.1</text>
</g>
<!-- B&#45;&gt;C -->
<g id="edge2" class="edge">
<title>B&#45;&gt;C</title>
<path fill="none" stroke="black" d="M200.42,-60.5C214.12,-60.5 230.02,-60.5 244.67,-60.5"/>
<polygon fill="black" stroke="black" points="244.57,-64 254.57,-60.5 244.57,-57 244.57,-64"/>
<text text-anchor="middle" x="228.38" y="-63.7" font-family="Times New Roman,serif" font-size="14.00">200</text>
</g>
<!-- D -->
<g id="node4" class="node">
<title>D</title>
<text text-anchor="middle" x="420.75" y="-54.33" font-family="Times New Roman,serif" font-size="14.00">代金</text>
</g>
<!-- C&#45;&gt;D -->
<g id="edge3" class="edge">
<title>C&#45;&gt;D</title>
<path fill="none" stroke="black" d="M328.67,-60.5C342.48,-60.5 358.54,-60.5 373.29,-60.5"/>
<polygon fill="black" stroke="black" points="373.26,-64 383.26,-60.5 373.26,-57 373.26,-64"/>
<text text-anchor="middle" x="356.62" y="-63.7" font-family="Times New Roman,serif" font-size="14.00">220</text>
</g>
</g>
</svg>
