<?xml version="1.0" encoding="UTF-8" standalone="no"?>
<!DOCTYPE svg PUBLIC "-//W3C//DTD SVG 1.1//EN"
 "http://www.w3.org/Graphics/SVG/1.1/DTD/svg11.dtd">
<!-- Generated by graphviz version 12.2.1 (20241206.2353)
 -->
<!-- Pages: 1 -->
<svg width="373pt" height="177pt"
 viewBox="7.20 7.20 365.70 169.70" xmlns="http://www.w3.org/2000/svg" xmlns:xlink="http://www.w3.org/1999/xlink">
<g id="graph0" class="graph" transform="scale(1 1) rotate(0) translate(11.2 165.7)">
<polygon fill="white" stroke="none" points="-4,4 -4,-158.5 354.5,-158.5 354.5,4 -4,4"/>
<text text-anchor="middle" x="175.25" y="-7.2" font-family="Times New Roman,serif" font-size="14.00">図5&#45;11b 加算ノードの順伝播(具体例)</text>
<!-- x -->
<g id="node1" class="node">
<title>x</title>
<text text-anchor="middle" x="27" y="-131.45" font-family="Times New Roman,serif" font-size="14.00"> </text>
</g>
<!-- y -->
<g id="node2" class="node">
<title>y</title>
<text text-anchor="middle" x="27" y="-37.45" font-family="Times New Roman,serif" font-size="14.00"> </text>
</g>
<!-- z -->
<g id="node3" class="node">
<title>z</title>
<text text-anchor="middle" x="323.5" y="-84.45" font-family="Times New Roman,serif" font-size="14.00"> </text>
</g>
<!-- add -->
<g id="node4" class="node">
<title>add</title>
<ellipse fill="none" stroke="black" cx="175.25" cy="-89.5" rx="18" ry="18"/>
<text text-anchor="middle" x="175.25" y="-84.45" font-family="Times New Roman,serif" font-size="14.00">+</text>
</g>
<!-- z&#45;&gt;add -->
<g id="edge3" class="edge">
<title>z&#45;&gt;add</title>
<path fill="none" stroke="black" stroke-width="2" d="M296.69,-89.5C270.95,-89.5 231.5,-89.5 204.82,-89.5"/>
<polygon fill="black" stroke="black" stroke-width="2" points="206.59,-86 196.59,-89.5 206.59,-93 206.59,-86"/>
<text text-anchor="middle" x="244.88" y="-92.7" font-family="Times New Roman,serif" font-size="14.00">1.3</text>
</g>
<!-- add&#45;&gt;x -->
<g id="edge1" class="edge">
<title>add&#45;&gt;x</title>
<path fill="none" stroke="black" stroke-width="2" d="M157.76,-94.8C135.3,-102.02 94.49,-115.13 64.61,-124.73"/>
<polygon fill="black" stroke="black" stroke-width="2" points="65.09,-120.9 56.64,-127.3 67.23,-127.57 65.09,-120.9"/>
<text text-anchor="middle" x="105.62" y="-116.2" font-family="Times New Roman,serif" font-size="14.00">1.3</text>
</g>
<!-- add&#45;&gt;y -->
<g id="edge2" class="edge">
<title>add&#45;&gt;y</title>
<path fill="none" stroke="black" stroke-width="2" d="M157.76,-84.2C135.3,-76.98 94.49,-63.87 64.61,-54.27"/>
<polygon fill="black" stroke="black" stroke-width="2" points="67.23,-51.43 56.64,-51.7 65.09,-58.1 67.23,-51.43"/>
<text text-anchor="middle" x="105.62" y="-73.41" font-family="Times New Roman,serif" font-size="14.00">1.3</text>
</g>
</g>
</svg>
