<?xml version="1.0" encoding="UTF-8" standalone="no"?>
<!DOCTYPE svg PUBLIC "-//W3C//DTD SVG 1.1//EN"
 "http://www.w3.org/Graphics/SVG/1.1/DTD/svg11.dtd">
<!-- Generated by graphviz version 12.2.1 (20241206.2353)
 -->
<!-- Pages: 1 -->
<svg width="365pt" height="177pt"
 viewBox="7.20 7.20 358.20 169.70" xmlns="http://www.w3.org/2000/svg" xmlns:xlink="http://www.w3.org/1999/xlink">
<g id="graph0" class="graph" transform="scale(1 1) rotate(0) translate(11.2 165.7)">
<polygon fill="white" stroke="none" points="-4,4 -4,-158.5 347,-158.5 347,4 -4,4"/>
<text text-anchor="middle" x="171.5" y="-7.2" font-family="Times New Roman,serif" font-size="14.00">図5&#45;12a 乗算ノードの順伝播</text>
<!-- x -->
<g id="node1" class="node">
<title>x</title>
<text text-anchor="middle" x="27" y="-131.45" font-family="Times New Roman,serif" font-size="14.00"> </text>
</g>
<!-- mul -->
<g id="node4" class="node">
<title>mul</title>
<ellipse fill="none" stroke="black" cx="171.5" cy="-89.5" rx="18" ry="18"/>
<text text-anchor="middle" x="171.5" y="-84.45" font-family="Times New Roman,serif" font-size="14.00">×</text>
</g>
<!-- x&#45;&gt;mul -->
<g id="edge1" class="edge">
<title>x&#45;&gt;mul</title>
<path fill="none" stroke="black" d="M53.81,-127.99C79.12,-119.64 117.58,-106.96 143.35,-98.46"/>
<polygon fill="black" stroke="black" points="144.37,-101.81 152.77,-95.35 142.17,-95.16 144.37,-101.81"/>
<text text-anchor="middle" x="103.75" y="-116.2" font-family="Times New Roman,serif" font-size="14.00">10</text>
</g>
<!-- y -->
<g id="node2" class="node">
<title>y</title>
<text text-anchor="middle" x="27" y="-37.45" font-family="Times New Roman,serif" font-size="14.00"> </text>
</g>
<!-- y&#45;&gt;mul -->
<g id="edge2" class="edge">
<title>y&#45;&gt;mul</title>
<path fill="none" stroke="black" d="M53.81,-51.01C79.12,-59.36 117.58,-72.04 143.35,-80.54"/>
<polygon fill="black" stroke="black" points="142.17,-83.84 152.77,-83.65 144.37,-77.19 142.17,-83.84"/>
<text text-anchor="middle" x="103.75" y="-72.01" font-family="Times New Roman,serif" font-size="14.00">5</text>
</g>
<!-- z -->
<g id="node3" class="node">
<title>z</title>
<text text-anchor="middle" x="316" y="-84.45" font-family="Times New Roman,serif" font-size="14.00"> </text>
</g>
<!-- mul&#45;&gt;z -->
<g id="edge3" class="edge">
<title>mul&#45;&gt;z</title>
<path fill="none" stroke="black" d="M189.97,-89.5C211.69,-89.5 249.35,-89.5 277.68,-89.5"/>
<polygon fill="black" stroke="black" points="277.66,-93 287.66,-89.5 277.66,-86 277.66,-93"/>
<text text-anchor="middle" x="239.25" y="-92.7" font-family="Times New Roman,serif" font-size="14.00">50</text>
</g>
</g>
</svg>
