<?xml version="1.0" encoding="UTF-8" standalone="no"?>
<!DOCTYPE svg PUBLIC "-//W3C//DTD SVG 1.1//EN"
 "http://www.w3.org/Graphics/SVG/1.1/DTD/svg11.dtd">
<!-- Generated by graphviz version 12.2.1 (20241206.2353)
 -->
<!-- Pages: 1 -->
<svg width="425pt" height="177pt"
 viewBox="7.20 7.20 418.20 169.70" xmlns="http://www.w3.org/2000/svg" xmlns:xlink="http://www.w3.org/1999/xlink">
<g id="graph0" class="graph" transform="scale(1 1) rotate(0) translate(11.2 165.7)">
<polygon fill="white" stroke="none" points="-4,4 -4,-158.5 407,-158.5 407,4 -4,4"/>
<text text-anchor="middle" x="201.5" y="-7.2" font-family="Times New Roman,serif" font-size="14.00">図5&#45;12b 乗算ノードの逆伝播</text>
<!-- x -->
<g id="node1" class="node">
<title>x</title>
<text text-anchor="middle" x="27" y="-131.45" font-family="Times New Roman,serif" font-size="14.00"> </text>
</g>
<!-- y -->
<g id="node2" class="node">
<title>y</title>
<text text-anchor="middle" x="27" y="-37.45" font-family="Times New Roman,serif" font-size="14.00"> </text>
</g>
<!-- z -->
<g id="node3" class="node">
<title>z</title>
<text text-anchor="middle" x="376" y="-84.45" font-family="Times New Roman,serif" font-size="14.00"> </text>
</g>
<!-- mul -->
<g id="node4" class="node">
<title>mul</title>
<ellipse fill="none" stroke="black" cx="227.75" cy="-89.5" rx="18" ry="18"/>
<text text-anchor="middle" x="227.75" y="-84.45" font-family="Times New Roman,serif" font-size="14.00">×</text>
</g>
<!-- z&#45;&gt;mul -->
<g id="edge3" class="edge">
<title>z&#45;&gt;mul</title>
<path fill="none" stroke="black" d="M349.19,-89.5C323.45,-89.5 284,-89.5 257.32,-89.5"/>
<polygon fill="black" stroke="black" points="257.58,-86 247.58,-89.5 257.58,-93 257.58,-86"/>
<text text-anchor="middle" x="297.38" y="-92.7" font-family="Times New Roman,serif" font-size="14.00">1.3</text>
</g>
<!-- mul&#45;&gt;x -->
<g id="edge1" class="edge">
<title>mul&#45;&gt;x</title>
<path fill="none" stroke="black" d="M209.8,-93.51C177.9,-101.05 108.25,-117.52 65.02,-127.75"/>
<polygon fill="black" stroke="black" points="64.25,-124.33 55.32,-130.04 65.86,-131.14 64.25,-124.33"/>
<text text-anchor="middle" x="131.88" y="-123.16" font-family="Times New Roman,serif" font-size="14.00">6.5(=1.3×5)</text>
</g>
<!-- mul&#45;&gt;y -->
<g id="edge2" class="edge">
<title>mul&#45;&gt;y</title>
<path fill="none" stroke="black" d="M209.97,-85.02C197.96,-81.85 181.39,-77.55 166.75,-74 132.25,-65.63 92.77,-56.73 64.76,-50.53"/>
<polygon fill="black" stroke="black" points="65.88,-47.2 55.36,-48.46 64.37,-54.03 65.88,-47.2"/>
<text text-anchor="middle" x="131.88" y="-77.2" font-family="Times New Roman,serif" font-size="14.00">13(=1.3×10)</text>
</g>
</g>
</svg>
