<?xml version="1.0" encoding="UTF-8" standalone="no"?>
<!DOCTYPE svg PUBLIC "-//W3C//DTD SVG 1.1//EN"
 "http://www.w3.org/Graphics/SVG/1.1/DTD/svg11.dtd">
<!-- Generated by graphviz version 12.2.1 (20241206.2353)
 -->
<!-- Pages: 1 -->
<svg width="374pt" height="105pt"
 viewBox="7.20 7.20 367.20 98.19" xmlns="http://www.w3.org/2000/svg" xmlns:xlink="http://www.w3.org/1999/xlink">
<g id="graph0" class="graph" transform="scale(1 1) rotate(0) translate(11.2 94.19)">
<polygon fill="white" stroke="none" points="-4,4 -4,-86.99 356,-86.99 356,4 -4,4"/>
<text text-anchor="middle" x="176" y="-7.2" font-family="Times New Roman,serif" font-size="14.00">図5&#45;18b ReLUレイヤの計算グラフ(x≦0のとき).</text>
<!-- x -->
<g id="node1" class="node">
<title>x</title>
<text text-anchor="middle" x="46.25" y="-52.69" font-family="Times New Roman,serif" font-size="14.00"> </text>
</g>
<!-- relu -->
<g id="node3" class="node">
<title>relu</title>
<ellipse fill="none" stroke="black" cx="163.25" cy="-57.74" rx="25.25" ry="25.25"/>
<text text-anchor="middle" x="163.25" y="-52.69" font-family="Times New Roman,serif" font-size="14.00">relu</text>
</g>
<!-- x&#45;&gt;relu -->
<g id="edge1" class="edge">
<title>x&#45;&gt;relu</title>
<path fill="none" stroke="black" d="M73.06,-57.74C88.77,-57.74 109.07,-57.74 126.34,-57.74"/>
<polygon fill="black" stroke="black" points="126.2,-61.24 136.2,-57.74 126.2,-54.24 126.2,-61.24"/>
<text text-anchor="middle" x="105.63" y="-60.94" font-family="Times New Roman,serif" font-size="14.00">x</text>
</g>
<!-- y -->
<g id="node2" class="node">
<title>y</title>
<text text-anchor="middle" x="305.75" y="-52.69" font-family="Times New Roman,serif" font-size="14.00"> </text>
</g>
<!-- y&#45;&gt;relu -->
<g id="edge4" class="edge">
<title>y&#45;&gt;relu</title>
<path fill="none" stroke="black" stroke-width="2" d="M278.77,-39.81C269.95,-34.71 259.79,-29.84 249.75,-27.24 235.87,-23.65 231.35,-23.55 217.5,-27.24 209.29,-29.43 201.03,-33.21 193.54,-37.38"/>
<polygon fill="black" stroke="black" stroke-width="2" points="193.24,-33.48 186.48,-41.64 196.85,-39.47 193.24,-33.48"/>
<text text-anchor="middle" x="233.62" y="-30.44" font-family="Times New Roman,serif" font-size="14.00">∂L/∂y</text>
</g>
<!-- relu&#45;&gt;x -->
<g id="edge2" class="edge">
<title>relu&#45;&gt;x</title>
<path fill="none" stroke="black" stroke-width="2" d="M142.61,-43.2C133,-36.98 120.94,-30.42 109,-27.24 97.82,-24.27 86.27,-27.9 76.23,-33.56"/>
<polygon fill="black" stroke="black" stroke-width="2" points="75.76,-29.69 69.29,-38.09 79.58,-35.56 75.76,-29.69"/>
<text text-anchor="middle" x="105.63" y="-30.44" font-family="Times New Roman,serif" font-size="14.00">0</text>
</g>
<!-- relu&#45;&gt;y -->
<g id="edge3" class="edge">
<title>relu&#45;&gt;y</title>
<path fill="none" stroke="black" d="M188.72,-57.74C210.58,-57.74 242.9,-57.74 267.89,-57.74"/>
<polygon fill="black" stroke="black" points="267.62,-61.24 277.62,-57.74 267.62,-54.24 267.62,-61.24"/>
<text text-anchor="middle" x="233.62" y="-60.94" font-family="Times New Roman,serif" font-size="14.00">y</text>
</g>
</g>
</svg>
