<?xml version="1.0" encoding="UTF-8" standalone="no"?>
<!DOCTYPE svg PUBLIC "-//W3C//DTD SVG 1.1//EN"
 "http://www.w3.org/Graphics/SVG/1.1/DTD/svg11.dtd">
<!-- Generated by graphviz version 12.2.1 (20241206.2353)
 -->
<!-- Pages: 1 -->
<svg width="365pt" height="105pt"
 viewBox="7.20 7.20 357.45 98.19" xmlns="http://www.w3.org/2000/svg" xmlns:xlink="http://www.w3.org/1999/xlink">
<g id="graph0" class="graph" transform="scale(1 1) rotate(0) translate(11.2 94.19)">
<polygon fill="white" stroke="none" points="-4,4 -4,-86.99 346.25,-86.99 346.25,4 -4,4"/>
<text text-anchor="middle" x="171.12" y="-7.2" font-family="Times New Roman,serif" font-size="14.00">図5&#45;18a ReLUレイヤの計算グラフ(x&gt;0のとき).</text>
<!-- x -->
<g id="node1" class="node">
<title>x</title>
<text text-anchor="middle" x="28.63" y="-52.69" font-family="Times New Roman,serif" font-size="14.00"> </text>
</g>
<!-- relu -->
<g id="node3" class="node">
<title>relu</title>
<ellipse fill="none" stroke="black" cx="171.12" cy="-57.74" rx="25.25" ry="25.25"/>
<text text-anchor="middle" x="171.12" y="-52.69" font-family="Times New Roman,serif" font-size="14.00">relu</text>
</g>
<!-- x&#45;&gt;relu -->
<g id="edge1" class="edge">
<title>x&#45;&gt;relu</title>
<path fill="none" stroke="black" d="M55.4,-57.74C77.45,-57.74 109.45,-57.74 134.05,-57.74"/>
<polygon fill="black" stroke="black" points="133.95,-61.24 143.95,-57.74 133.95,-54.24 133.95,-61.24"/>
<text text-anchor="middle" x="100.75" y="-60.94" font-family="Times New Roman,serif" font-size="14.00">x</text>
</g>
<!-- y -->
<g id="node2" class="node">
<title>y</title>
<text text-anchor="middle" x="313.62" y="-52.69" font-family="Times New Roman,serif" font-size="14.00"> </text>
</g>
<!-- y&#45;&gt;relu -->
<g id="edge4" class="edge">
<title>y&#45;&gt;relu</title>
<path fill="none" stroke="black" stroke-width="2" d="M286.64,-39.81C277.83,-34.71 267.67,-29.84 257.62,-27.24 243.75,-23.65 239.23,-23.55 225.37,-27.24 217.16,-29.43 208.9,-33.21 201.42,-37.38"/>
<polygon fill="black" stroke="black" stroke-width="2" points="201.11,-33.48 194.36,-41.64 204.73,-39.47 201.11,-33.48"/>
<text text-anchor="middle" x="241.5" y="-30.44" font-family="Times New Roman,serif" font-size="14.00">∂L/∂y</text>
</g>
<!-- relu&#45;&gt;x -->
<g id="edge2" class="edge">
<title>relu&#45;&gt;x</title>
<path fill="none" stroke="black" stroke-width="2" d="M150.48,-43.2C140.87,-36.98 128.82,-30.42 116.88,-27.24 103.02,-23.55 98.5,-23.65 84.63,-27.24 78.19,-28.9 71.71,-31.5 65.56,-34.49"/>
<polygon fill="black" stroke="black" stroke-width="2" points="65.45,-30.58 58.28,-38.38 68.75,-36.76 65.45,-30.58"/>
<text text-anchor="middle" x="100.75" y="-30.44" font-family="Times New Roman,serif" font-size="14.00">∂L/∂y</text>
</g>
<!-- relu&#45;&gt;y -->
<g id="edge3" class="edge">
<title>relu&#45;&gt;y</title>
<path fill="none" stroke="black" d="M196.6,-57.74C218.45,-57.74 250.78,-57.74 275.76,-57.74"/>
<polygon fill="black" stroke="black" points="275.49,-61.24 285.49,-57.74 275.49,-54.24 275.49,-61.24"/>
<text text-anchor="middle" x="241.5" y="-60.94" font-family="Times New Roman,serif" font-size="14.00">y</text>
</g>
</g>
</svg>
