<?xml version="1.0" encoding="UTF-8" standalone="no"?>
<!DOCTYPE svg PUBLIC "-//W3C//DTD SVG 1.1//EN"
 "http://www.w3.org/Graphics/SVG/1.1/DTD/svg11.dtd">
<!-- Generated by graphviz version 12.2.1 (20241206.2353)
 -->
<!-- Pages: 1 -->
<svg width="941pt" height="230pt"
 viewBox="7.20 7.20 933.45 222.70" xmlns="http://www.w3.org/2000/svg" xmlns:xlink="http://www.w3.org/1999/xlink">
<g id="graph0" class="graph" transform="scale(1 1) rotate(0) translate(11.2 218.7)">
<polygon fill="white" stroke="none" points="-4,4 -4,-211.5 922.25,-211.5 922.25,4 -4,4"/>
<text text-anchor="middle" x="459.12" y="-7.2" font-family="Times New Roman,serif" font-size="14.00">図5&#45;19 Sigmoidレイヤの計算グラフ(順伝播のみ)</text>
<!-- in -->
<g id="node1" class="node">
<title>in</title>
<text text-anchor="middle" x="27" y="-184.45" font-family="Times New Roman,serif" font-size="14.00"> </text>
</g>
<!-- mul -->
<g id="node5" class="node">
<title>mul</title>
<ellipse fill="none" stroke="black" cx="169.25" cy="-142.5" rx="18" ry="18"/>
<text text-anchor="middle" x="169.25" y="-137.45" font-family="Times New Roman,serif" font-size="14.00">×</text>
</g>
<!-- in&#45;&gt;mul -->
<g id="edge1" class="edge">
<title>in&#45;&gt;mul</title>
<path fill="none" stroke="black" d="M53.72,-180.88C78.55,-172.56 115.99,-160.01 141.24,-151.55"/>
<polygon fill="black" stroke="black" points="142.09,-154.96 150.46,-148.46 139.86,-148.32 142.09,-154.96"/>
<text text-anchor="middle" x="102.62" y="-169.2" font-family="Times New Roman,serif" font-size="14.00">x</text>
</g>
<!-- &#45;1 -->
<g id="node2" class="node">
<title>&#45;1</title>
<text text-anchor="middle" x="27" y="-90.45" font-family="Times New Roman,serif" font-size="14.00"> </text>
</g>
<!-- &#45;1&#45;&gt;mul -->
<g id="edge2" class="edge">
<title>&#45;1&#45;&gt;mul</title>
<path fill="none" stroke="black" d="M53.72,-104.12C78.55,-112.44 115.99,-124.99 141.24,-133.45"/>
<polygon fill="black" stroke="black" points="139.86,-136.68 150.46,-136.54 142.09,-130.04 139.86,-136.68"/>
<text text-anchor="middle" x="102.62" y="-125.01" font-family="Times New Roman,serif" font-size="14.00">&#45;1</text>
</g>
<!-- 1 -->
<g id="node3" class="node">
<title>1</title>
<text text-anchor="middle" x="311.5" y="-37.45" font-family="Times New Roman,serif" font-size="14.00"> </text>
</g>
<!-- add -->
<g id="node7" class="node">
<title>add</title>
<ellipse fill="none" stroke="black" cx="482.25" cy="-82.5" rx="18" ry="18"/>
<text text-anchor="middle" x="482.25" y="-77.45" font-family="Times New Roman,serif" font-size="14.00">+</text>
</g>
<!-- 1&#45;&gt;add -->
<g id="edge5" class="edge">
<title>1&#45;&gt;add</title>
<path fill="none" stroke="black" d="M338.15,-38.95C360.58,-36.76 393.77,-35.73 421.25,-44 434.86,-48.09 448.34,-56.26 459.06,-64.03"/>
<polygon fill="black" stroke="black" points="456.78,-66.69 466.85,-69.99 461.04,-61.14 456.78,-66.69"/>
<text text-anchor="middle" x="401.38" y="-47.2" font-family="Times New Roman,serif" font-size="14.00">1</text>
</g>
<!-- out -->
<g id="node4" class="node">
<title>out</title>
<text text-anchor="middle" x="891.25" y="-77.45" font-family="Times New Roman,serif" font-size="14.00"> </text>
</g>
<!-- exp -->
<g id="node6" class="node">
<title>exp</title>
<ellipse fill="none" stroke="black" cx="311.5" cy="-142.5" rx="24.23" ry="24.23"/>
<text text-anchor="middle" x="311.5" y="-137.45" font-family="Times New Roman,serif" font-size="14.00">exp</text>
</g>
<!-- mul&#45;&gt;exp -->
<g id="edge3" class="edge">
<title>mul&#45;&gt;exp</title>
<path fill="none" stroke="black" d="M187.73,-142.5C209.7,-142.5 247.93,-142.5 275.91,-142.5"/>
<polygon fill="black" stroke="black" points="275.68,-146 285.68,-142.5 275.68,-139 275.68,-146"/>
<text text-anchor="middle" x="235.88" y="-145.7" font-family="Times New Roman,serif" font-size="14.00">&#45;x</text>
</g>
<!-- exp&#45;&gt;add -->
<g id="edge4" class="edge">
<title>exp&#45;&gt;add</title>
<path fill="none" stroke="black" d="M334.56,-134.66C365.25,-123.74 420.79,-104 454.02,-92.18"/>
<polygon fill="black" stroke="black" points="455.09,-95.52 463.34,-88.87 452.74,-88.92 455.09,-95.52"/>
<text text-anchor="middle" x="401.38" y="-121.07" font-family="Times New Roman,serif" font-size="14.00">exp(&#45;x)</text>
</g>
<!-- div -->
<g id="node8" class="node">
<title>div</title>
<ellipse fill="none" stroke="black" cx="659" cy="-82.5" rx="18" ry="18"/>
<text text-anchor="middle" x="659" y="-77.45" font-family="Times New Roman,serif" font-size="14.00">/</text>
</g>
<!-- add&#45;&gt;div -->
<g id="edge6" class="edge">
<title>add&#45;&gt;div</title>
<path fill="none" stroke="black" d="M500.64,-82.5C530.74,-82.5 592.8,-82.5 629.34,-82.5"/>
<polygon fill="black" stroke="black" points="629.16,-86 639.16,-82.5 629.16,-79 629.16,-86"/>
<text text-anchor="middle" x="570.62" y="-85.7" font-family="Times New Roman,serif" font-size="14.00">1+exp(&#45;x)</text>
</g>
<!-- div&#45;&gt;out -->
<g id="edge7" class="edge">
<title>div&#45;&gt;out</title>
<path fill="none" stroke="black" d="M677.31,-82.5C714.49,-82.5 802.7,-82.5 853.15,-82.5"/>
<polygon fill="black" stroke="black" points="852.99,-86 862.99,-82.5 852.99,-79 852.99,-86"/>
<text text-anchor="middle" x="770.62" y="-85.7" font-family="Times New Roman,serif" font-size="14.00">1/{1+exp(&#45;x)} = y</text>
</g>
</g>
</svg>
