<?xml version="1.0" encoding="UTF-8" standalone="no"?>
<!DOCTYPE svg PUBLIC "-//W3C//DTD SVG 1.1//EN"
 "http://www.w3.org/Graphics/SVG/1.1/DTD/svg11.dtd">
<!-- Generated by graphviz version 12.2.1 (20241206.2353)
 -->
<!-- Pages: 1 -->
<svg width="465pt" height="164pt"
 viewBox="7.20 7.20 457.70 156.70" xmlns="http://www.w3.org/2000/svg" xmlns:xlink="http://www.w3.org/1999/xlink">
<g id="graph0" class="graph" transform="scale(1 1) rotate(0) translate(11.2 152.7)">
<polygon fill="white" stroke="none" points="-4,4 -4,-145.5 446.5,-145.5 446.5,4 -4,4"/>
<text text-anchor="middle" x="221.25" y="-7.2" font-family="Times New Roman,serif" font-size="14.00">図5&#45;2 計算グラフによる問1の答え(変数版)</text>
<!-- apple -->
<g id="node1" class="node">
<title>apple</title>
<text text-anchor="middle" x="59.75" y="-117.33" font-family="Times New Roman,serif" font-size="14.00">りんご</text>
</g>
<!-- mul1 -->
<g id="node5" class="node">
<title>mul1</title>
<ellipse fill="none" stroke="black" cx="209.62" cy="-96.5" rx="18" ry="18"/>
<text text-anchor="middle" x="209.62" y="-91.45" font-family="Times New Roman,serif" font-size="14.00">×</text>
</g>
<!-- apple&#45;&gt;mul1 -->
<g id="edge1" class="edge">
<title>apple&#45;&gt;mul1</title>
<path fill="none" stroke="black" d="M93.57,-117.51C119.6,-112.75 155.6,-106.18 180.37,-101.66"/>
<polygon fill="black" stroke="black" points="180.83,-105.13 190.04,-99.89 179.57,-98.25 180.83,-105.13"/>
<text text-anchor="middle" x="147.62" y="-112.39" font-family="Times New Roman,serif" font-size="14.00">100</text>
</g>
<!-- apple_num -->
<g id="node2" class="node">
<title>apple_num</title>
<text text-anchor="middle" x="59.75" y="-63.33" font-family="Times New Roman,serif" font-size="14.00">リンゴの個数</text>
</g>
<!-- apple_num&#45;&gt;mul1 -->
<g id="edge2" class="edge">
<title>apple_num&#45;&gt;mul1</title>
<path fill="none" stroke="black" d="M119.28,-79.12C131.98,-81.3 145.33,-83.66 157.75,-86 165.19,-87.4 173.23,-89.01 180.67,-90.55"/>
<polygon fill="black" stroke="black" points="179.71,-93.92 190.21,-92.54 181.14,-87.07 179.71,-93.92"/>
<text text-anchor="middle" x="147.62" y="-89.2" font-family="Times New Roman,serif" font-size="14.00">2</text>
</g>
<!-- tax -->
<g id="node3" class="node">
<title>tax</title>
<text text-anchor="middle" x="209.62" y="-36.33" font-family="Times New Roman,serif" font-size="14.00">消費税</text>
</g>
<!-- mul2 -->
<g id="node6" class="node">
<title>mul2</title>
<ellipse fill="none" stroke="black" cx="317.75" cy="-58.5" rx="18" ry="18"/>
<text text-anchor="middle" x="317.75" y="-53.45" font-family="Times New Roman,serif" font-size="14.00">×</text>
</g>
<!-- tax&#45;&gt;mul2 -->
<g id="edge4" class="edge">
<title>tax&#45;&gt;mul2</title>
<path fill="none" stroke="black" d="M243.33,-47.43C257.75,-49.6 274.52,-52.13 288.4,-54.23"/>
<polygon fill="black" stroke="black" points="287.8,-57.68 298.21,-55.71 288.85,-50.75 287.8,-57.68"/>
</g>
<!-- price -->
<g id="node4" class="node">
<title>price</title>
<text text-anchor="middle" x="417.25" y="-52.33" font-family="Times New Roman,serif" font-size="14.00">代金</text>
</g>
<!-- mul1&#45;&gt;mul2 -->
<g id="edge3" class="edge">
<title>mul1&#45;&gt;mul2</title>
<path fill="none" stroke="black" d="M226.74,-90.73C243.5,-84.73 270,-75.24 289.92,-68.11"/>
<polygon fill="black" stroke="black" points="290.82,-71.5 299.06,-64.84 288.46,-64.91 290.82,-71.5"/>
<text text-anchor="middle" x="271.62" y="-80.7" font-family="Times New Roman,serif" font-size="14.00">200</text>
</g>
<!-- mul2&#45;&gt;price -->
<g id="edge5" class="edge">
<title>mul2&#45;&gt;price</title>
<path fill="none" stroke="black" d="M336.18,-58.5C348.58,-58.5 365.66,-58.5 380.86,-58.5"/>
<polygon fill="black" stroke="black" points="380.5,-62 390.5,-58.5 380.5,-55 380.5,-62"/>
<text text-anchor="middle" x="363.88" y="-61.7" font-family="Times New Roman,serif" font-size="14.00">220</text>
</g>
</g>
</svg>
