<?xml version="1.0" encoding="UTF-8" standalone="no"?>
<!DOCTYPE svg PUBLIC "-//W3C//DTD SVG 1.1//EN"
 "http://www.w3.org/Graphics/SVG/1.1/DTD/svg11.dtd">
<!-- Generated by graphviz version 12.2.1 (20241206.2353)
 -->
<!-- Pages: 1 -->
<svg width="1149pt" height="260pt"
 viewBox="7.20 7.20 1141.95 252.70" xmlns="http://www.w3.org/2000/svg" xmlns:xlink="http://www.w3.org/1999/xlink">
<g id="graph0" class="graph" transform="scale(1 1) rotate(0) translate(11.2 248.7)">
<polygon fill="white" stroke="none" points="-4,4 -4,-241.5 1130.75,-241.5 1130.75,4 -4,4"/>
<text text-anchor="middle" x="563.38" y="-7.2" font-family="Times New Roman,serif" font-size="14.00">図5&#45;20 Sigmoidレイヤの計算グラフ</text>
<!-- in -->
<g id="node1" class="node">
<title>in</title>
<text text-anchor="middle" x="27" y="-214.45" font-family="Times New Roman,serif" font-size="14.00"> </text>
</g>
<!-- mul -->
<g id="node5" class="node">
<title>mul</title>
<ellipse fill="none" stroke="black" cx="257.75" cy="-172.5" rx="18" ry="18"/>
<text text-anchor="middle" x="257.75" y="-167.45" font-family="Times New Roman,serif" font-size="14.00">×</text>
</g>
<!-- in&#45;&gt;mul -->
<g id="edge1" class="edge">
<title>in&#45;&gt;mul</title>
<path fill="none" stroke="black" d="M53.93,-216.04C87.22,-211.37 146.69,-202.27 196.75,-190.5 207.6,-187.95 219.37,-184.56 229.59,-181.41"/>
<polygon fill="black" stroke="black" points="230.42,-184.82 238.9,-178.47 228.31,-178.14 230.42,-184.82"/>
<text text-anchor="middle" x="146.88" y="-212.13" font-family="Times New Roman,serif" font-size="14.00">x</text>
</g>
<!-- &#45;1 -->
<g id="node2" class="node">
<title>&#45;1</title>
<text text-anchor="middle" x="27" y="-87.45" font-family="Times New Roman,serif" font-size="14.00"> </text>
</g>
<!-- &#45;1&#45;&gt;mul -->
<g id="edge3" class="edge">
<title>&#45;1&#45;&gt;mul</title>
<path fill="none" stroke="black" d="M53.97,-94.22C88.08,-97.26 149.22,-105.47 196.75,-127 210.89,-133.4 224.82,-143.66 235.7,-152.81"/>
<polygon fill="black" stroke="black" points="233.09,-155.17 242.91,-159.13 237.7,-149.91 233.09,-155.17"/>
<text text-anchor="middle" x="146.88" y="-130.2" font-family="Times New Roman,serif" font-size="14.00">&#45;1</text>
</g>
<!-- 1 -->
<g id="node3" class="node">
<title>1</title>
<text text-anchor="middle" x="493" y="-37.45" font-family="Times New Roman,serif" font-size="14.00"> </text>
</g>
<!-- add -->
<g id="node7" class="node">
<title>add</title>
<ellipse fill="none" stroke="black" cx="684.75" cy="-122.5" rx="18" ry="18"/>
<text text-anchor="middle" x="684.75" y="-117.45" font-family="Times New Roman,serif" font-size="14.00">+</text>
</g>
<!-- 1&#45;&gt;add -->
<g id="edge8" class="edge">
<title>1&#45;&gt;add</title>
<path fill="none" stroke="black" d="M519.83,-46.97C546.73,-52.26 589.63,-62.48 623.75,-79 637.37,-85.59 651.13,-95.3 662.03,-103.88"/>
<polygon fill="black" stroke="black" points="659.66,-106.46 669.63,-110.06 664.08,-101.03 659.66,-106.46"/>
<text text-anchor="middle" x="593.38" y="-82.2" font-family="Times New Roman,serif" font-size="14.00">1</text>
</g>
<!-- out -->
<g id="node4" class="node">
<title>out</title>
<text text-anchor="middle" x="1099.75" y="-117.45" font-family="Times New Roman,serif" font-size="14.00"> </text>
</g>
<!-- div -->
<g id="node8" class="node">
<title>div</title>
<ellipse fill="none" stroke="black" cx="867.5" cy="-122.5" rx="18" ry="18"/>
<text text-anchor="middle" x="867.5" y="-117.45" font-family="Times New Roman,serif" font-size="14.00">/</text>
</g>
<!-- out&#45;&gt;div -->
<g id="edge12" class="edge">
<title>out&#45;&gt;div</title>
<path fill="none" stroke="black" stroke-width="2" d="M1073.07,-108.09C1060.44,-101.81 1044.74,-95.17 1029.75,-92 985.72,-82.7 972.26,-81.52 928.5,-92 916.06,-94.98 903.28,-100.99 892.73,-106.9"/>
<polygon fill="black" stroke="black" stroke-width="2" points="892.45,-103 885.63,-111.1 896.02,-109.02 892.45,-103"/>
<text text-anchor="middle" x="979.12" y="-95.2" font-family="Times New Roman,serif" font-size="14.00">∂L/∂y</text>
</g>
<!-- mul&#45;&gt;in -->
<g id="edge2" class="edge">
<title>mul&#45;&gt;in</title>
<path fill="none" stroke="black" stroke-width="2" d="M239.85,-167.91C210.05,-160.65 146.63,-149.01 97,-166 80.5,-171.65 64.89,-183.03 52.71,-193.85"/>
<polygon fill="black" stroke="black" stroke-width="2" points="51.61,-190.08 46.69,-199.47 56.38,-195.2 51.61,-190.08"/>
<text text-anchor="middle" x="146.88" y="-169.2" font-family="Times New Roman,serif" font-size="14.00">∂L/∂y y^2 exp(&#45;x)</text>
</g>
<!-- exp -->
<g id="node6" class="node">
<title>exp</title>
<ellipse fill="none" stroke="black" cx="493" cy="-172.5" rx="24.23" ry="24.23"/>
<text text-anchor="middle" x="493" y="-167.45" font-family="Times New Roman,serif" font-size="14.00">exp</text>
</g>
<!-- mul&#45;&gt;exp -->
<g id="edge4" class="edge">
<title>mul&#45;&gt;exp</title>
<path fill="none" stroke="black" d="M275.9,-172.5C313.98,-172.5 406.23,-172.5 457.02,-172.5"/>
<polygon fill="black" stroke="black" points="456.88,-176 466.88,-172.5 456.88,-169 456.88,-176"/>
<text text-anchor="middle" x="370.88" y="-175.7" font-family="Times New Roman,serif" font-size="14.00">&#45;x</text>
</g>
<!-- exp&#45;&gt;mul -->
<g id="edge5" class="edge">
<title>exp&#45;&gt;mul</title>
<path fill="none" stroke="black" stroke-width="2" d="M471.32,-160.64C458,-153.69 440.04,-145.6 423,-142 377.67,-132.43 363.81,-131.21 318.75,-142 306.31,-144.98 293.53,-150.99 282.98,-156.9"/>
<polygon fill="black" stroke="black" stroke-width="2" points="282.7,-153 275.88,-161.1 286.27,-159.02 282.7,-153"/>
<text text-anchor="middle" x="370.88" y="-145.2" font-family="Times New Roman,serif" font-size="14.00">&#45;∂L/∂y y^2 exp(&#45;x)</text>
</g>
<!-- exp&#45;&gt;add -->
<g id="edge6" class="edge">
<title>exp&#45;&gt;add</title>
<path fill="none" stroke="black" d="M517.06,-167.18C543.07,-161.09 586.6,-150.65 623.75,-140.5 634.5,-137.56 646.25,-134.1 656.49,-130.99"/>
<polygon fill="black" stroke="black" points="657.28,-134.41 665.81,-128.13 655.23,-127.72 657.28,-134.41"/>
<text text-anchor="middle" x="593.38" y="-159.24" font-family="Times New Roman,serif" font-size="14.00">exp(&#45;x)</text>
</g>
<!-- add&#45;&gt;exp -->
<g id="edge7" class="edge">
<title>add&#45;&gt;exp</title>
<path fill="none" stroke="black" stroke-width="2" d="M667.15,-117.66C643.32,-111.57 598.39,-103.36 563,-116 545.7,-122.18 529.62,-134.76 517.34,-146.49"/>
<polygon fill="black" stroke="black" stroke-width="2" points="516.19,-142.68 511.62,-152.24 521.15,-147.62 516.19,-142.68"/>
<text text-anchor="middle" x="593.38" y="-119.2" font-family="Times New Roman,serif" font-size="14.00">&#45;∂L/∂y y^2</text>
</g>
<!-- add&#45;&gt;div -->
<g id="edge9" class="edge">
<title>add&#45;&gt;div</title>
<path fill="none" stroke="black" d="M703.08,-122.5C734.26,-122.5 800.07,-122.5 837.97,-122.5"/>
<polygon fill="black" stroke="black" points="837.71,-126 847.71,-122.5 837.71,-119 837.71,-126"/>
<text text-anchor="middle" x="776.12" y="-125.7" font-family="Times New Roman,serif" font-size="14.00">1+exp(&#45;x)</text>
</g>
<!-- div&#45;&gt;out -->
<g id="edge11" class="edge">
<title>div&#45;&gt;out</title>
<path fill="none" stroke="black" d="M885.81,-122.5C922.99,-122.5 1011.2,-122.5 1061.65,-122.5"/>
<polygon fill="black" stroke="black" points="1061.49,-126 1071.49,-122.5 1061.49,-119 1061.49,-126"/>
<text text-anchor="middle" x="979.12" y="-125.7" font-family="Times New Roman,serif" font-size="14.00">1/{1+exp(&#45;x)} = y</text>
</g>
<!-- div&#45;&gt;add -->
<g id="edge10" class="edge">
<title>div&#45;&gt;add</title>
<path fill="none" stroke="black" stroke-width="2" d="M851.98,-112.65C840.27,-105.34 823.09,-95.97 806.5,-92 780.24,-85.71 772.01,-85.71 745.75,-92 733.31,-94.98 720.53,-100.99 709.98,-106.9"/>
<polygon fill="black" stroke="black" stroke-width="2" points="709.7,-103 702.88,-111.1 713.27,-109.02 709.7,-103"/>
<text text-anchor="middle" x="776.12" y="-95.2" font-family="Times New Roman,serif" font-size="14.00">&#45;∂L/∂y y^2</text>
</g>
</g>
</svg>
