<?xml version="1.0" encoding="UTF-8" standalone="no"?>
<!DOCTYPE svg PUBLIC "-//W3C//DTD SVG 1.1//EN"
 "http://www.w3.org/Graphics/SVG/1.1/DTD/svg11.dtd">
<!-- Generated by graphviz version 12.2.1 (20241206.2353)
 -->
<!-- Pages: 1 -->
<svg width="461pt" height="129pt"
 viewBox="7.20 7.20 453.43 121.93" xmlns="http://www.w3.org/2000/svg" xmlns:xlink="http://www.w3.org/1999/xlink">
<g id="graph0" class="graph" transform="scale(1 1) rotate(0) translate(11.2 117.93)">
<polygon fill="white" stroke="none" points="-4,4 -4,-110.73 442.23,-110.73 442.23,4 -4,4"/>
<text text-anchor="middle" x="219.12" y="-7.2" font-family="Times New Roman,serif" font-size="14.00">図5&#45;21 Sigmoidレイヤの計算グラフ(簡略版).</text>
<!-- x -->
<g id="node1" class="node">
<title>x</title>
<text text-anchor="middle" x="27" y="-60.57" font-family="Times New Roman,serif" font-size="14.00"> </text>
</g>
<!-- sigmoid -->
<g id="node3" class="node">
<title>sigmoid</title>
<ellipse fill="none" stroke="black" cx="252.87" cy="-65.62" rx="41.12" ry="41.12"/>
<text text-anchor="middle" x="252.87" y="-60.57" font-family="Times New Roman,serif" font-size="14.00">sigmoid</text>
</g>
<!-- x&#45;&gt;sigmoid -->
<g id="edge1" class="edge">
<title>x&#45;&gt;sigmoid</title>
<path fill="none" stroke="black" d="M53.68,-65.62C89.18,-65.62 154.05,-65.62 199.88,-65.62"/>
<polygon fill="black" stroke="black" points="199.88,-69.12 209.88,-65.62 199.88,-62.12 199.88,-69.12"/>
<text text-anchor="middle" x="132.88" y="-68.82" font-family="Times New Roman,serif" font-size="14.00">x</text>
</g>
<!-- y -->
<g id="node2" class="node">
<title>y</title>
<text text-anchor="middle" x="411.23" y="-60.57" font-family="Times New Roman,serif" font-size="14.00"> </text>
</g>
<!-- y&#45;&gt;sigmoid -->
<g id="edge4" class="edge">
<title>y&#45;&gt;sigmoid</title>
<path fill="none" stroke="black" stroke-width="2" d="M384.25,-47.68C375.44,-42.58 365.27,-37.71 355.23,-35.12 336.81,-30.35 316.72,-34.43 299.31,-40.97"/>
<polygon fill="black" stroke="black" stroke-width="2" points="299.55,-37.08 291.65,-44.15 302.23,-43.55 299.55,-37.08"/>
<text text-anchor="middle" x="339.11" y="-38.32" font-family="Times New Roman,serif" font-size="14.00">∂L/∂y</text>
</g>
<!-- sigmoid&#45;&gt;x -->
<g id="edge2" class="edge">
<title>sigmoid&#45;&gt;x</title>
<path fill="none" stroke="black" stroke-width="2" d="M216.23,-46.53C205.74,-41.84 194.04,-37.5 182.75,-35.12 139.37,-25.97 125.92,-24.01 83,-35.12 76.57,-36.78 70.08,-39.38 63.94,-42.37"/>
<polygon fill="black" stroke="black" stroke-width="2" points="63.83,-38.46 56.65,-46.26 67.12,-44.64 63.83,-38.46"/>
<text text-anchor="middle" x="132.88" y="-38.32" font-family="Times New Roman,serif" font-size="14.00">∂L/∂y y^2 exp(&#45;x)</text>
</g>
<!-- sigmoid&#45;&gt;y -->
<g id="edge3" class="edge">
<title>sigmoid&#45;&gt;y</title>
<path fill="none" stroke="black" d="M294.13,-65.62C318.44,-65.62 349.2,-65.62 372.95,-65.62"/>
<polygon fill="black" stroke="black" points="372.81,-69.12 382.81,-65.62 372.81,-62.12 372.81,-69.12"/>
<text text-anchor="middle" x="339.11" y="-68.82" font-family="Times New Roman,serif" font-size="14.00">y</text>
</g>
</g>
</svg>
