<svg xmlns="http://www.w3.org/2000/svg" xmlns:xlink="http://www.w3.org/1999/xlink" width="547pt" height="299pt" viewBox="7.20 7.20 539.70 291.70">
<g id="graph0" class="graph" transform="scale(1 1) rotate(0) translate(11.2 287.7)">
<polygon fill="white" stroke="none" points="-4,4 -4,-280.5 528.5,-280.5 528.5,4 -4,4"/>
<text text-anchor="middle" x="262.25" y="-7.2" font-family="Times New Roman,serif" font-size="14.00">図5-24 Affineレイヤの計算グラフ. (M,)は(1,M)と考えると分かりやすい</text>
<!-- X -->
<g id="node1" class="node">
<title>X</title>
<text text-anchor="middle" x="73.43" y="-253.45" font-family="Times New Roman,serif" font-size="14.00"> </text>
</g>
<!-- W -->
<g id="node2" class="node">
<title>W</title>
<text text-anchor="middle" x="73.43" y="-145.45" font-family="Times New Roman,serif" font-size="14.00"> </text>
</g>
<!-- X&#45;&gt;W -->
<!-- dot -->
<g id="node4" class="node">
<title>dot</title>
<ellipse fill="none" stroke="black" cx="207.38" cy="-150.5" rx="22.69" ry="22.69"/>
<text text-anchor="middle" x="207.38" y="-145.45" font-family="Times New Roman,serif" font-size="14.00">dot</text>
</g>
<!-- X&#45;&gt;dot -->
<g id="edge3" class="edge">
<title>X-&gt;dot</title>
<path fill="none" stroke="black" d="M96.55,-240.63C112.92,-227.38 135.73,-208.87 155.68,-192.5 163.9,-185.76 172.84,-178.37 180.89,-171.7"/>
<polygon fill="black" stroke="black" points="182.89,-174.59 188.35,-165.51 178.42,-169.2 182.89,-174.59"/>
<text text-anchor="middle" x="142.56" y="-232.23" font-family="Times New Roman,serif" font-size="14.00">(2,)</text>
<text text-anchor="middle" x="142.56" y="-215.73" font-family="Times New Roman,serif" font-size="14.00">X</text>
</g>
<!-- B -->
<g id="node3" class="node">
<title>B</title>
<text text-anchor="middle" x="73.43" y="-37.45" font-family="Times New Roman,serif" font-size="14.00"> </text>
</g>
<!-- W&#45;&gt;B -->
<!-- W&#45;&gt;dot -->
<g id="edge4" class="edge">
<title>W-&gt;dot</title>
<path fill="none" stroke="black" d="M100.19,-150.5C120.91,-150.5 150.2,-150.5 172.77,-150.5"/>
<polygon fill="black" stroke="black" points="172.68,-154 182.68,-150.5 172.68,-147 172.68,-154"/>
<text text-anchor="middle" x="142.56" y="-170.2" font-family="Times New Roman,serif" font-size="14.00">(2,3)</text>
<text text-anchor="middle" x="142.56" y="-153.7" font-family="Times New Roman,serif" font-size="14.00">W</text>
</g>
<!-- add -->
<g id="node5" class="node">
<title>add</title>
<ellipse fill="none" stroke="black" cx="346.57" cy="-80.5" rx="18" ry="18"/>
<text text-anchor="middle" x="346.57" y="-75.45" font-family="Times New Roman,serif" font-size="14.00">+</text>
</g>
<!-- B&#45;&gt;add -->
<g id="edge6" class="edge">
<title>B-&gt;add</title>
<path fill="none" stroke="black" d="M100.43,-46.14C151.46,-53.3 264.36,-69.12 317.22,-76.53"/>
<polygon fill="black" stroke="black" points="316.54,-79.97 326.93,-77.89 317.51,-73.03 316.54,-79.97"/>
<text text-anchor="middle" x="207.38" y="-83.73" font-family="Times New Roman,serif" font-size="14.00">(3,)</text>
<text text-anchor="middle" x="207.38" y="-67.23" font-family="Times New Roman,serif" font-size="14.00">B</text>
</g>
<!-- dot&#45;&gt;add -->
<g id="edge5" class="edge">
<title>dot-&gt;add</title>
<path fill="none" stroke="black" d="M228.03,-140.47C252.26,-128.11 293.47,-107.08 320.1,-93.49"/>
<polygon fill="black" stroke="black" points="321.52,-96.7 328.84,-89.03 318.34,-90.46 321.52,-96.7"/>
<text text-anchor="middle" x="279.32" y="-143.53" font-family="Times New Roman,serif" font-size="14.00">(3,)</text>
<text text-anchor="middle" x="279.32" y="-127.03" font-family="Times New Roman,serif" font-size="14.00">X・W</text>
</g>
<!-- Y -->
<g id="node6" class="node">
<title>Y</title>
<text text-anchor="middle" x="460.07" y="-75.45" font-family="Times New Roman,serif" font-size="14.00"> </text>
</g>
<!-- add&#45;&gt;Y -->
<g id="edge7" class="edge">
<title>add-&gt;Y</title>
<path fill="none" stroke="black" d="M364.99,-80.5C382.6,-80.5 410.1,-80.5 430.83,-80.5"/>
<polygon fill="black" stroke="black" points="430.62,-84 440.62,-80.5 430.62,-77 430.62,-84"/>
<text text-anchor="middle" x="403.32" y="-100.2" font-family="Times New Roman,serif" font-size="14.00">(3,)</text>
<text text-anchor="middle" x="403.32" y="-83.7" font-family="Times New Roman,serif" font-size="14.00">Y</text>
</g>
</g>
</svg>