<?xml version="1.0" encoding="UTF-8" standalone="no"?>
<!DOCTYPE svg PUBLIC "-//W3C//DTD SVG 1.1//EN"
 "http://www.w3.org/Graphics/SVG/1.1/DTD/svg11.dtd">
<!-- Generated by graphviz version 12.2.1 (20241206.2353)
 -->
<!-- Pages: 1 -->
<svg width="465pt" height="139pt"
 viewBox="7.20 7.20 457.70 132.20" xmlns="http://www.w3.org/2000/svg" xmlns:xlink="http://www.w3.org/1999/xlink">
<g id="graph0" class="graph" transform="scale(1 1) rotate(0) translate(11.2 128.2)">
<polygon fill="white" stroke="none" points="-4,4 -4,-121 446.5,-121 446.5,4 -4,4"/>
<!-- apple -->
<g id="node1" class="node">
<title>apple</title>
<text text-anchor="middle" x="59.75" y="-92.83" font-family="Times New Roman,serif" font-size="14.00">りんご</text>
</g>
<!-- mul1 -->
<g id="node5" class="node">
<title>mul1</title>
<ellipse fill="none" stroke="black" cx="209.62" cy="-72" rx="18" ry="18"/>
<text text-anchor="middle" x="209.62" y="-66.95" font-family="Times New Roman,serif" font-size="14.00">×</text>
</g>
<!-- apple&#45;&gt;mul1 -->
<g id="edge1" class="edge">
<title>apple&#45;&gt;mul1</title>
<path fill="none" stroke="black" d="M93.57,-93.01C119.6,-88.25 155.6,-81.68 180.37,-77.16"/>
<polygon fill="black" stroke="black" points="180.83,-80.63 190.04,-75.39 179.57,-73.75 180.83,-80.63"/>
<text text-anchor="middle" x="147.62" y="-87.89" font-family="Times New Roman,serif" font-size="14.00">100</text>
</g>
<!-- apple_num -->
<g id="node2" class="node">
<title>apple_num</title>
<text text-anchor="middle" x="59.75" y="-38.83" font-family="Times New Roman,serif" font-size="14.00">リンゴの個数</text>
</g>
<!-- apple_num&#45;&gt;mul1 -->
<g id="edge2" class="edge">
<title>apple_num&#45;&gt;mul1</title>
<path fill="none" stroke="black" d="M119.28,-54.62C131.98,-56.8 145.33,-59.16 157.75,-61.5 165.19,-62.9 173.23,-64.51 180.67,-66.05"/>
<polygon fill="black" stroke="black" points="179.71,-69.42 190.21,-68.04 181.14,-62.57 179.71,-69.42"/>
<text text-anchor="middle" x="147.62" y="-64.7" font-family="Times New Roman,serif" font-size="14.00">2</text>
</g>
<!-- tax -->
<g id="node3" class="node">
<title>tax</title>
<text text-anchor="middle" x="209.62" y="-11.82" font-family="Times New Roman,serif" font-size="14.00">消費税</text>
</g>
<!-- mul2 -->
<g id="node6" class="node">
<title>mul2</title>
<ellipse fill="none" stroke="black" cx="317.75" cy="-34" rx="18" ry="18"/>
<text text-anchor="middle" x="317.75" y="-28.95" font-family="Times New Roman,serif" font-size="14.00">×</text>
</g>
<!-- tax&#45;&gt;mul2 -->
<g id="edge4" class="edge">
<title>tax&#45;&gt;mul2</title>
<path fill="none" stroke="black" d="M243.33,-22.93C257.75,-25.1 274.52,-27.63 288.4,-29.73"/>
<polygon fill="black" stroke="black" points="287.8,-33.18 298.21,-31.21 288.85,-26.25 287.8,-33.18"/>
</g>
<!-- price -->
<g id="node4" class="node">
<title>price</title>
<text text-anchor="middle" x="417.25" y="-27.82" font-family="Times New Roman,serif" font-size="14.00">代金</text>
</g>
<!-- mul1&#45;&gt;mul2 -->
<g id="edge3" class="edge">
<title>mul1&#45;&gt;mul2</title>
<path fill="none" stroke="black" d="M226.74,-66.23C243.5,-60.23 270,-50.74 289.92,-43.61"/>
<polygon fill="black" stroke="black" points="290.82,-47 299.06,-40.34 288.46,-40.41 290.82,-47"/>
<text text-anchor="middle" x="271.62" y="-56.2" font-family="Times New Roman,serif" font-size="14.00">200</text>
</g>
<!-- mul2&#45;&gt;price -->
<g id="edge5" class="edge">
<title>mul2&#45;&gt;price</title>
<path fill="none" stroke="black" d="M336.18,-34C348.58,-34 365.66,-34 380.86,-34"/>
<polygon fill="black" stroke="black" points="380.5,-37.5 390.5,-34 380.5,-30.5 380.5,-37.5"/>
<text text-anchor="middle" x="363.88" y="-37.2" font-family="Times New Roman,serif" font-size="14.00">220</text>
</g>
</g>
</svg>
