<svg xmlns="http://www.w3.org/2000/svg" xmlns:xlink="http://www.w3.org/1999/xlink" width="525pt" height="371pt" viewBox="7.20 7.20 518.20 363.70">
<g id="graph0" class="graph" transform="scale(1 1) rotate(0) translate(11.2 359.7)">
<polygon fill="white" stroke="none" points="-4,4 -4,-352.5 507,-352.5 507,4 -4,4"/>
<text text-anchor="middle" x="251.5" y="-7.2" font-family="Times New Roman,serif" font-size="14.00">図5‑3  計算グラフによる問2の答え</text>
<!-- apple -->
<g id="node1" class="node">
<title>apple</title>
<text text-anchor="middle" x="59.75" y="-324.32" font-family="Times New Roman,serif" font-size="14.00">りんご</text>
</g>
<!-- apple_num -->
<g id="node2" class="node">
<title>apple_num</title>
<text text-anchor="middle" x="59.75" y="-252.32" font-family="Times New Roman,serif" font-size="14.00">リンゴの個数</text>
</g>
<!-- apple&#45;&gt;apple_num -->
<!-- mul_apple -->
<g id="node6" class="node">
<title>mul_apple</title>
<ellipse fill="none" stroke="black" cx="193.75" cy="-258.5" rx="18" ry="18"/>
<text text-anchor="middle" x="193.75" y="-253.45" font-family="Times New Roman,serif" font-size="14.00">×</text>
</g>
<!-- apple&#45;&gt;mul_apple -->
<g id="edge5" class="edge">
<title>apple-&gt;mul_apple</title>
<path fill="none" stroke="black" d="M93.33,-313.95C112.27,-304.19 136.52,-291.44 157.75,-279.5 161.09,-277.62 164.57,-275.61 168,-273.59"/>
<polygon fill="black" stroke="black" points="169.79,-276.59 176.57,-268.46 166.19,-270.59 169.79,-276.59"/>
<text text-anchor="middle" x="147.62" y="-292.83" font-family="Times New Roman,serif" font-size="14.00">100</text>
</g>
<!-- orange -->
<g id="node3" class="node">
<title>orange</title>
<text text-anchor="middle" x="59.75" y="-180.32" font-family="Times New Roman,serif" font-size="14.00">みかん</text>
</g>
<!-- apple_num&#45;&gt;orange -->
<!-- apple_num&#45;&gt;mul_apple -->
<g id="edge6" class="edge">
<title>apple_num-&gt;mul_apple</title>
<path fill="none" stroke="black" d="M119.42,-258.5C135.02,-258.5 151.18,-258.5 164.34,-258.5"/>
<polygon fill="black" stroke="black" points="163.98,-262 173.98,-258.5 163.98,-255 163.98,-262"/>
<text text-anchor="middle" x="147.62" y="-261.7" font-family="Times New Roman,serif" font-size="14.00">2</text>
</g>
<!-- orange_num -->
<g id="node4" class="node">
<title>orange_num</title>
<text text-anchor="middle" x="59.75" y="-108.33" font-family="Times New Roman,serif" font-size="14.00">みかんの個数</text>
</g>
<!-- orange&#45;&gt;orange_num -->
<!-- mul_orange -->
<g id="node7" class="node">
<title>mul_orange</title>
<ellipse fill="none" stroke="black" cx="193.75" cy="-151.5" rx="18" ry="18"/>
<text text-anchor="middle" x="193.75" y="-146.45" font-family="Times New Roman,serif" font-size="14.00">×</text>
</g>
<!-- orange&#45;&gt;mul_orange -->
<g id="edge7" class="edge">
<title>orange-&gt;mul_orange</title>
<path fill="none" stroke="black" d="M93.38,-177.85C115.44,-172 144.24,-164.36 165.15,-158.82"/>
<polygon fill="black" stroke="black" points="165.93,-162.23 174.69,-156.29 164.13,-155.47 165.93,-162.23"/>
<text text-anchor="middle" x="147.62" y="-169.07" font-family="Times New Roman,serif" font-size="14.00">150</text>
</g>
<!-- tax -->
<g id="node5" class="node">
<title>tax</title>
<text text-anchor="middle" x="59.75" y="-36.33" font-family="Times New Roman,serif" font-size="14.00">消費税</text>
</g>
<!-- orange_num&#45;&gt;tax -->
<!-- orange_num&#45;&gt;mul_orange -->
<g id="edge8" class="edge">
<title>orange_num-&gt;mul_orange</title>
<path fill="none" stroke="black" d="M119.38,-129.3C132.07,-132.68 145.39,-136.35 157.75,-140 160.34,-140.76 163.02,-141.59 165.7,-142.43"/>
<polygon fill="black" stroke="black" points="164.4,-145.69 174.99,-145.45 166.56,-139.03 164.4,-145.69"/>
<text text-anchor="middle" x="147.62" y="-143.2" font-family="Times New Roman,serif" font-size="14.00">3</text>
</g>
<!-- mul_tax -->
<g id="node9" class="node">
<title>mul_tax</title>
<ellipse fill="none" stroke="black" cx="378.25" cy="-86.5" rx="18" ry="18"/>
<text text-anchor="middle" x="378.25" y="-81.45" font-family="Times New Roman,serif" font-size="14.00">×</text>
</g>
<!-- tax&#45;&gt;mul_tax -->
<g id="edge12" class="edge">
<title>tax-&gt;mul_tax</title>
<path fill="none" stroke="black" d="M93.43,-47.04C155.65,-55.69 290.17,-74.39 348.88,-82.56"/>
<polygon fill="black" stroke="black" points="348.32,-86.01 358.7,-83.92 349.28,-79.08 348.32,-86.01"/>
<text text-anchor="middle" x="239.88" y="-71.74" font-family="Times New Roman,serif" font-size="14.00">1.1</text>
</g>
<!-- add_apple_orange -->
<g id="node8" class="node">
<title>add_apple_orange</title>
<ellipse fill="none" stroke="black" cx="286" cy="-151.5" rx="18" ry="18"/>
<text text-anchor="middle" x="286" y="-146.45" font-family="Times New Roman,serif" font-size="14.00">+</text>
</g>
<!-- mul_apple&#45;&gt;add_apple_orange -->
<g id="edge9" class="edge">
<title>mul_apple-&gt;add_apple_orange</title>
<path fill="none" stroke="black" d="M206.18,-244.95C221.3,-227.02 248.15,-195.18 266.26,-173.71"/>
<polygon fill="black" stroke="black" points="268.91,-176 272.69,-166.1 263.56,-171.49 268.91,-176"/>
<text text-anchor="middle" x="239.88" y="-217.78" font-family="Times New Roman,serif" font-size="14.00">200</text>
</g>
<!-- mul_orange&#45;&gt;add_apple_orange -->
<g id="edge10" class="edge">
<title>mul_orange-&gt;add_apple_orange</title>
<path fill="none" stroke="black" d="M212.15,-151.5C224.64,-151.5 241.74,-151.5 256.24,-151.5"/>
<polygon fill="black" stroke="black" points="256.14,-155 266.14,-151.5 256.14,-148 256.14,-155"/>
<text text-anchor="middle" x="239.88" y="-154.7" font-family="Times New Roman,serif" font-size="14.00">450</text>
</g>
<!-- add_apple_orange&#45;&gt;mul_tax -->
<g id="edge11" class="edge">
<title>add_apple_orange-&gt;mul_tax</title>
<path fill="none" stroke="black" d="M301.1,-141.34C315.19,-131.2 337.1,-115.41 353.81,-103.38"/>
<polygon fill="black" stroke="black" points="355.65,-106.37 361.72,-97.68 351.56,-100.69 355.65,-106.37"/>
<text text-anchor="middle" x="332.12" y="-128.02" font-family="Times New Roman,serif" font-size="14.00">650</text>
</g>
<!-- price -->
<g id="node10" class="node">
<title>price</title>
<text text-anchor="middle" x="477.75" y="-80.33" font-family="Times New Roman,serif" font-size="14.00">代金</text>
</g>
<!-- mul_tax&#45;&gt;price -->
<g id="edge13" class="edge">
<title>mul_tax-&gt;price</title>
<path fill="none" stroke="black" d="M396.68,-86.5C409.08,-86.5 426.16,-86.5 441.36,-86.5"/>
<polygon fill="black" stroke="black" points="441,-90 451,-86.5 441,-83 441,-90"/>
<text text-anchor="middle" x="424.38" y="-89.7" font-family="Times New Roman,serif" font-size="14.00">715</text>
</g>
</g>
</svg>