<svg width="2773" height="2187" xmlns="http://www.w3.org/2000/svg" xmlns:xlink="http://www.w3.org/1999/xlink" xml:space="preserve" overflow="hidden"><g transform="translate(-317 -248)"><rect x="320.5" y="251.5" width="2766" height="2180" stroke="#000000" stroke-width="6.875" stroke-miterlimit="8" fill="#FFFFFF"/><rect x="1110.5" y="614.5" width="320" height="1366" stroke="#000000" stroke-width="6.875" stroke-miterlimit="8" fill="#FFFFFF"/><text font-family="Yu Gothic,Yu Gothic_MSFontService,sans-serif" font-weight="400" font-size="64" transform="matrix(1 0 0 1 1148.2 1317)">Softmax</text><rect x="1871.5" y="614.5" width="320" height="1366" stroke="#000000" stroke-width="6.875" stroke-miterlimit="8" fill="#FFFFFF"/><text font-family="Yu Gothic,Yu Gothic_MSFontService,sans-serif" font-weight="400" font-size="64" transform="matrix(1 0 0 1 1946.66 1240)">Cross</text><text font-family="Yu Gothic,Yu Gothic_MSFontService,sans-serif" font-weight="400" font-size="64" transform="matrix(1 0 0 1 1917.16 1317)">Entropy</text><text font-family="Yu Gothic,Yu Gothic_MSFontService,sans-serif" font-weight="400" font-size="64" transform="matrix(1 0 0 1 1957.84 1394)">Error</text><path d="M884.552 613.344C881.77 613.344 879.27 614.465 877.055 616.708 874.839 618.95 873.11 621.956 871.867 625.725 870.625 629.494 870.003 633.256 870.003 637.012 870.003 639.822 870.388 641.922 871.158 643.314 871.928 644.705 873.218 645.401 875.029 645.401 876.812 645.401 878.561 644.631 880.277 643.091 881.992 641.551 883.762 639.356 885.586 636.505 887.41 633.655 888.7 630.365 889.456 626.637L889.821 624.894C890.064 623.786 890.226 622.827 890.307 622.017 890.388 621.206 890.429 620.328 890.429 619.382 890.429 617.302 889.983 615.775 889.092 614.803 888.2 613.83 886.687 613.344 884.552 613.344ZM883.742 610.142C885.498 610.142 887.139 610.338 888.666 610.73 890.193 611.122 891.766 611.817 893.387 612.817L897.116 610.142 899.71 610.791 893.752 636.485C893.158 639.052 892.861 641.051 892.861 642.483 892.861 643.564 893.036 644.347 893.387 644.834 893.739 645.32 894.293 645.563 895.049 645.563 895.86 645.563 896.724 645.232 897.643 644.57 898.561 643.908 899.858 642.645 901.533 640.781L903.844 643.05C901.412 645.644 899.338 647.488 897.623 648.582 895.907 649.677 894.049 650.224 892.05 650.224 890.375 650.224 889.038 649.67 888.038 648.562 887.038 647.454 886.538 645.982 886.538 644.145 886.538 642.659 886.849 641.078 887.47 639.403L886.944 639.241C884.35 643.023 881.891 645.793 879.568 647.549 877.244 649.305 874.785 650.183 872.192 650.183 869.22 650.183 866.916 649.062 865.282 646.819 863.647 644.577 862.83 641.429 862.83 637.377 862.83 632.729 863.742 628.265 865.565 623.982 867.389 619.7 869.895 616.323 873.083 613.85 876.271 611.378 879.824 610.142 883.742 610.142Z" fill-rule="evenodd"/><text fill="#000000" fill-opacity="0" font-family="Arial,Arial_MSFontService,sans-serif" font-size="40.0815" x="862.83" y="645.214">𝑎</text><path d="M922.611 628.056 924.428 628.056C924.388 629.148 924.358 630.126 924.338 630.99 924.318 631.853 924.304 632.692 924.294 633.506 924.284 634.321 924.279 635.125 924.279 635.919L924.279 658.556C924.279 659.171 924.299 659.702 924.338 660.149 924.378 660.596 924.443 660.973 924.532 661.281 924.621 661.589 924.74 661.852 924.889 662.07 925.038 662.289 925.212 662.477 925.411 662.636 925.649 662.875 925.966 663.058 926.364 663.187 926.761 663.316 927.267 663.426 927.883 663.515 928.498 663.604 929.238 663.674 930.102 663.723 930.965 663.773 932.003 663.808 933.214 663.828L933.214 666.419 909.595 666.419 909.595 663.828C910.766 663.788 911.759 663.743 912.573 663.694 913.387 663.644 914.082 663.575 914.658 663.485 915.234 663.396 915.696 663.297 916.043 663.187 916.391 663.078 916.693 662.944 916.952 662.785 917.23 662.607 917.468 662.413 917.666 662.204 917.865 661.996 918.024 661.733 918.143 661.415 918.262 661.097 918.356 660.71 918.426 660.253 918.495 659.797 918.53 659.231 918.53 658.556L918.53 637.2C918.53 636.425 918.381 635.879 918.083 635.562 917.786 635.244 917.359 635.085 916.803 635.085 916.187 635.085 915.274 635.403 914.062 636.038 912.851 636.674 911.282 637.617 909.356 638.868 909.098 638.411 908.86 637.954 908.641 637.498 908.423 637.041 908.195 636.574 907.956 636.098 910.419 634.747 912.856 633.402 915.269 632.062 917.681 630.721 920.129 629.386 922.611 628.056Z" fill-rule="evenodd"/><text fill="#000000" fill-opacity="0" font-family="Arial,Arial_MSFontService,sans-serif" font-size="38.3633" x="907.956" y="661.624">1</text><path d="M700.5 681.062 1077.58 681.063 1077.58 687.938 700.5 687.937ZM1073 670.75 1100.5 684.5 1073 698.25Z"/><path d="M6.44257e-06-6.875 350.741-6.87467 350.741 6.87533-6.44257e-06 6.875ZM343.866-20.6247 385.116 0.000360892 343.866 20.6253Z" transform="matrix(-1 0 0 1 1085.12 742)"/><path d="M789.688 784.174C790.796 784.174 791.741 784.322 792.525 784.619 793.065 784.835 793.606 785.193 794.146 785.693 794.686 786.193 795.166 786.889 795.585 787.78 796.003 788.672 796.368 789.672 796.679 790.779 796.99 791.887 797.334 793.481 797.712 795.562 798.361 799.047 798.989 802.715 799.597 806.565 800.205 810.415 800.725 813.988 801.157 817.284 803.778 813.502 806 809.8 807.824 806.18 809.648 802.559 810.958 799.412 811.755 796.737 812.552 794.062 812.951 791.887 812.951 790.212 812.951 788.942 812.68 788.078 812.14 787.618 811.6 787.159 810.681 786.889 809.384 786.808L809.79 784.822 820.448 784.822 821.542 786.848C819.489 792.468 816.706 798.48 813.194 804.883 809.736 811.151 805.777 817.392 801.319 823.607 797.05 829.524 793.498 833.806 790.661 836.454 788.688 838.264 786.784 839.561 784.946 840.344 783.487 840.939 781.934 841.236 780.286 841.236 779.718 841.236 779.063 841.189 778.32 841.094 777.577 841 777.003 840.871 776.598 840.709L778.34 832.847 781.542 832.847C781.542 834.576 782.136 835.441 783.325 835.441 784.892 835.441 786.716 834.461 788.796 832.502 790.877 830.544 793.322 827.592 796.132 823.647 795.348 818.919 794.281 813.218 792.93 806.545 791.498 799.412 790.553 794.994 790.093 793.292 789.526 791.239 788.931 789.928 788.31 789.361 787.932 789.01 787.459 788.834 786.892 788.834 786.027 788.834 785.216 789.185 784.46 789.888 783.703 790.59 782.771 791.806 781.664 793.535L779.029 791.793C780.894 789.01 782.636 787.044 784.257 785.896 785.878 784.748 787.689 784.174 789.688 784.174Z" fill-rule="evenodd"/><text fill="#000000" fill-opacity="0" font-family="Arial,Arial_MSFontService,sans-serif" font-size="57.0625" x="776.598" y="834.103">𝑦</text><path d="M838.425 802.047 840.242 802.047C840.202 803.139 840.173 804.117 840.153 804.98 840.133 805.844 840.118 806.683 840.108 807.497 840.098 808.311 840.093 809.116 840.093 809.91L840.093 832.547C840.093 833.162 840.113 833.693 840.153 834.14 840.192 834.587 840.257 834.964 840.346 835.272 840.436 835.58 840.555 835.843 840.704 836.061 840.853 836.28 841.026 836.468 841.225 836.627 841.463 836.865 841.781 837.049 842.178 837.178 842.575 837.307 843.082 837.416 843.697 837.506 844.313 837.595 845.052 837.665 845.916 837.714 846.78 837.764 847.817 837.799 849.029 837.819L849.029 840.41 825.409 840.41 825.409 837.819C826.581 837.779 827.573 837.734 828.388 837.685 829.202 837.635 829.897 837.565 830.473 837.476 831.048 837.387 831.51 837.287 831.858 837.178 832.205 837.069 832.508 836.935 832.766 836.776 833.044 836.597 833.282 836.404 833.481 836.195 833.679 835.987 833.838 835.724 833.957 835.406 834.077 835.088 834.171 834.701 834.24 834.244 834.31 833.788 834.345 833.222 834.345 832.547L834.345 811.191C834.345 810.416 834.196 809.87 833.898 809.552 833.6 809.235 833.173 809.076 832.617 809.076 832.002 809.076 831.088 809.394 829.877 810.029 828.666 810.664 827.097 811.608 825.171 812.859 824.913 812.402 824.674 811.945 824.456 811.488 824.237 811.032 824.009 810.565 823.771 810.089 826.233 808.738 828.671 807.393 831.083 806.053 833.496 804.712 835.943 803.377 838.425 802.047Z" fill-rule="evenodd"/><text fill="#000000" fill-opacity="0" font-family="Arial,Arial_MSFontService,sans-serif" font-size="38.3633" x="823.771" y="835.614">1</text><path d="M881.055 797.142 930.984 797.142 930.984 802.532 881.055 802.532Z" fill-rule="evenodd"/><text fill="#000000" fill-opacity="0" font-family="Arial,Arial_MSFontService,sans-serif" font-size="5.39014" x="881.055" y="801.859">−</text><path d="M971.071 774.812 976.663 774.812 974.434 784.822 986.755 784.822 985.863 788.915 973.543 788.915 969.936 804.64C969.233 807.693 968.788 809.888 968.598 811.226 968.409 812.563 968.315 813.637 968.315 814.447 968.315 817.798 969.706 819.473 972.489 819.473 973.678 819.473 974.941 819.02 976.278 818.115 977.616 817.21 979.203 815.663 981.04 813.475L983.391 815.906C981.04 818.743 978.778 820.837 976.603 822.188 974.428 823.539 972.151 824.215 969.774 824.215 964.127 824.215 961.303 821.364 961.303 815.663 961.303 813.853 961.533 811.948 961.992 809.949L966.775 788.915 959.966 788.915 960.574 786.119C962.168 786.092 963.377 785.97 964.201 785.754 965.025 785.538 965.714 785.241 966.268 784.862 966.822 784.484 967.329 783.944 967.788 783.241 968.247 782.539 968.693 781.641 969.125 780.546 969.558 779.452 970.206 777.541 971.071 774.812Z" fill-rule="evenodd"/><text fill="#000000" fill-opacity="0" font-family="Arial,Arial_MSFontService,sans-serif" font-size="49.4028" x="959.966" y="818.039">𝑡</text><path d="M1004.87 802.047 1006.69 802.047C1006.65 803.139 1006.62 804.117 1006.6 804.98 1006.58 805.844 1006.56 806.683 1006.55 807.497 1006.54 808.311 1006.54 809.116 1006.54 809.91L1006.54 832.547C1006.54 833.162 1006.56 833.693 1006.6 834.14 1006.64 834.587 1006.7 834.964 1006.79 835.272 1006.88 835.58 1007 835.843 1007.15 836.061 1007.3 836.28 1007.47 836.468 1007.67 836.627 1007.91 836.865 1008.22 837.049 1008.62 837.178 1009.02 837.307 1009.53 837.416 1010.14 837.506 1010.76 837.595 1011.5 837.665 1012.36 837.714 1013.22 837.764 1014.26 837.799 1015.47 837.819L1015.47 840.41 991.853 840.41 991.853 837.819C993.024 837.779 994.017 837.734 994.831 837.685 995.645 837.635 996.34 837.565 996.916 837.476 997.492 837.387 997.954 837.287 998.301 837.178 998.649 837.069 998.952 836.935 999.21 836.776 999.488 836.597 999.726 836.404 999.925 836.195 1000.12 835.987 1000.28 835.724 1000.4 835.406 1000.52 835.088 1000.61 834.701 1000.68 834.244 1000.75 833.788 1000.79 833.222 1000.79 832.547L1000.79 811.191C1000.79 810.416 1000.64 809.87 1000.34 809.552 1000.04 809.235 999.617 809.076 999.061 809.076 998.445 809.076 997.532 809.394 996.321 810.029 995.109 810.664 993.541 811.608 991.615 812.859 991.356 812.402 991.118 811.945 990.9 811.488 990.681 811.032 990.453 810.565 990.215 810.089 992.677 808.738 995.114 807.393 997.527 806.053 999.939 804.712 1002.39 803.377 1004.87 802.047Z" fill-rule="evenodd"/><text fill="#000000" fill-opacity="0" font-family="Arial,Arial_MSFontService,sans-serif" font-size="38.3633" x="990.215" y="835.614">1</text><path d="M884.461 1157.03C881.678 1157.03 879.179 1158.15 876.963 1160.39 874.748 1162.64 873.019 1165.64 871.776 1169.41 870.533 1173.18 869.912 1176.94 869.912 1180.7 869.912 1183.51 870.297 1185.61 871.067 1187 871.837 1188.39 873.127 1189.09 874.937 1189.09 876.72 1189.09 878.47 1188.32 880.185 1186.78 881.901 1185.24 883.671 1183.04 885.494 1180.19 887.318 1177.34 888.608 1174.05 889.365 1170.32L889.729 1168.58C889.973 1167.47 890.135 1166.51 890.216 1165.7 890.297 1164.89 890.337 1164.01 890.337 1163.07 890.337 1160.99 889.892 1159.46 889 1158.49 888.108 1157.52 886.595 1157.03 884.461 1157.03ZM883.65 1153.83C885.406 1153.83 887.048 1154.02 888.574 1154.41 890.101 1154.81 891.675 1155.5 893.296 1156.5L897.024 1153.83 899.618 1154.48 893.661 1180.17C893.066 1182.74 892.769 1184.74 892.769 1186.17 892.769 1187.25 892.945 1188.03 893.296 1188.52 893.647 1189 894.201 1189.25 894.957 1189.25 895.768 1189.25 896.633 1188.92 897.551 1188.26 898.47 1187.59 899.767 1186.33 901.442 1184.47L903.752 1186.74C901.32 1189.33 899.247 1191.17 897.531 1192.27 895.815 1193.36 893.958 1193.91 891.958 1193.91 890.283 1193.91 888.946 1193.35 887.946 1192.25 886.947 1191.14 886.447 1189.67 886.447 1187.83 886.447 1186.34 886.757 1184.76 887.379 1183.09L886.852 1182.93C884.258 1186.71 881.8 1189.48 879.476 1191.23 877.152 1192.99 874.694 1193.87 872.1 1193.87 869.128 1193.87 866.825 1192.75 865.19 1190.5 863.556 1188.26 862.738 1185.11 862.738 1181.06 862.738 1176.41 863.65 1171.95 865.474 1167.67 867.298 1163.38 869.803 1160.01 872.992 1157.54 876.18 1155.06 879.733 1153.83 883.65 1153.83Z" fill-rule="evenodd"/><text fill="#000000" fill-opacity="0" font-family="Arial,Arial_MSFontService,sans-serif" font-size="40.0815" x="862.738" y="1188.9">𝑎</text><path d="M922.098 1171.53C924.163 1171.53 925.925 1171.77 927.385 1172.23 928.844 1172.7 930.031 1173.33 930.944 1174.12 931.857 1174.92 932.518 1175.87 932.925 1176.98 933.332 1178.09 933.535 1179.3 933.535 1180.59 933.535 1181.36 933.481 1182.08 933.372 1182.75 933.262 1183.41 933.074 1184.07 932.806 1184.71 932.538 1185.36 932.185 1186.01 931.748 1186.66 931.311 1187.32 930.765 1188.01 930.11 1188.75 929.614 1189.38 928.968 1190.12 928.174 1190.95 927.38 1191.79 926.511 1192.68 925.568 1193.63 924.625 1194.59 923.637 1195.58 922.604 1196.61 921.572 1197.64 920.569 1198.67 919.596 1199.68 918.623 1200.69 917.729 1201.67 916.915 1202.63 916.101 1203.58 915.436 1204.45 914.92 1205.25L925.94 1205.25C926.873 1205.25 927.618 1205.21 928.174 1205.14 928.73 1205.08 929.192 1204.92 929.559 1204.68 929.926 1204.44 930.239 1204.08 930.497 1203.6 930.755 1203.11 931.053 1202.44 931.391 1201.59L934.161 1201.59C934.062 1203 933.967 1204.42 933.878 1205.84 933.789 1207.27 933.694 1208.69 933.595 1210.1L908.367 1210.1 908.367 1208.56C908.844 1207.48 909.399 1206.43 910.035 1205.38 910.67 1204.34 911.385 1203.28 912.179 1202.21 912.974 1201.14 913.877 1200.03 914.89 1198.89 915.903 1197.75 917.024 1196.56 918.256 1195.33 920.122 1193.46 921.641 1191.87 922.813 1190.55 923.984 1189.23 924.908 1188.05 925.583 1187.02 926.258 1185.99 926.72 1185.03 926.968 1184.16 927.216 1183.29 927.34 1182.35 927.34 1181.36 927.34 1180.35 927.196 1179.42 926.908 1178.56 926.62 1177.71 926.208 1176.98 925.672 1176.39 925.136 1175.79 924.456 1175.32 923.632 1174.99 922.808 1174.65 921.86 1174.48 920.787 1174.48 918.941 1174.48 917.392 1174.98 916.141 1175.99 914.89 1176.99 913.917 1178.44 913.222 1180.35L909.32 1180.35 909.32 1174.54C911.862 1173.49 914.2 1172.72 916.334 1172.25 918.469 1171.77 920.39 1171.53 922.098 1171.53Z" fill-rule="evenodd"/><text fill="#000000" fill-opacity="0" font-family="Arial,Arial_MSFontService,sans-serif" font-size="38.5718" x="908.367" y="1205.28">2</text><path d="M700.5 1224.06 1077.58 1224.06 1077.58 1230.94 700.5 1230.94ZM1073 1213.75 1100.5 1227.5 1073 1241.25Z"/><path d="M6.44257e-06-6.875 350.741-6.87467 350.741 6.87533-6.44257e-06 6.875ZM343.866-20.6247 385.116 0.000360892 343.866 20.6253Z" transform="matrix(-1 0 0 1 1085.12 1286)"/><path d="M789.803 1327.86C790.91 1327.86 791.856 1328.01 792.639 1328.3 793.18 1328.52 793.72 1328.88 794.261 1329.38 794.801 1329.88 795.281 1330.57 795.699 1331.47 796.118 1332.36 796.483 1333.36 796.794 1334.46 797.104 1335.57 797.449 1337.17 797.827 1339.25 798.475 1342.73 799.104 1346.4 799.711 1350.25 800.319 1354.1 800.839 1357.67 801.272 1360.97 803.893 1357.19 806.115 1353.49 807.939 1349.86 809.762 1346.24 811.073 1343.1 811.87 1340.42 812.667 1337.75 813.065 1335.57 813.065 1333.9 813.065 1332.63 812.795 1331.76 812.255 1331.3 811.714 1330.84 810.796 1330.57 809.499 1330.49L809.904 1328.51 820.563 1328.51 821.657 1330.53C819.604 1336.15 816.821 1342.16 813.308 1348.57 809.85 1354.84 805.892 1361.08 801.434 1367.29 797.165 1373.21 793.612 1377.49 790.775 1380.14 788.803 1381.95 786.898 1383.25 785.061 1384.03 783.602 1384.62 782.048 1384.92 780.4 1384.92 779.833 1384.92 779.178 1384.87 778.435 1384.78 777.692 1384.68 777.117 1384.56 776.712 1384.39L778.455 1376.53 781.657 1376.53C781.657 1378.26 782.251 1379.13 783.44 1379.13 785.007 1379.13 786.831 1378.15 788.911 1376.19 790.991 1374.23 793.437 1371.28 796.246 1367.33 795.463 1362.6 794.396 1356.9 793.045 1350.23 791.613 1343.1 790.667 1338.68 790.208 1336.98 789.64 1334.92 789.046 1333.61 788.425 1333.05 788.046 1332.69 787.574 1332.52 787.006 1332.52 786.142 1332.52 785.331 1332.87 784.575 1333.57 783.818 1334.28 782.886 1335.49 781.778 1337.22L779.144 1335.48C781.008 1332.69 782.751 1330.73 784.372 1329.58 785.993 1328.43 787.803 1327.86 789.803 1327.86Z" fill-rule="evenodd"/><text fill="#000000" fill-opacity="0" font-family="Arial,Arial_MSFontService,sans-serif" font-size="57.0625" x="776.712" y="1377.79">𝑦</text><path d="M838.119 1345.52C840.184 1345.52 841.946 1345.76 843.405 1346.22 844.865 1346.69 846.051 1347.32 846.965 1348.11 847.878 1348.91 848.538 1349.86 848.945 1350.97 849.353 1352.09 849.556 1353.29 849.556 1354.58 849.556 1355.35 849.501 1356.07 849.392 1356.74 849.283 1357.4 849.094 1358.06 848.826 1358.7 848.558 1359.35 848.206 1360 847.769 1360.65 847.332 1361.31 846.786 1362 846.131 1362.74 845.634 1363.37 844.989 1364.11 844.195 1364.94 843.401 1365.78 842.532 1366.67 841.589 1367.62 840.645 1368.58 839.657 1369.57 838.625 1370.6 837.592 1371.63 836.59 1372.66 835.617 1373.67 834.644 1374.68 833.75 1375.67 832.936 1376.62 832.122 1377.57 831.457 1378.45 830.94 1379.24L841.961 1379.24C842.894 1379.24 843.639 1379.21 844.195 1379.14 844.751 1379.07 845.212 1378.91 845.58 1378.67 845.947 1378.44 846.26 1378.07 846.518 1377.59 846.776 1377.1 847.074 1376.43 847.412 1375.58L850.182 1375.58C850.082 1376.99 849.988 1378.41 849.899 1379.84 849.809 1381.27 849.715 1382.69 849.616 1384.09L824.388 1384.09 824.388 1382.55C824.864 1381.47 825.42 1380.42 826.056 1379.37 826.691 1378.33 827.406 1377.27 828.2 1376.2 828.994 1375.13 829.898 1374.02 830.911 1372.88 831.923 1371.74 833.045 1370.55 834.276 1369.32 836.143 1367.45 837.662 1365.86 838.833 1364.54 840.005 1363.22 840.928 1362.04 841.603 1361.01 842.279 1359.98 842.74 1359.03 842.988 1358.15 843.237 1357.28 843.361 1356.35 843.361 1355.35 843.361 1354.34 843.217 1353.41 842.929 1352.55 842.641 1351.7 842.229 1350.97 841.693 1350.38 841.157 1349.78 840.477 1349.32 839.653 1348.98 838.828 1348.64 837.88 1348.47 836.808 1348.47 834.961 1348.47 833.413 1348.97 832.162 1349.98 830.911 1350.98 829.938 1352.43 829.243 1354.34L825.341 1354.34 825.341 1348.53C827.882 1347.48 830.221 1346.71 832.355 1346.24 834.49 1345.76 836.411 1345.52 838.119 1345.52Z" fill-rule="evenodd"/><text fill="#000000" fill-opacity="0" font-family="Arial,Arial_MSFontService,sans-serif" font-size="38.5718" x="824.388" y="1379.27">2</text><path d="M883.071 1340.83 933.001 1340.83 933.001 1346.22 883.071 1346.22Z" fill-rule="evenodd"/><text fill="#000000" fill-opacity="0" font-family="Arial,Arial_MSFontService,sans-serif" font-size="5.39014" x="883.071" y="1345.54">−</text><path d="M973.087 1318.5 978.68 1318.5 976.451 1328.51 988.771 1328.51 987.88 1332.6 975.559 1332.6 971.952 1348.32C971.25 1351.38 970.804 1353.57 970.615 1354.91 970.426 1356.25 970.331 1357.32 970.331 1358.13 970.331 1361.48 971.723 1363.16 974.506 1363.16 975.694 1363.16 976.958 1362.71 978.295 1361.8 979.632 1360.9 981.22 1359.35 983.057 1357.16L985.408 1359.59C983.057 1362.43 980.794 1364.52 978.619 1365.87 976.444 1367.22 974.168 1367.9 971.79 1367.9 966.144 1367.9 963.32 1365.05 963.32 1359.35 963.32 1357.54 963.55 1355.63 964.009 1353.63L968.791 1332.6 961.983 1332.6 962.591 1329.8C964.185 1329.78 965.394 1329.66 966.218 1329.44 967.042 1329.22 967.731 1328.93 968.285 1328.55 968.839 1328.17 969.345 1327.63 969.805 1326.93 970.264 1326.22 970.71 1325.33 971.142 1324.23 971.574 1323.14 972.223 1321.23 973.087 1318.5Z" fill-rule="evenodd"/><text fill="#000000" fill-opacity="0" font-family="Arial,Arial_MSFontService,sans-serif" font-size="49.4028" x="961.983" y="1361.72">𝑡</text><path d="M1006.46 1345.52C1008.53 1345.52 1010.29 1345.76 1011.75 1346.22 1013.21 1346.69 1014.4 1347.32 1015.31 1348.11 1016.22 1348.91 1016.88 1349.86 1017.29 1350.97 1017.7 1352.09 1017.9 1353.29 1017.9 1354.58 1017.9 1355.35 1017.85 1356.07 1017.74 1356.74 1017.63 1357.4 1017.44 1358.06 1017.17 1358.7 1016.9 1359.35 1016.55 1360 1016.11 1360.65 1015.68 1361.31 1015.13 1362 1014.48 1362.74 1013.98 1363.37 1013.33 1364.11 1012.54 1364.94 1011.75 1365.78 1010.88 1366.67 1009.93 1367.62 1008.99 1368.58 1008 1369.57 1006.97 1370.6 1005.94 1371.63 1004.94 1372.66 1003.96 1373.67 1002.99 1374.68 1002.1 1375.67 1001.28 1376.62 1000.47 1377.57 999.802 1378.45 999.286 1379.24L1010.31 1379.24C1011.24 1379.24 1011.98 1379.21 1012.54 1379.14 1013.1 1379.07 1013.56 1378.91 1013.93 1378.67 1014.29 1378.44 1014.61 1378.07 1014.86 1377.59 1015.12 1377.1 1015.42 1376.43 1015.76 1375.58L1018.53 1375.58C1018.43 1376.99 1018.33 1378.41 1018.24 1379.84 1018.16 1381.27 1018.06 1382.69 1017.96 1384.09L992.733 1384.09 992.733 1382.55C993.21 1381.47 993.766 1380.42 994.401 1379.37 995.037 1378.33 995.752 1377.27 996.546 1376.2 997.34 1375.13 998.244 1374.02 999.256 1372.88 1000.27 1371.74 1001.39 1370.55 1002.62 1369.32 1004.49 1367.45 1006.01 1365.86 1007.18 1364.54 1008.35 1363.22 1009.27 1362.04 1009.95 1361.01 1010.62 1359.98 1011.09 1359.03 1011.33 1358.15 1011.58 1357.28 1011.71 1356.35 1011.71 1355.35 1011.71 1354.34 1011.56 1353.41 1011.27 1352.55 1010.99 1351.7 1010.57 1350.97 1010.04 1350.38 1009.5 1349.78 1008.82 1349.32 1008 1348.98 1007.17 1348.64 1006.23 1348.47 1005.15 1348.47 1003.31 1348.47 1001.76 1348.97 1000.51 1349.98 999.256 1350.98 998.283 1352.43 997.588 1354.34L993.687 1354.34 993.687 1348.53C996.228 1347.48 998.566 1346.71 1000.7 1346.24 1002.84 1345.76 1004.76 1345.52 1006.46 1345.52Z" fill-rule="evenodd"/><text fill="#000000" fill-opacity="0" font-family="Arial,Arial_MSFontService,sans-serif" font-size="38.5718" x="992.733" y="1379.27">2</text><path d="M884.461 1739.95C881.678 1739.95 879.179 1741.07 876.963 1743.31 874.748 1745.55 873.019 1748.56 871.776 1752.33 870.533 1756.1 869.912 1759.86 869.912 1763.61 869.912 1766.42 870.297 1768.52 871.067 1769.92 871.837 1771.31 873.127 1772 874.937 1772 876.72 1772 878.47 1771.23 880.185 1769.69 881.901 1768.15 883.671 1765.96 885.494 1763.11 887.318 1760.26 888.608 1756.97 889.365 1753.24L889.729 1751.5C889.973 1750.39 890.135 1749.43 890.216 1748.62 890.297 1747.81 890.337 1746.93 890.337 1745.98 890.337 1743.9 889.892 1742.38 889 1741.4 888.108 1740.43 886.595 1739.95 884.461 1739.95ZM883.65 1736.74C885.406 1736.74 887.048 1736.94 888.574 1737.33 890.101 1737.72 891.675 1738.42 893.296 1739.42L897.024 1736.74 899.618 1737.39 893.661 1763.09C893.066 1765.65 892.769 1767.65 892.769 1769.08 892.769 1770.16 892.945 1770.95 893.296 1771.43 893.647 1771.92 894.201 1772.16 894.957 1772.16 895.768 1772.16 896.633 1771.83 897.551 1771.17 898.47 1770.51 899.767 1769.25 901.442 1767.38L903.752 1769.65C901.32 1772.25 899.247 1774.09 897.531 1775.18 895.815 1776.28 893.958 1776.82 891.958 1776.82 890.283 1776.82 888.946 1776.27 887.946 1775.16 886.947 1774.06 886.447 1772.58 886.447 1770.75 886.447 1769.26 886.757 1767.68 887.379 1766L886.852 1765.84C884.258 1769.62 881.8 1772.39 879.476 1774.15 877.152 1775.91 874.694 1776.78 872.1 1776.78 869.128 1776.78 866.825 1775.66 865.19 1773.42 863.556 1771.18 862.738 1768.03 862.738 1763.98 862.738 1759.33 863.65 1754.87 865.474 1750.58 867.298 1746.3 869.803 1742.92 872.992 1740.45 876.18 1737.98 879.733 1736.74 883.65 1736.74Z" fill-rule="evenodd"/><text fill="#000000" fill-opacity="0" font-family="Arial,Arial_MSFontService,sans-serif" font-size="40.0815" x="862.738" y="1771.81">𝑎</text><path d="M922.038 1754.45C923.627 1754.45 925.111 1754.62 926.491 1754.95 927.871 1755.29 929.068 1755.8 930.08 1756.49 931.093 1757.17 931.882 1758.03 932.448 1759.05 933.014 1760.07 933.297 1761.26 933.297 1762.61 933.297 1763.88 933.118 1765 932.761 1765.98 932.404 1766.95 931.853 1767.83 931.108 1768.63 930.363 1769.42 929.45 1770.14 928.368 1770.79 927.285 1771.43 926.039 1772.05 924.63 1772.65L924.63 1773C925.96 1773.24 927.201 1773.63 928.353 1774.15 929.504 1774.68 930.512 1775.34 931.376 1776.15 932.24 1776.95 932.92 1777.88 933.416 1778.93 933.913 1779.98 934.161 1781.15 934.161 1782.42 934.161 1784.01 933.863 1785.48 933.267 1786.84 932.672 1788.2 931.778 1789.38 930.587 1790.37 929.395 1791.36 927.926 1792.14 926.178 1792.69 924.431 1793.25 922.386 1793.53 920.043 1793.53 918.196 1793.53 916.32 1793.34 914.413 1792.98 912.507 1792.61 910.7 1792.13 908.992 1791.53L908.992 1785.1 912.835 1785.1C913.152 1786.09 913.53 1786.94 913.967 1787.64 914.403 1788.35 914.915 1788.92 915.5 1789.37 916.086 1789.82 916.761 1790.14 917.526 1790.34 918.29 1790.54 919.159 1790.64 920.132 1790.64 922.694 1790.64 924.635 1790.03 925.955 1788.81 927.276 1787.58 927.936 1785.73 927.936 1783.25 927.936 1780.61 927.067 1778.61 925.33 1777.25 923.592 1775.89 921.016 1775.21 917.6 1775.21L914.979 1775.21 914.979 1772.35C917.064 1772.25 918.866 1771.96 920.385 1771.47 921.904 1770.98 923.17 1770.35 924.183 1769.58 925.196 1768.8 925.95 1767.9 926.447 1766.87 926.943 1765.84 927.191 1764.73 927.191 1763.56 927.191 1761.66 926.625 1760.15 925.493 1759.05 924.362 1757.95 922.723 1757.4 920.579 1757.4 918.772 1757.4 917.258 1757.89 916.037 1758.89 914.815 1759.88 913.877 1761.36 913.222 1763.32L909.439 1763.32 909.439 1757.46C911.782 1756.46 913.991 1755.71 916.066 1755.21 918.141 1754.7 920.132 1754.45 922.038 1754.45Z" fill-rule="evenodd"/><text fill="#000000" fill-opacity="0" font-family="Arial,Arial_MSFontService,sans-serif" font-size="39.0781" x="908.992" y="1788.64">3</text><path d="M700.5 1807.06 1077.58 1807.06 1077.58 1813.94 700.5 1813.94ZM1073 1796.75 1100.5 1810.5 1073 1824.25Z"/><path d="M6.44257e-06-6.875 350.741-6.87467 350.741 6.87533-6.44257e-06 6.875ZM343.866-20.6247 385.116 0.000360892 343.866 20.6253Z" transform="matrix(-1 0 0 1 1085.12 1869)"/><path d="M789.803 1910.77C790.91 1910.77 791.856 1910.92 792.639 1911.22 793.18 1911.44 793.72 1911.79 794.261 1912.29 794.801 1912.79 795.281 1913.49 795.699 1914.38 796.118 1915.27 796.483 1916.27 796.794 1917.38 797.104 1918.49 797.449 1920.08 797.827 1922.16 798.475 1925.65 799.104 1929.32 799.711 1933.17 800.319 1937.02 800.839 1940.59 801.272 1943.89 803.893 1940.1 806.115 1936.4 807.939 1932.78 809.762 1929.16 811.073 1926.01 811.87 1923.34 812.667 1920.66 813.065 1918.49 813.065 1916.81 813.065 1915.54 812.795 1914.68 812.255 1914.22 811.714 1913.76 810.796 1913.49 809.499 1913.41L809.904 1911.42 820.563 1911.42 821.657 1913.45C819.604 1919.07 816.821 1925.08 813.308 1931.48 809.85 1937.75 805.892 1943.99 801.434 1950.21 797.165 1956.12 793.612 1960.41 790.775 1963.06 788.803 1964.87 786.898 1966.16 785.061 1966.95 783.602 1967.54 782.048 1967.84 780.4 1967.84 779.833 1967.84 779.178 1967.79 778.435 1967.7 777.692 1967.6 777.117 1967.47 776.712 1967.31L778.455 1959.45 781.657 1959.45C781.657 1961.18 782.251 1962.04 783.44 1962.04 785.007 1962.04 786.831 1961.06 788.911 1959.1 790.991 1957.14 793.437 1954.19 796.246 1950.25 795.463 1945.52 794.396 1939.82 793.045 1933.15 791.613 1926.01 790.667 1921.6 790.208 1919.89 789.64 1917.84 789.046 1916.53 788.425 1915.96 788.046 1915.61 787.574 1915.44 787.006 1915.44 786.142 1915.44 785.331 1915.79 784.575 1916.49 783.818 1917.19 782.886 1918.41 781.778 1920.14L779.144 1918.39C781.008 1915.61 782.751 1913.65 784.372 1912.5 785.993 1911.35 787.803 1910.77 789.803 1910.77Z" fill-rule="evenodd"/><text fill="#000000" fill-opacity="0" font-family="Arial,Arial_MSFontService,sans-serif" font-size="57.0625" x="776.712" y="1960.7">𝑦</text><path d="M838.059 1928.44C839.648 1928.44 841.132 1928.61 842.512 1928.95 843.892 1929.28 845.088 1929.79 846.101 1930.48 847.114 1931.16 847.903 1932.02 848.469 1933.04 849.035 1934.06 849.318 1935.25 849.318 1936.6 849.318 1937.87 849.139 1938.99 848.782 1939.97 848.424 1940.94 847.873 1941.82 847.129 1942.62 846.384 1943.41 845.471 1944.13 844.388 1944.78 843.306 1945.42 842.06 1946.04 840.65 1946.64L840.65 1947C841.981 1947.23 843.222 1947.62 844.373 1948.14 845.525 1948.67 846.533 1949.33 847.397 1950.14 848.26 1950.94 848.941 1951.87 849.437 1952.92 849.933 1953.98 850.182 1955.14 850.182 1956.41 850.182 1958 849.884 1959.47 849.288 1960.83 848.692 1962.19 847.799 1963.37 846.607 1964.36 845.416 1965.35 843.947 1966.13 842.199 1966.68 840.452 1967.24 838.406 1967.52 836.063 1967.52 834.217 1967.52 832.34 1967.33 830.434 1966.97 828.528 1966.6 826.721 1966.12 825.013 1965.52L825.013 1959.09 828.855 1959.09C829.173 1960.08 829.55 1960.93 829.987 1961.64 830.424 1962.34 830.935 1962.92 831.521 1963.36 832.107 1963.81 832.782 1964.13 833.547 1964.33 834.311 1964.53 835.18 1964.63 836.153 1964.63 838.714 1964.63 840.655 1964.02 841.976 1962.8 843.296 1961.58 843.956 1959.72 843.956 1957.24 843.956 1954.6 843.088 1952.6 841.35 1951.24 839.613 1949.88 837.036 1949.2 833.621 1949.2L831 1949.2 831 1946.34C833.085 1946.24 834.887 1945.95 836.406 1945.46 837.925 1944.98 839.191 1944.34 840.204 1943.57 841.216 1942.8 841.971 1941.89 842.467 1940.86 842.964 1939.83 843.212 1938.73 843.212 1937.55 843.212 1935.65 842.646 1934.14 841.514 1933.04 840.382 1931.94 838.744 1931.39 836.6 1931.39 834.793 1931.39 833.279 1931.88 832.057 1932.88 830.836 1933.87 829.898 1935.35 829.243 1937.32L825.46 1937.32 825.46 1931.45C827.803 1930.45 830.012 1929.71 832.087 1929.2 834.162 1928.69 836.153 1928.44 838.059 1928.44Z" fill-rule="evenodd"/><text fill="#000000" fill-opacity="0" font-family="Arial,Arial_MSFontService,sans-serif" font-size="39.0781" x="825.013" y="1962.63">3</text><path d="M883.071 1923.74 933.001 1923.74 933.001 1929.13 883.071 1929.13Z" fill-rule="evenodd"/><text fill="#000000" fill-opacity="0" font-family="Arial,Arial_MSFontService,sans-serif" font-size="5.39014" x="883.071" y="1928.46">−</text><path d="M973.087 1901.41 978.68 1901.41 976.451 1911.42 988.771 1911.42 987.88 1915.52 975.559 1915.52 971.952 1931.24C971.25 1934.29 970.804 1936.49 970.615 1937.83 970.426 1939.16 970.331 1940.24 970.331 1941.05 970.331 1944.4 971.723 1946.07 974.506 1946.07 975.694 1946.07 976.958 1945.62 978.295 1944.72 979.632 1943.81 981.22 1942.26 983.057 1940.08L985.408 1942.51C983.057 1945.34 980.794 1947.44 978.619 1948.79 976.444 1950.14 974.168 1950.82 971.79 1950.82 966.144 1950.82 963.32 1947.97 963.32 1942.26 963.32 1940.45 963.55 1938.55 964.009 1936.55L968.791 1915.52 961.983 1915.52 962.591 1912.72C964.185 1912.69 965.394 1912.57 966.218 1912.36 967.042 1912.14 967.731 1911.84 968.285 1911.46 968.839 1911.09 969.345 1910.55 969.805 1909.84 970.264 1909.14 970.71 1908.24 971.142 1907.15 971.574 1906.05 972.223 1904.14 973.087 1901.41Z" fill-rule="evenodd"/><text fill="#000000" fill-opacity="0" font-family="Arial,Arial_MSFontService,sans-serif" font-size="49.4028" x="961.983" y="1944.64">𝑡</text><path d="M1006.4 1928.44C1007.99 1928.44 1009.48 1928.61 1010.86 1928.95 1012.24 1929.28 1013.43 1929.79 1014.45 1930.48 1015.46 1931.16 1016.25 1932.02 1016.81 1933.04 1017.38 1934.06 1017.66 1935.25 1017.66 1936.6 1017.66 1937.87 1017.48 1938.99 1017.13 1939.97 1016.77 1940.94 1016.22 1941.82 1015.47 1942.62 1014.73 1943.41 1013.82 1944.13 1012.73 1944.78 1011.65 1945.42 1010.41 1946.04 1009 1946.64L1009 1947C1010.33 1947.23 1011.57 1947.62 1012.72 1948.14 1013.87 1948.67 1014.88 1949.33 1015.74 1950.14 1016.61 1950.94 1017.29 1951.87 1017.78 1952.92 1018.28 1953.98 1018.53 1955.14 1018.53 1956.41 1018.53 1958 1018.23 1959.47 1017.63 1960.83 1017.04 1962.19 1016.14 1963.37 1014.95 1964.36 1013.76 1965.35 1012.29 1966.13 1010.54 1966.68 1008.8 1967.24 1006.75 1967.52 1004.41 1967.52 1002.56 1967.52 1000.69 1967.33 998.78 1966.97 996.874 1966.6 995.067 1966.12 993.359 1965.52L993.359 1959.09 997.201 1959.09C997.519 1960.08 997.896 1960.93 998.333 1961.64 998.77 1962.34 999.281 1962.92 999.867 1963.36 1000.45 1963.81 1001.13 1964.13 1001.89 1964.33 1002.66 1964.53 1003.53 1964.63 1004.5 1964.63 1007.06 1964.63 1009 1964.02 1010.32 1962.8 1011.64 1961.58 1012.3 1959.72 1012.3 1957.24 1012.3 1954.6 1011.43 1952.6 1009.7 1951.24 1007.96 1949.88 1005.38 1949.2 1001.97 1949.2L999.346 1949.2 999.346 1946.34C1001.43 1946.24 1003.23 1945.95 1004.75 1945.46 1006.27 1944.98 1007.54 1944.34 1008.55 1943.57 1009.56 1942.8 1010.32 1941.89 1010.81 1940.86 1011.31 1939.83 1011.56 1938.73 1011.56 1937.55 1011.56 1935.65 1010.99 1934.14 1009.86 1933.04 1008.73 1931.94 1007.09 1931.39 1004.95 1931.39 1003.14 1931.39 1001.62 1931.88 1000.4 1932.88 999.182 1933.87 998.244 1935.35 997.588 1937.32L993.806 1937.32 993.806 1931.45C996.149 1930.45 998.358 1929.71 1000.43 1929.2 1002.51 1928.69 1004.5 1928.44 1006.4 1928.44Z" fill-rule="evenodd"/><text fill="#000000" fill-opacity="0" font-family="Arial,Arial_MSFontService,sans-serif" font-size="39.0781" x="993.359" y="1962.63">3</text><path d="M1630.02 610.183C1631.12 610.183 1632.07 610.331 1632.85 610.628 1633.39 610.845 1633.93 611.203 1634.47 611.702 1635.01 612.202 1635.49 612.898 1635.91 613.79 1636.33 614.681 1636.7 615.681 1637.01 616.789 1637.32 617.896 1637.66 619.49 1638.04 621.571 1638.69 625.056 1639.32 628.724 1639.92 632.574 1640.53 636.424 1641.05 639.997 1641.48 643.294 1644.11 639.511 1646.33 635.809 1648.15 632.189 1649.97 628.569 1651.29 625.421 1652.08 622.746 1652.88 620.071 1653.28 617.896 1653.28 616.221 1653.28 614.951 1653.01 614.087 1652.47 613.628 1651.93 613.168 1651.01 612.898 1649.71 612.817L1650.12 610.831 1660.78 610.831 1661.87 612.857C1659.82 618.477 1657.03 624.489 1653.52 630.892 1650.06 637.16 1646.1 643.402 1641.65 649.616 1637.38 655.533 1633.82 659.815 1630.99 662.463 1629.02 664.273 1627.11 665.57 1625.27 666.354 1623.81 666.948 1622.26 667.245 1620.61 667.245 1620.05 667.245 1619.39 667.198 1618.65 667.103 1617.9 667.009 1617.33 666.88 1616.92 666.718L1618.67 658.856 1621.87 658.856C1621.87 660.585 1622.46 661.45 1623.65 661.45 1625.22 661.45 1627.04 660.47 1629.12 658.512 1631.2 656.553 1633.65 653.601 1636.46 649.656 1635.68 644.928 1634.61 639.227 1633.26 632.554 1631.83 625.421 1630.88 621.003 1630.42 619.301 1629.85 617.248 1629.26 615.938 1628.64 615.37 1628.26 615.019 1627.79 614.843 1627.22 614.843 1626.35 614.843 1625.54 615.195 1624.79 615.897 1624.03 616.599 1623.1 617.815 1621.99 619.544L1619.36 617.802C1621.22 615.019 1622.96 613.053 1624.58 611.905 1626.21 610.757 1628.02 610.183 1630.02 610.183Z" fill-rule="evenodd"/><text fill="#000000" fill-opacity="0" font-family="Arial,Arial_MSFontService,sans-serif" font-size="57.0625" x="1616.92" y="660.112">𝑦</text><path d="M1678.75 628.056 1680.57 628.056C1680.53 629.148 1680.5 630.126 1680.48 630.99 1680.46 631.853 1680.45 632.692 1680.44 633.506 1680.43 634.321 1680.42 635.125 1680.42 635.919L1680.42 658.556C1680.42 659.171 1680.44 659.702 1680.48 660.149 1680.52 660.596 1680.58 660.973 1680.67 661.281 1680.76 661.589 1680.88 661.852 1681.03 662.07 1681.18 662.289 1681.35 662.477 1681.55 662.636 1681.79 662.875 1682.11 663.058 1682.51 663.187 1682.9 663.316 1683.41 663.426 1684.02 663.515 1684.64 663.604 1685.38 663.674 1686.24 663.723 1687.11 663.773 1688.14 663.808 1689.36 663.828L1689.36 666.419 1665.74 666.419 1665.74 663.828C1666.91 663.788 1667.9 663.743 1668.71 663.694 1669.53 663.644 1670.22 663.575 1670.8 663.485 1671.38 663.396 1671.84 663.297 1672.18 663.187 1672.53 663.078 1672.84 662.944 1673.09 662.785 1673.37 662.607 1673.61 662.413 1673.81 662.204 1674.01 661.996 1674.17 661.733 1674.28 661.415 1674.4 661.097 1674.5 660.71 1674.57 660.253 1674.64 659.797 1674.67 659.231 1674.67 658.556L1674.67 637.2C1674.67 636.425 1674.52 635.879 1674.23 635.562 1673.93 635.244 1673.5 635.085 1672.94 635.085 1672.33 635.085 1671.42 635.403 1670.2 636.038 1668.99 636.674 1667.42 637.617 1665.5 638.868 1665.24 638.411 1665 637.954 1664.78 637.498 1664.56 637.041 1664.34 636.574 1664.1 636.098 1666.56 634.747 1669 633.402 1671.41 632.062 1673.82 630.721 1676.27 629.386 1678.75 628.056Z" fill-rule="evenodd"/><text fill="#000000" fill-opacity="0" font-family="Arial,Arial_MSFontService,sans-serif" font-size="38.3633" x="1664.1" y="661.624">1</text><path d="M1458.5 681.062 1835.58 681.063 1835.58 687.938 1458.5 687.937ZM1831 670.75 1858.5 684.5 1831 698.25Z"/><path d="M6.44257e-06-6.875 350.741-6.87467 350.741 6.87533-6.44257e-06 6.875ZM343.866-20.6247 385.116 0.000360892 343.866 20.6253Z" transform="matrix(-1 0 0 1 1843.12 742)"/><path d="M1629.92 1153.87C1631.03 1153.87 1631.98 1154.02 1632.76 1154.31 1633.3 1154.53 1633.84 1154.89 1634.38 1155.39 1634.92 1155.89 1635.4 1156.58 1635.82 1157.47 1636.24 1158.37 1636.6 1159.37 1636.91 1160.47 1637.23 1161.58 1637.57 1163.18 1637.95 1165.26 1638.6 1168.74 1639.22 1172.41 1639.83 1176.26 1640.44 1180.11 1640.96 1183.68 1641.39 1186.98 1644.01 1183.2 1646.24 1179.49 1648.06 1175.87 1649.88 1172.25 1651.19 1169.11 1651.99 1166.43 1652.79 1163.76 1653.19 1161.58 1653.19 1159.91 1653.19 1158.64 1652.92 1157.77 1652.38 1157.31 1651.84 1156.85 1650.92 1156.58 1649.62 1156.5L1650.03 1154.52 1660.68 1154.52 1661.78 1156.54C1659.72 1162.16 1656.94 1168.17 1653.43 1174.58 1649.97 1180.85 1646.01 1187.09 1641.55 1193.3 1637.29 1199.22 1633.73 1203.5 1630.9 1206.15 1628.92 1207.96 1627.02 1209.26 1625.18 1210.04 1623.72 1210.63 1622.17 1210.93 1620.52 1210.93 1619.95 1210.93 1619.3 1210.88 1618.56 1210.79 1617.81 1210.69 1617.24 1210.57 1616.83 1210.4L1618.58 1202.54 1621.78 1202.54C1621.78 1204.27 1622.37 1205.13 1623.56 1205.13 1625.13 1205.13 1626.95 1204.16 1629.03 1202.2 1631.11 1200.24 1633.56 1197.29 1636.37 1193.34 1635.58 1188.61 1634.52 1182.91 1633.17 1176.24 1631.73 1169.11 1630.79 1164.69 1630.33 1162.99 1629.76 1160.93 1629.17 1159.62 1628.55 1159.06 1628.17 1158.7 1627.69 1158.53 1627.13 1158.53 1626.26 1158.53 1625.45 1158.88 1624.7 1159.58 1623.94 1160.28 1623.01 1161.5 1621.9 1163.23L1619.26 1161.49C1621.13 1158.7 1622.87 1156.74 1624.49 1155.59 1626.11 1154.44 1627.92 1153.87 1629.92 1153.87Z" fill-rule="evenodd"/><text fill="#000000" fill-opacity="0" font-family="Arial,Arial_MSFontService,sans-serif" font-size="57.0625" x="1616.83" y="1203.8">𝑦</text><path d="M1678.24 1171.53C1680.3 1171.53 1682.07 1171.77 1683.53 1172.23 1684.99 1172.7 1686.17 1173.33 1687.09 1174.12 1688 1174.92 1688.66 1175.87 1689.07 1176.98 1689.47 1178.09 1689.68 1179.3 1689.68 1180.59 1689.68 1181.36 1689.62 1182.08 1689.51 1182.75 1689.4 1183.41 1689.22 1184.07 1688.95 1184.71 1688.68 1185.36 1688.33 1186.01 1687.89 1186.66 1687.45 1187.32 1686.91 1188.01 1686.25 1188.75 1685.76 1189.38 1685.11 1190.12 1684.32 1190.95 1683.52 1191.79 1682.65 1192.68 1681.71 1193.63 1680.77 1194.59 1679.78 1195.58 1678.75 1196.61 1677.71 1197.64 1676.71 1198.67 1675.74 1199.68 1674.76 1200.69 1673.87 1201.67 1673.06 1202.63 1672.24 1203.58 1671.58 1204.45 1671.06 1205.25L1682.08 1205.25C1683.02 1205.25 1683.76 1205.21 1684.32 1205.14 1684.87 1205.08 1685.33 1204.92 1685.7 1204.68 1686.07 1204.44 1686.38 1204.08 1686.64 1203.6 1686.9 1203.11 1687.2 1202.44 1687.53 1201.59L1690.3 1201.59C1690.2 1203 1690.11 1204.42 1690.02 1205.84 1689.93 1207.27 1689.84 1208.69 1689.74 1210.1L1664.51 1210.1 1664.51 1208.56C1664.99 1207.48 1665.54 1206.43 1666.18 1205.38 1666.81 1204.34 1667.53 1203.28 1668.32 1202.21 1669.12 1201.14 1670.02 1200.03 1671.03 1198.89 1672.04 1197.75 1673.17 1196.56 1674.4 1195.33 1676.26 1193.46 1677.78 1191.87 1678.95 1190.55 1680.13 1189.23 1681.05 1188.05 1681.72 1187.02 1682.4 1185.99 1682.86 1185.03 1683.11 1184.16 1683.36 1183.29 1683.48 1182.35 1683.48 1181.36 1683.48 1180.35 1683.34 1179.42 1683.05 1178.56 1682.76 1177.71 1682.35 1176.98 1681.81 1176.39 1681.28 1175.79 1680.6 1175.32 1679.77 1174.99 1678.95 1174.65 1678 1174.48 1676.93 1174.48 1675.08 1174.48 1673.53 1174.98 1672.28 1175.99 1671.03 1176.99 1670.06 1178.44 1669.36 1180.35L1665.46 1180.35 1665.46 1174.54C1668 1173.49 1670.34 1172.72 1672.48 1172.25 1674.61 1171.77 1676.53 1171.53 1678.24 1171.53Z" fill-rule="evenodd"/><text fill="#000000" fill-opacity="0" font-family="Arial,Arial_MSFontService,sans-serif" font-size="38.5718" x="1664.51" y="1205.28">2</text><path d="M1458.5 1224.06 1835.58 1224.06 1835.58 1230.94 1458.5 1230.94ZM1831 1213.75 1858.5 1227.5 1831 1241.25Z"/><path d="M6.44257e-06-6.875 350.741-6.87467 350.741 6.87533-6.44257e-06 6.875ZM343.866-20.6247 385.116 0.000360892 343.866 20.6253Z" transform="matrix(-1 0 0 1 1843.12 1286)"/><path d="M1629.92 1736.78C1631.03 1736.78 1631.98 1736.93 1632.76 1737.23 1633.3 1737.45 1633.84 1737.8 1634.38 1738.3 1634.92 1738.8 1635.4 1739.5 1635.82 1740.39 1636.24 1741.28 1636.6 1742.28 1636.91 1743.39 1637.23 1744.5 1637.57 1746.09 1637.95 1748.17 1638.6 1751.66 1639.22 1755.33 1639.83 1759.18 1640.44 1763.03 1640.96 1766.6 1641.39 1769.89 1644.01 1766.11 1646.24 1762.41 1648.06 1758.79 1649.88 1755.17 1651.19 1752.02 1651.99 1749.35 1652.79 1746.67 1653.19 1744.5 1653.19 1742.82 1653.19 1741.55 1652.92 1740.69 1652.38 1740.23 1651.84 1739.77 1650.92 1739.5 1649.62 1739.42L1650.03 1737.43 1660.68 1737.43 1661.78 1739.46C1659.72 1745.08 1656.94 1751.09 1653.43 1757.49 1649.97 1763.76 1646.01 1770 1641.55 1776.22 1637.29 1782.13 1633.73 1786.42 1630.9 1789.06 1628.92 1790.87 1627.02 1792.17 1625.18 1792.95 1623.72 1793.55 1622.17 1793.85 1620.52 1793.85 1619.95 1793.85 1619.3 1793.8 1618.56 1793.7 1617.81 1793.61 1617.24 1793.48 1616.83 1793.32L1618.58 1785.46 1621.78 1785.46C1621.78 1787.19 1622.37 1788.05 1623.56 1788.05 1625.13 1788.05 1626.95 1787.07 1629.03 1785.11 1631.11 1783.15 1633.56 1780.2 1636.37 1776.26 1635.58 1771.53 1634.52 1765.83 1633.17 1759.16 1631.73 1752.02 1630.79 1747.6 1630.33 1745.9 1629.76 1743.85 1629.17 1742.54 1628.55 1741.97 1628.17 1741.62 1627.69 1741.44 1627.13 1741.44 1626.26 1741.44 1625.45 1741.8 1624.7 1742.5 1623.94 1743.2 1623.01 1744.42 1621.9 1746.15L1619.26 1744.4C1621.13 1741.62 1622.87 1739.65 1624.49 1738.51 1626.11 1737.36 1627.92 1736.78 1629.92 1736.78Z" fill-rule="evenodd"/><text fill="#000000" fill-opacity="0" font-family="Arial,Arial_MSFontService,sans-serif" font-size="57.0625" x="1616.83" y="1786.71">𝑦</text><path d="M1678.18 1754.45C1679.77 1754.45 1681.25 1754.62 1682.63 1754.95 1684.01 1755.29 1685.21 1755.8 1686.22 1756.49 1687.23 1757.17 1688.02 1758.03 1688.59 1759.05 1689.16 1760.07 1689.44 1761.26 1689.44 1762.61 1689.44 1763.88 1689.26 1765 1688.9 1765.98 1688.55 1766.95 1687.99 1767.83 1687.25 1768.63 1686.51 1769.42 1685.59 1770.14 1684.51 1770.79 1683.43 1771.43 1682.18 1772.05 1680.77 1772.65L1680.77 1773C1682.1 1773.24 1683.34 1773.63 1684.49 1774.15 1685.65 1774.68 1686.65 1775.34 1687.52 1776.15 1688.38 1776.95 1689.06 1777.88 1689.56 1778.93 1690.05 1779.98 1690.3 1781.15 1690.3 1782.42 1690.3 1784.01 1690 1785.48 1689.41 1786.84 1688.81 1788.2 1687.92 1789.38 1686.73 1790.37 1685.54 1791.36 1684.07 1792.14 1682.32 1792.69 1680.57 1793.25 1678.53 1793.53 1676.18 1793.53 1674.34 1793.53 1672.46 1793.34 1670.56 1792.98 1668.65 1792.61 1666.84 1792.13 1665.13 1791.53L1665.13 1785.1 1668.98 1785.1C1669.29 1786.09 1669.67 1786.94 1670.11 1787.64 1670.55 1788.35 1671.06 1788.92 1671.64 1789.37 1672.23 1789.82 1672.9 1790.14 1673.67 1790.34 1674.43 1790.54 1675.3 1790.64 1676.27 1790.64 1678.84 1790.64 1680.78 1790.03 1682.1 1788.81 1683.42 1787.58 1684.08 1785.73 1684.08 1783.25 1684.08 1780.61 1683.21 1778.61 1681.47 1777.25 1679.73 1775.89 1677.16 1775.21 1673.74 1775.21L1671.12 1775.21 1671.12 1772.35C1673.21 1772.25 1675.01 1771.96 1676.53 1771.47 1678.05 1770.98 1679.31 1770.35 1680.32 1769.58 1681.34 1768.8 1682.09 1767.9 1682.59 1766.87 1683.08 1765.84 1683.33 1764.73 1683.33 1763.56 1683.33 1761.66 1682.77 1760.15 1681.64 1759.05 1680.5 1757.95 1678.87 1757.4 1676.72 1757.4 1674.91 1757.4 1673.4 1757.89 1672.18 1758.89 1670.96 1759.88 1670.02 1761.36 1669.36 1763.32L1665.58 1763.32 1665.58 1757.46C1667.92 1756.46 1670.13 1755.71 1672.21 1755.21 1674.28 1754.7 1676.27 1754.45 1678.18 1754.45Z" fill-rule="evenodd"/><text fill="#000000" fill-opacity="0" font-family="Arial,Arial_MSFontService,sans-serif" font-size="39.0781" x="1665.13" y="1788.64">3</text><path d="M1458.5 1807.06 1835.58 1807.06 1835.58 1813.94 1458.5 1813.94ZM1831 1796.75 1858.5 1810.5 1831 1824.25Z"/><path d="M6.44257e-06-6.875 350.741-6.87467 350.741 6.87533-6.44257e-06 6.875ZM343.866-20.6247 385.116 0.000360892 343.866 20.6253Z" transform="matrix(-1 0 0 1 1843.12 1869)"/><path d="M1611.25 401.865 1616.85 401.865 1614.62 411.875 1626.94 411.875 1626.05 415.969 1613.73 415.969 1610.12 431.693C1609.42 434.746 1608.97 436.942 1608.78 438.279 1608.59 439.616 1608.5 440.69 1608.5 441.501 1608.5 444.851 1609.89 446.526 1612.67 446.526 1613.86 446.526 1615.12 446.074 1616.46 445.169 1617.8 444.264 1619.39 442.717 1621.22 440.528L1623.57 442.96C1621.22 445.797 1618.96 447.891 1616.79 449.242 1614.61 450.593 1612.33 451.268 1609.96 451.268 1604.31 451.268 1601.49 448.418 1601.49 442.717 1601.49 440.907 1601.72 439.002 1602.18 437.002L1606.96 415.969 1600.15 415.969 1600.76 413.172C1602.35 413.145 1603.56 413.024 1604.38 412.808 1605.21 412.591 1605.9 412.294 1606.45 411.916 1607.01 411.538 1607.51 410.997 1607.97 410.295 1608.43 409.592 1608.88 408.694 1609.31 407.6 1609.74 406.506 1610.39 404.594 1611.25 401.865Z" fill-rule="evenodd"/><text fill="#000000" fill-opacity="0" font-family="Arial,Arial_MSFontService,sans-serif" font-size="49.4028" x="1600.15" y="445.093">𝑡</text><path d="M1645.05 429.1 1646.87 429.1C1646.83 430.192 1646.8 431.17 1646.78 432.034 1646.76 432.898 1646.75 433.737 1646.74 434.551 1646.73 435.365 1646.72 436.169 1646.72 436.963L1646.72 459.6C1646.72 460.216 1646.74 460.747 1646.78 461.194 1646.82 461.64 1646.88 462.018 1646.97 462.325 1647.06 462.633 1647.18 462.896 1647.33 463.115 1647.48 463.333 1647.65 463.522 1647.85 463.681 1648.09 463.919 1648.41 464.103 1648.81 464.232 1649.2 464.361 1649.71 464.47 1650.32 464.559 1650.94 464.649 1651.68 464.718 1652.54 464.768 1653.41 464.817 1654.44 464.852 1655.66 464.872L1655.66 467.463 1632.04 467.463 1632.04 464.872C1633.21 464.832 1634.2 464.788 1635.01 464.738 1635.83 464.688 1636.52 464.619 1637.1 464.53 1637.68 464.44 1638.14 464.341 1638.48 464.232 1638.83 464.122 1639.14 463.988 1639.39 463.83 1639.67 463.651 1639.91 463.457 1640.11 463.249 1640.31 463.04 1640.47 462.777 1640.58 462.459 1640.7 462.142 1640.8 461.755 1640.87 461.298 1640.94 460.841 1640.97 460.275 1640.97 459.6L1640.97 438.244C1640.97 437.47 1640.82 436.924 1640.53 436.606 1640.23 436.288 1639.8 436.129 1639.24 436.129 1638.63 436.129 1637.72 436.447 1636.5 437.082 1635.29 437.718 1633.72 438.661 1631.8 439.912 1631.54 439.455 1631.3 438.999 1631.08 438.542 1630.86 438.085 1630.64 437.619 1630.4 437.142 1632.86 435.792 1635.3 434.447 1637.71 433.106 1640.12 431.766 1642.57 430.43 1645.05 429.1Z" fill-rule="evenodd"/><text fill="#000000" fill-opacity="0" font-family="Arial,Arial_MSFontService,sans-serif" font-size="38.3633" x="1630.4" y="462.668">1</text><path d="M1706.05 493.195 1843.69 645.473 1838.59 650.083 1700.95 497.805ZM1848.26 635.158 1856.5 664.78 1827.86 653.598Z"/><path d="M0 0 131.785 0.000360892" stroke="#000000" stroke-width="6.875" stroke-miterlimit="8" fill="none" fill-rule="evenodd" transform="matrix(-1 0 0 1 1703.29 495.5)"/><path d="M1611.16 945.462 1616.76 945.462 1614.53 955.472 1626.85 955.472 1625.95 959.566 1613.63 959.566 1610.03 975.29C1609.33 978.343 1608.88 980.539 1608.69 981.876 1608.5 983.213 1608.41 984.287 1608.41 985.098 1608.41 988.448 1609.8 990.123 1612.58 990.123 1613.77 990.123 1615.03 989.671 1616.37 988.766 1617.71 987.861 1619.29 986.314 1621.13 984.125L1623.48 986.557C1621.13 989.394 1618.87 991.488 1616.69 992.839 1614.52 994.19 1612.24 994.865 1609.87 994.865 1604.22 994.865 1601.4 992.015 1601.4 986.314 1601.4 984.504 1601.62 982.599 1602.08 980.599L1606.87 959.566 1600.06 959.566 1600.67 956.769C1602.26 956.742 1603.47 956.621 1604.29 956.405 1605.12 956.188 1605.81 955.891 1606.36 955.513 1606.91 955.135 1607.42 954.594 1607.88 953.892 1608.34 953.189 1608.78 952.291 1609.22 951.197 1609.65 950.103 1610.3 948.191 1611.16 945.462Z" fill-rule="evenodd"/><text fill="#000000" fill-opacity="0" font-family="Arial,Arial_MSFontService,sans-serif" font-size="49.4028" x="1600.06" y="988.69">𝑡</text><path d="M1644.54 972.489C1646.6 972.489 1648.37 972.722 1649.83 973.189 1651.29 973.655 1652.47 974.286 1653.39 975.08 1654.3 975.874 1654.96 976.827 1655.37 977.939 1655.77 979.051 1655.98 980.253 1655.98 981.543 1655.98 982.318 1655.92 983.037 1655.81 983.703 1655.7 984.368 1655.52 985.023 1655.25 985.669 1654.98 986.314 1654.63 986.964 1654.19 987.619 1653.75 988.275 1653.21 988.97 1652.55 989.704 1652.06 990.34 1651.41 991.075 1650.62 991.909 1649.82 992.742 1648.95 993.636 1648.01 994.589 1647.07 995.542 1646.08 996.535 1645.05 997.568 1644.01 998.6 1643.01 999.623 1642.04 1000.64 1641.06 1001.65 1640.17 1002.63 1639.36 1003.58 1638.54 1004.54 1637.88 1005.41 1637.36 1006.21L1648.38 1006.21C1649.32 1006.21 1650.06 1006.17 1650.62 1006.1 1651.17 1006.03 1651.63 1005.88 1652 1005.64 1652.37 1005.4 1652.68 1005.04 1652.94 1004.55 1653.2 1004.07 1653.5 1003.4 1653.83 1002.54L1656.6 1002.54C1656.5 1003.95 1656.41 1005.37 1656.32 1006.8 1656.23 1008.23 1656.14 1009.65 1656.04 1011.06L1630.81 1011.06 1630.81 1009.51C1631.29 1008.44 1631.84 1007.38 1632.48 1006.34 1633.11 1005.3 1633.83 1004.24 1634.62 1003.17 1635.42 1002.1 1636.32 1000.99 1637.33 999.846 1638.34 998.704 1639.47 997.518 1640.7 996.287 1642.56 994.42 1644.08 992.827 1645.25 991.506 1646.43 990.186 1647.35 989.009 1648.02 987.977 1648.7 986.944 1649.16 985.991 1649.41 985.117 1649.66 984.244 1649.78 983.311 1649.78 982.318 1649.78 981.305 1649.64 980.372 1649.35 979.518 1649.06 978.664 1648.65 977.939 1648.11 977.344 1647.58 976.748 1646.9 976.281 1646.07 975.944 1645.25 975.606 1644.3 975.437 1643.23 975.437 1641.38 975.437 1639.83 975.939 1638.58 976.941 1637.33 977.944 1636.36 979.399 1635.66 981.305L1631.76 981.305 1631.76 975.497C1634.3 974.444 1636.64 973.68 1638.78 973.203 1640.91 972.727 1642.83 972.489 1644.54 972.489Z" fill-rule="evenodd"/><text fill="#000000" fill-opacity="0" font-family="Arial,Arial_MSFontService,sans-serif" font-size="38.5718" x="1630.81" y="1006.24">2</text><path d="M1706.05 1037.2 1843.69 1189.47 1838.59 1194.08 1700.95 1041.8ZM1848.26 1179.16 1856.5 1208.78 1827.86 1197.6Z"/><path d="M0 0 131.785 0.000360892" stroke="#000000" stroke-width="6.875" stroke-miterlimit="8" fill="none" fill-rule="evenodd" transform="matrix(-1 0 0 1 1703.29 1039.5)"/><path d="M1611.16 1518.31 1616.76 1518.31 1614.53 1528.32 1626.85 1528.32 1625.95 1532.42 1613.63 1532.42 1610.03 1548.14C1609.33 1551.2 1608.88 1553.39 1608.69 1554.73 1608.5 1556.07 1608.41 1557.14 1608.41 1557.95 1608.41 1561.3 1609.8 1562.98 1612.58 1562.98 1613.77 1562.98 1615.03 1562.52 1616.37 1561.62 1617.71 1560.71 1619.29 1559.17 1621.13 1556.98L1623.48 1559.41C1621.13 1562.25 1618.87 1564.34 1616.69 1565.69 1614.52 1567.04 1612.24 1567.72 1609.87 1567.72 1604.22 1567.72 1601.4 1564.87 1601.4 1559.17 1601.4 1557.36 1601.62 1555.45 1602.08 1553.45L1606.87 1532.42 1600.06 1532.42 1600.67 1529.62C1602.26 1529.59 1603.47 1529.47 1604.29 1529.26 1605.12 1529.04 1605.81 1528.74 1606.36 1528.36 1606.91 1527.99 1607.42 1527.45 1607.88 1526.74 1608.34 1526.04 1608.78 1525.14 1609.22 1524.05 1609.65 1522.95 1610.3 1521.04 1611.16 1518.31Z" fill-rule="evenodd"/><text fill="#000000" fill-opacity="0" font-family="Arial,Arial_MSFontService,sans-serif" font-size="49.4028" x="1600.06" y="1561.54">𝑡</text><path d="M1644.48 1545.34C1646.07 1545.34 1647.55 1545.51 1648.93 1545.85 1650.31 1546.18 1651.51 1546.7 1652.52 1547.38 1653.53 1548.07 1654.32 1548.92 1654.89 1549.94 1655.46 1550.96 1655.74 1552.15 1655.74 1553.5 1655.74 1554.77 1655.56 1555.89 1655.2 1556.87 1654.85 1557.84 1654.29 1558.72 1653.55 1559.52 1652.81 1560.31 1651.89 1561.03 1650.81 1561.68 1649.73 1562.32 1648.48 1562.94 1647.07 1563.54L1647.07 1563.9C1648.4 1564.14 1649.64 1564.52 1650.79 1565.04 1651.95 1565.57 1652.95 1566.23 1653.82 1567.04 1654.68 1567.84 1655.36 1568.77 1655.86 1569.82 1656.35 1570.88 1656.6 1572.04 1656.6 1573.31 1656.6 1574.9 1656.3 1576.37 1655.71 1577.73 1655.11 1579.09 1654.22 1580.27 1653.03 1581.26 1651.84 1582.25 1650.37 1583.03 1648.62 1583.58 1646.87 1584.14 1644.83 1584.42 1642.48 1584.42 1640.64 1584.42 1638.76 1584.23 1636.86 1583.87 1634.95 1583.5 1633.14 1583.02 1631.43 1582.42L1631.43 1575.99 1635.28 1575.99C1635.59 1576.98 1635.97 1577.83 1636.41 1578.54 1636.85 1579.24 1637.36 1579.82 1637.94 1580.26 1638.53 1580.71 1639.2 1581.03 1639.97 1581.23 1640.73 1581.43 1641.6 1581.53 1642.57 1581.53 1645.14 1581.53 1647.08 1580.92 1648.4 1579.7 1649.72 1578.48 1650.38 1576.62 1650.38 1574.14 1650.38 1571.5 1649.51 1569.5 1647.77 1568.14 1646.03 1566.78 1643.46 1566.1 1640.04 1566.1L1637.42 1566.1 1637.42 1563.24C1639.51 1563.14 1641.31 1562.85 1642.83 1562.36 1644.35 1561.88 1645.61 1561.25 1646.62 1560.47 1647.64 1559.7 1648.39 1558.79 1648.89 1557.76 1649.38 1556.73 1649.63 1555.63 1649.63 1554.45 1649.63 1552.55 1649.07 1551.04 1647.94 1549.94 1646.8 1548.84 1645.17 1548.29 1643.02 1548.29 1641.21 1548.29 1639.7 1548.79 1638.48 1549.78 1637.26 1550.77 1636.32 1552.25 1635.66 1554.22L1631.88 1554.22 1631.88 1548.35C1634.22 1547.36 1636.43 1546.61 1638.51 1546.1 1640.58 1545.59 1642.57 1545.34 1644.48 1545.34Z" fill-rule="evenodd"/><text fill="#000000" fill-opacity="0" font-family="Arial,Arial_MSFontService,sans-serif" font-size="39.0781" x="1631.43" y="1579.53">3</text><path d="M1706.05 1610.2 1843.69 1762.47 1838.59 1767.08 1700.95 1614.8ZM1848.26 1752.16 1856.5 1781.78 1827.86 1770.6Z"/><path d="M0 0 131.785 0.000360892" stroke="#000000" stroke-width="6.875" stroke-miterlimit="8" fill="none" fill-rule="evenodd" transform="matrix(-1 0 0 1 1703.29 1612.5)"/><path d="M2394.74 1137.94 2410.96 1137.94 2410.51 1139.93C2409.48 1140.14 2408.75 1140.39 2408.3 1140.66 2407.85 1140.93 2407.46 1141.33 2407.1 1141.87 2406.75 1142.41 2406.39 1143.26 2406.01 1144.4 2405.63 1145.55 2405.16 1147.42 2404.59 1150.02L2395.92 1189.53 2405.89 1189.53C2407.7 1189.53 2409.12 1189.36 2410.16 1189 2411.21 1188.65 2412.19 1188.01 2413.12 1187.08 2414.06 1186.15 2414.97 1184.88 2415.86 1183.29 2416.75 1181.7 2417.66 1179.71 2418.57 1177.33L2422.51 1177.33 2418.41 1193.26 2384.13 1193.26 2384.57 1191.27C2385.6 1191.11 2386.37 1190.85 2386.88 1190.48 2387.4 1190.12 2387.83 1189.61 2388.18 1188.96 2388.53 1188.32 2388.85 1187.53 2389.15 1186.59 2389.45 1185.66 2389.89 1183.86 2390.49 1181.18L2397.38 1149.98C2397.97 1147.28 2398.27 1145.1 2398.27 1143.45 2398.27 1142.18 2397.95 1141.3 2397.32 1140.8 2396.68 1140.3 2395.68 1140.01 2394.3 1139.93Z" fill-rule="evenodd"/><text fill="#000000" fill-opacity="0" font-family="Arial,Arial_MSFontService,sans-serif" font-size="55.3198" x="2384.13" y="1186.35">𝐿</text><path d="M2223.5 1224.06 2600.58 1224.06 2600.58 1230.94 2223.5 1230.94ZM2596 1213.75 2623.5 1227.5 2596 1241.25Z"/><path d="M6.44257e-06-6.875 350.741-6.87467 350.741 6.87533-6.44257e-06 6.875ZM343.866-20.6247 385.116 0.000360892 343.866 20.6253Z" transform="matrix(-1 0 0 1 2608.12 1286)"/><path d="M2407.95 1311.28 2410.18 1311.28C2410.02 1313.88 2409.94 1317.47 2409.94 1322.06L2409.94 1356.67C2409.94 1358.24 2410.02 1359.42 2410.2 1360.22 2410.38 1361.02 2410.69 1361.67 2411.13 1362.17 2411.58 1362.66 2412.22 1363.06 2413.06 1363.34 2413.89 1363.62 2414.95 1363.84 2416.22 1363.99 2417.49 1364.14 2419.16 1364.24 2421.24 1364.29L2421.24 1367.25 2391.29 1367.25 2391.29 1364.29C2394.29 1364.16 2396.43 1363.98 2397.72 1363.75 2399 1363.52 2399.98 1363.17 2400.66 1362.71 2401.33 1362.25 2401.82 1361.6 2402.13 1360.77 2402.45 1359.93 2402.6 1358.56 2402.6 1356.67L2402.6 1323.81C2402.6 1322.73 2402.41 1321.93 2402.03 1321.44 2401.66 1320.94 2401.1 1320.69 2400.37 1320.69 2399.51 1320.69 2398.28 1321.13 2396.68 1322.02 2395.09 1322.91 2393.12 1324.14 2390.77 1325.71L2388.98 1322.59Z" fill-rule="evenodd"/><text fill="#000000" fill-opacity="0" font-family="Arial,Arial_MSFontService,sans-serif" font-size="55.9683" x="2388.98" y="1360.26">1</text><text font-family="Yu Gothic,Yu Gothic_MSFontService,sans-serif" font-weight="400" font-size="83" transform="matrix(1 0 0 1 604.135 2272)">図</text><text font-family="Yu Gothic,Yu Gothic_MSFontService,sans-serif" font-weight="400" font-size="83" transform="matrix(1 0 0 1 686.635 2272)">5</text><text font-family="Yu Gothic,Yu Gothic_MSFontService,sans-serif" font-weight="400" font-size="83" transform="matrix(1 0 0 1 732.469 2272)">-</text><text font-family="Yu Gothic,Yu Gothic_MSFontService,sans-serif" font-weight="400" font-size="83" transform="matrix(1 0 0 1 768.562 2272)">30 </text><text font-family="Yu Gothic,Yu Gothic_MSFontService,sans-serif" font-weight="400" font-size="83" transform="matrix(1 0 0 1 883.719 2272)">「簡易版」の</text><text font-family="Yu Gothic,Yu Gothic_MSFontService,sans-serif" font-weight="400" font-size="83" transform="matrix(1 0 0 1 1378.72 2272)">Softmax</text><text font-family="Yu Gothic,Yu Gothic_MSFontService,sans-serif" font-weight="400" font-size="83" transform="matrix(1 0 0 1 1691.53 2272)">-</text><text font-family="Yu Gothic,Yu Gothic_MSFontService,sans-serif" font-weight="400" font-size="83" transform="matrix(1 0 0 1 1727.62 2272)">with</text><text font-family="Yu Gothic,Yu Gothic_MSFontService,sans-serif" font-weight="400" font-size="83" transform="matrix(1 0 0 1 1890.91 2272)">-</text><text font-family="Yu Gothic,Yu Gothic_MSFontService,sans-serif" font-weight="400" font-size="83" transform="matrix(1 0 0 1 1927 2272)">Loss</text><text font-family="Yu Gothic,Yu Gothic_MSFontService,sans-serif" font-weight="400" font-size="83" transform="matrix(1 0 0 1 2106.32 2272)">のレイヤの計算グラフ</text></g></svg>