<svg xmlns="http://www.w3.org/2000/svg" xmlns:xlink="http://www.w3.org/1999/xlink" width="540pt" height="361pt" viewBox="14.40 14.40 525.40 346.40">
<g id="graph0" class="graph" transform="scale(1 1) rotate(0) translate(18.4 342.4)">
<polygon fill="white" stroke="none" points="-4,4 -4,-328 507,-328 507,4 -4,4"/>
<!-- apple -->
<g id="node1" class="node">
<title>apple</title>
<text text-anchor="middle" x="59.75" y="-299.82" font-family="Times New Roman,serif" font-size="14.00">りんご</text>
</g>
<!-- apple_num -->
<g id="node2" class="node">
<title>apple_num</title>
<text text-anchor="middle" x="59.75" y="-227.82" font-family="Times New Roman,serif" font-size="14.00">リンゴの個数</text>
</g>
<!-- apple&#45;&gt;apple_num -->
<!-- mul_apple -->
<g id="node6" class="node">
<title>mul_apple</title>
<ellipse fill="none" stroke="black" cx="193.75" cy="-234" rx="18" ry="18"/>
<text text-anchor="middle" x="193.75" y="-228.95" font-family="Times New Roman,serif" font-size="14.00">×</text>
</g>
<!-- apple&#45;&gt;mul_apple -->
<g id="edge5" class="edge">
<title>apple-&gt;mul_apple</title>
<path fill="none" stroke="black" d="M93.33,-289.45C112.27,-279.69 136.52,-266.94 157.75,-255 161.09,-253.12 164.57,-251.11 168,-249.09"/>
<polygon fill="black" stroke="black" points="169.79,-252.09 176.57,-243.96 166.19,-246.09 169.79,-252.09"/>
<text text-anchor="middle" x="147.62" y="-268.33" font-family="Times New Roman,serif" font-size="14.00">100</text>
</g>
<!-- orange -->
<g id="node3" class="node">
<title>orange</title>
<text text-anchor="middle" x="59.75" y="-155.82" font-family="Times New Roman,serif" font-size="14.00">みかん</text>
</g>
<!-- apple_num&#45;&gt;orange -->
<!-- apple_num&#45;&gt;mul_apple -->
<g id="edge6" class="edge">
<title>apple_num-&gt;mul_apple</title>
<path fill="none" stroke="black" d="M119.42,-234C135.02,-234 151.18,-234 164.34,-234"/>
<polygon fill="black" stroke="black" points="163.98,-237.5 173.98,-234 163.98,-230.5 163.98,-237.5"/>
<text text-anchor="middle" x="147.62" y="-237.2" font-family="Times New Roman,serif" font-size="14.00">2</text>
</g>
<!-- orange_num -->
<g id="node4" class="node">
<title>orange_num</title>
<text text-anchor="middle" x="59.75" y="-83.83" font-family="Times New Roman,serif" font-size="14.00">みかんの個数</text>
</g>
<!-- orange&#45;&gt;orange_num -->
<!-- mul_orange -->
<g id="node7" class="node">
<title>mul_orange</title>
<ellipse fill="none" stroke="black" cx="193.75" cy="-127" rx="18" ry="18"/>
<text text-anchor="middle" x="193.75" y="-121.95" font-family="Times New Roman,serif" font-size="14.00">×</text>
</g>
<!-- orange&#45;&gt;mul_orange -->
<g id="edge7" class="edge">
<title>orange-&gt;mul_orange</title>
<path fill="none" stroke="black" d="M93.38,-153.35C115.44,-147.5 144.24,-139.86 165.15,-134.32"/>
<polygon fill="black" stroke="black" points="165.93,-137.73 174.69,-131.79 164.13,-130.97 165.93,-137.73"/>
<text text-anchor="middle" x="147.62" y="-144.57" font-family="Times New Roman,serif" font-size="14.00">150</text>
</g>
<!-- tax -->
<g id="node5" class="node">
<title>tax</title>
<text text-anchor="middle" x="59.75" y="-11.82" font-family="Times New Roman,serif" font-size="14.00">消費税</text>
</g>
<!-- orange_num&#45;&gt;tax -->
<!-- orange_num&#45;&gt;mul_orange -->
<g id="edge8" class="edge">
<title>orange_num-&gt;mul_orange</title>
<path fill="none" stroke="black" d="M119.38,-104.8C132.07,-108.18 145.39,-111.85 157.75,-115.5 160.34,-116.26 163.02,-117.09 165.7,-117.93"/>
<polygon fill="black" stroke="black" points="164.4,-121.19 174.99,-120.95 166.56,-114.53 164.4,-121.19"/>
<text text-anchor="middle" x="147.62" y="-118.7" font-family="Times New Roman,serif" font-size="14.00">3</text>
</g>
<!-- mul_tax -->
<g id="node9" class="node">
<title>mul_tax</title>
<ellipse fill="none" stroke="black" cx="378.25" cy="-62" rx="18" ry="18"/>
<text text-anchor="middle" x="378.25" y="-56.95" font-family="Times New Roman,serif" font-size="14.00">×</text>
</g>
<!-- tax&#45;&gt;mul_tax -->
<g id="edge12" class="edge">
<title>tax-&gt;mul_tax</title>
<path fill="none" stroke="black" d="M93.43,-22.54C155.65,-31.19 290.17,-49.89 348.88,-58.06"/>
<polygon fill="black" stroke="black" points="348.32,-61.51 358.7,-59.42 349.28,-54.58 348.32,-61.51"/>
<text text-anchor="middle" x="239.88" y="-47.24" font-family="Times New Roman,serif" font-size="14.00">1.1</text>
</g>
<!-- add_apple_orange -->
<g id="node8" class="node">
<title>add_apple_orange</title>
<ellipse fill="none" stroke="black" cx="286" cy="-127" rx="18" ry="18"/>
<text text-anchor="middle" x="286" y="-121.95" font-family="Times New Roman,serif" font-size="14.00">+</text>
</g>
<!-- mul_apple&#45;&gt;add_apple_orange -->
<g id="edge9" class="edge">
<title>mul_apple-&gt;add_apple_orange</title>
<path fill="none" stroke="black" d="M206.18,-220.45C221.3,-202.52 248.15,-170.68 266.26,-149.21"/>
<polygon fill="black" stroke="black" points="268.91,-151.5 272.69,-141.6 263.56,-146.99 268.91,-151.5"/>
<text text-anchor="middle" x="239.88" y="-193.28" font-family="Times New Roman,serif" font-size="14.00">200</text>
</g>
<!-- mul_orange&#45;&gt;add_apple_orange -->
<g id="edge10" class="edge">
<title>mul_orange-&gt;add_apple_orange</title>
<path fill="none" stroke="black" d="M212.15,-127C224.64,-127 241.74,-127 256.24,-127"/>
<polygon fill="black" stroke="black" points="256.14,-130.5 266.14,-127 256.14,-123.5 256.14,-130.5"/>
<text text-anchor="middle" x="239.88" y="-130.2" font-family="Times New Roman,serif" font-size="14.00">450</text>
</g>
<!-- add_apple_orange&#45;&gt;mul_tax -->
<g id="edge11" class="edge">
<title>add_apple_orange-&gt;mul_tax</title>
<path fill="none" stroke="black" d="M301.1,-116.84C315.19,-106.7 337.1,-90.91 353.81,-78.88"/>
<polygon fill="black" stroke="black" points="355.65,-81.87 361.72,-73.18 351.56,-76.19 355.65,-81.87"/>
<text text-anchor="middle" x="332.12" y="-103.52" font-family="Times New Roman,serif" font-size="14.00">650</text>
</g>
<!-- price -->
<g id="node10" class="node">
<title>price</title>
<text text-anchor="middle" x="477.75" y="-55.83" font-family="Times New Roman,serif" font-size="14.00">代金</text>
</g>
<!-- mul_tax&#45;&gt;price -->
<g id="edge13" class="edge">
<title>mul_tax-&gt;price</title>
<path fill="none" stroke="black" d="M396.68,-62C409.08,-62 426.16,-62 441.36,-62"/>
<polygon fill="black" stroke="black" points="441,-65.5 451,-62 441,-58.5 441,-65.5"/>
<text text-anchor="middle" x="424.38" y="-65.2" font-family="Times New Roman,serif" font-size="14.00">715</text>
</g>
</g>
</svg>