<?xml version="1.0" encoding="UTF-8" standalone="no"?>
<!DOCTYPE svg PUBLIC "-//W3C//DTD SVG 1.1//EN"
 "http://www.w3.org/Graphics/SVG/1.1/DTD/svg11.dtd">
<!-- Generated by graphviz version 12.2.1 (20241206.2353)
 -->
<!-- Pages: 1 -->
<svg width="433pt" height="227pt"
 viewBox="7.20 7.20 425.95 219.70" xmlns="http://www.w3.org/2000/svg" xmlns:xlink="http://www.w3.org/1999/xlink">
<g id="graph0" class="graph" transform="scale(1 1) rotate(0) translate(11.2 215.7)">
<polygon fill="white" stroke="none" points="-4,4 -4,-208.5 414.75,-208.5 414.75,4 -4,4"/>
<text text-anchor="middle" x="205.38" y="-7.2" font-family="Times New Roman,serif" font-size="14.00">図5&#45;5 逆伝播による微分値の伝達</text>
<!-- apple -->
<g id="node1" class="node">
<title>apple</title>
<text text-anchor="middle" x="59.75" y="-180.32" font-family="Times New Roman,serif" font-size="14.00">りんご</text>
</g>
<!-- apple_num -->
<g id="node2" class="node">
<title>apple_num</title>
<text text-anchor="middle" x="59.75" y="-108.33" font-family="Times New Roman,serif" font-size="14.00">リンゴの個数</text>
</g>
<!-- apple&#45;&gt;apple_num -->
<!-- mul1 -->
<g id="node4" class="node">
<title>mul1</title>
<ellipse fill="none" stroke="black" cx="193.75" cy="-142.5" rx="18" ry="18"/>
<text text-anchor="middle" x="193.75" y="-137.45" font-family="Times New Roman,serif" font-size="14.00">×</text>
</g>
<!-- apple&#45;&gt;mul1 -->
<g id="edge3" class="edge">
<title>apple&#45;&gt;mul1</title>
<path fill="none" stroke="black" d="M93.28,-184.18C112.65,-181.9 137.34,-177.4 157.75,-168.5 162.2,-166.56 166.62,-163.96 170.74,-161.15"/>
<polygon fill="black" stroke="black" points="172.58,-164.15 178.48,-155.35 168.38,-158.55 172.58,-164.15"/>
<text text-anchor="middle" x="147.62" y="-178.1" font-family="Times New Roman,serif" font-size="14.00">100</text>
</g>
<!-- tax -->
<g id="node3" class="node">
<title>tax</title>
<text text-anchor="middle" x="59.75" y="-36.33" font-family="Times New Roman,serif" font-size="14.00">消費税</text>
</g>
<!-- apple_num&#45;&gt;tax -->
<!-- apple_num&#45;&gt;mul1 -->
<g id="edge5" class="edge">
<title>apple_num&#45;&gt;mul1</title>
<path fill="none" stroke="black" d="M119.4,-105.87C132.34,-105.9 145.76,-107.51 157.75,-112 163.36,-114.1 168.67,-117.56 173.37,-121.4"/>
<polygon fill="black" stroke="black" points="170.76,-123.76 180.48,-127.99 175.52,-118.62 170.76,-123.76"/>
<text text-anchor="middle" x="147.62" y="-115.2" font-family="Times New Roman,serif" font-size="14.00">2</text>
</g>
<!-- mul2 -->
<g id="node5" class="node">
<title>mul2</title>
<ellipse fill="none" stroke="black" cx="286" cy="-102.5" rx="18" ry="18"/>
<text text-anchor="middle" x="286" y="-97.45" font-family="Times New Roman,serif" font-size="14.00">×</text>
</g>
<!-- tax&#45;&gt;mul2 -->
<g id="edge8" class="edge">
<title>tax&#45;&gt;mul2</title>
<path fill="none" stroke="black" d="M93.36,-51.22C137.57,-63.05 215.75,-83.97 257.28,-95.08"/>
<polygon fill="black" stroke="black" points="256.17,-98.41 266.74,-97.61 257.98,-91.65 256.17,-98.41"/>
<text text-anchor="middle" x="193.75" y="-85.54" font-family="Times New Roman,serif" font-size="14.00">1.1</text>
</g>
<!-- mul1&#45;&gt;apple -->
<g id="edge4" class="edge">
<title>mul1&#45;&gt;apple</title>
<path fill="none" stroke="black" stroke-width="2" d="M175.52,-142.61C164.46,-143.07 149.91,-144.4 137.5,-148 124.76,-151.69 111.61,-157.46 99.87,-163.43"/>
<polygon fill="black" stroke="black" stroke-width="2" points="99.84,-159.48 92.64,-167.25 103.12,-165.67 99.84,-159.48"/>
<text text-anchor="middle" x="147.62" y="-151.2" font-family="Times New Roman,serif" font-size="14.00">2.2</text>
</g>
<!-- mul1&#45;&gt;mul2 -->
<g id="edge6" class="edge">
<title>mul1&#45;&gt;mul2</title>
<path fill="none" stroke="black" d="M204.08,-127.26C210.22,-118.75 219.08,-108.9 229.75,-104 237.9,-100.26 247.47,-99.05 256.33,-99.02"/>
<polygon fill="black" stroke="black" points="256.11,-102.52 266.27,-99.52 256.45,-95.53 256.11,-102.52"/>
<text text-anchor="middle" x="239.88" y="-107.2" font-family="Times New Roman,serif" font-size="14.00">200</text>
</g>
<!-- mul2&#45;&gt;mul1 -->
<g id="edge7" class="edge">
<title>mul2&#45;&gt;mul1</title>
<path fill="none" stroke="black" stroke-width="2" d="M269.82,-110.71C263.73,-113.9 256.59,-117.5 250,-120.5 240.78,-124.69 230.51,-128.91 221.35,-132.5"/>
<polygon fill="black" stroke="black" stroke-width="2" points="221.77,-128.59 213.7,-135.46 224.29,-135.12 221.77,-128.59"/>
<text text-anchor="middle" x="239.88" y="-132.06" font-family="Times New Roman,serif" font-size="14.00">1.1</text>
</g>
<!-- price -->
<g id="node6" class="node">
<title>price</title>
<text text-anchor="middle" x="385.5" y="-96.33" font-family="Times New Roman,serif" font-size="14.00">代金</text>
</g>
<!-- mul2&#45;&gt;price -->
<g id="edge9" class="edge">
<title>mul2&#45;&gt;price</title>
<path fill="none" stroke="black" d="M304.43,-102.5C316.83,-102.5 333.91,-102.5 349.11,-102.5"/>
<polygon fill="black" stroke="black" points="348.75,-106 358.75,-102.5 348.75,-99 348.75,-106"/>
<text text-anchor="middle" x="332.12" y="-105.7" font-family="Times New Roman,serif" font-size="14.00">220</text>
</g>
<!-- price&#45;&gt;mul2 -->
<g id="edge10" class="edge">
<title>price&#45;&gt;mul2</title>
<path fill="none" stroke="black" stroke-width="2" d="M360.34,-87.7C348.82,-82.42 334.78,-78.53 322,-82 318.15,-83.05 314.28,-84.63 310.6,-86.47"/>
<polygon fill="black" stroke="black" stroke-width="2" points="310.41,-82.54 303.49,-90.57 313.91,-88.61 310.41,-82.54"/>
<text text-anchor="middle" x="332.12" y="-85.2" font-family="Times New Roman,serif" font-size="14.00">1</text>
</g>
</g>
</svg>
