<?xml version="1.0" encoding="UTF-8" standalone="no"?>
<!DOCTYPE svg PUBLIC "-//W3C//DTD SVG 1.1//EN"
 "http://www.w3.org/Graphics/SVG/1.1/DTD/svg11.dtd">
<!-- Generated by graphviz version 12.2.1 (20241206.2353)
 -->
<!-- Pages: 1 -->
<svg width="602pt" height="89pt"
 viewBox="7.20 7.20 595.20 81.71" xmlns="http://www.w3.org/2000/svg" xmlns:xlink="http://www.w3.org/1999/xlink">
<g id="graph0" class="graph" transform="scale(1 1) rotate(0) translate(11.2 77.71)">
<polygon fill="white" stroke="none" points="-4,4 -4,-70.51 584,-70.51 584,4 -4,4"/>
<text text-anchor="middle" x="290" y="-7.2" font-family="Times New Roman,serif" font-size="14.00">図5&#45;6 計算グラフの逆伝播:順方向とは逆向きに、局所的な微分を乗算する.</text>
<!-- x -->
<g id="node1" class="node">
<title>x</title>
<text text-anchor="middle" x="183.5" y="-43.46" font-family="Times New Roman,serif" font-size="14.00"> </text>
</g>
<!-- func -->
<g id="node3" class="node">
<title>func</title>
<ellipse fill="none" stroke="black" cx="307.25" cy="-48.51" rx="18" ry="18"/>
<text text-anchor="middle" x="307.25" y="-43.46" font-family="Times New Roman,serif" font-size="14.00">f</text>
</g>
<!-- x&#45;&gt;func -->
<g id="edge1" class="edge">
<title>x&#45;&gt;func</title>
<path fill="none" stroke="black" d="M210.32,-48.51C230.07,-48.51 257.28,-48.51 277.68,-48.51"/>
<polygon fill="black" stroke="black" points="277.57,-52.01 287.57,-48.51 277.57,-45.01 277.57,-52.01"/>
<text text-anchor="middle" x="249.88" y="-51.71" font-family="Times New Roman,serif" font-size="14.00">x</text>
</g>
<!-- y -->
<g id="node2" class="node">
<title>y</title>
<text text-anchor="middle" x="396.5" y="-43.46" font-family="Times New Roman,serif" font-size="14.00"> </text>
</g>
<!-- y&#45;&gt;func -->
<g id="edge4" class="edge">
<title>y&#45;&gt;func</title>
<path fill="none" stroke="black" stroke-width="2" d="M369.56,-31.28C361.28,-27.7 352,-25.64 343.25,-28.01 339.4,-29.06 335.53,-30.65 331.85,-32.49"/>
<polygon fill="black" stroke="black" stroke-width="2" points="331.66,-28.56 324.74,-36.58 335.16,-34.62 331.66,-28.56"/>
<text text-anchor="middle" x="347.38" y="-31.21" font-family="Times New Roman,serif" font-size="14.00">E</text>
</g>
<!-- func&#45;&gt;x -->
<g id="edge2" class="edge">
<title>func&#45;&gt;x</title>
<path fill="none" stroke="black" stroke-width="2" d="M292.38,-38.1C286.24,-34.11 278.73,-30.04 271.25,-28.01 252.91,-23.04 247.05,-23.91 228.5,-28.01 226.03,-28.56 223.53,-29.26 221.04,-30.08"/>
<polygon fill="black" stroke="black" stroke-width="2" points="221.25,-26.24 213.19,-33.12 223.78,-32.77 221.25,-26.24"/>
<text text-anchor="middle" x="249.88" y="-31.21" font-family="Times New Roman,serif" font-size="14.00">E ∂y/∂x</text>
</g>
<!-- func&#45;&gt;y -->
<g id="edge3" class="edge">
<title>func&#45;&gt;y</title>
<path fill="none" stroke="black" d="M325.49,-48.51C334.85,-48.51 346.81,-48.51 358.18,-48.51"/>
<polygon fill="black" stroke="black" points="358.18,-52.01 368.18,-48.51 358.18,-45.01 358.18,-52.01"/>
<text text-anchor="middle" x="347.38" y="-51.71" font-family="Times New Roman,serif" font-size="14.00">y</text>
</g>
</g>
</svg>
