<?xml version="1.0" encoding="UTF-8" standalone="no"?>
<!DOCTYPE svg PUBLIC "-//W3C//DTD SVG 1.1//EN"
 "http://www.w3.org/Graphics/SVG/1.1/DTD/svg11.dtd">
<!-- Generated by graphviz version 12.2.1 (20241206.2353)
 -->
<!-- Pages: 1 -->
<svg width="289pt" height="64pt"
 viewBox="7.20 7.20 282.20 57.21" xmlns="http://www.w3.org/2000/svg" xmlns:xlink="http://www.w3.org/1999/xlink">
<g id="graph0" class="graph" transform="scale(1 1) rotate(0) translate(11.2 53.21)">
<polygon fill="white" stroke="none" points="-4,4 -4,-46.01 271,-46.01 271,4 -4,4"/>
<!-- x -->
<g id="node1" class="node">
<title>x</title>
<text text-anchor="middle" x="27" y="-18.96" font-family="Times New Roman,serif" font-size="14.00"> </text>
</g>
<!-- func -->
<g id="node3" class="node">
<title>func</title>
<ellipse fill="none" stroke="black" cx="150.75" cy="-24.01" rx="18" ry="18"/>
<text text-anchor="middle" x="150.75" y="-18.96" font-family="Times New Roman,serif" font-size="14.00">f</text>
</g>
<!-- x&#45;&gt;func -->
<g id="edge1" class="edge">
<title>x&#45;&gt;func</title>
<path fill="none" stroke="black" d="M53.82,-24.01C73.57,-24.01 100.78,-24.01 121.18,-24.01"/>
<polygon fill="black" stroke="black" points="121.07,-27.51 131.07,-24.01 121.07,-20.51 121.07,-27.51"/>
<text text-anchor="middle" x="93.38" y="-27.21" font-family="Times New Roman,serif" font-size="14.00">x</text>
</g>
<!-- y -->
<g id="node2" class="node">
<title>y</title>
<text text-anchor="middle" x="240" y="-18.96" font-family="Times New Roman,serif" font-size="14.00"> </text>
</g>
<!-- y&#45;&gt;func -->
<g id="edge4" class="edge">
<title>y&#45;&gt;func</title>
<path fill="none" stroke="black" stroke-width="2" d="M213.06,-6.78C204.78,-3.2 195.5,-1.14 186.75,-3.51 182.9,-4.56 179.03,-6.15 175.35,-7.99"/>
<polygon fill="black" stroke="black" stroke-width="2" points="175.16,-4.06 168.24,-12.08 178.66,-10.12 175.16,-4.06"/>
<text text-anchor="middle" x="190.88" y="-6.71" font-family="Times New Roman,serif" font-size="14.00">E</text>
</g>
<!-- func&#45;&gt;x -->
<g id="edge2" class="edge">
<title>func&#45;&gt;x</title>
<path fill="none" stroke="black" stroke-width="2" d="M135.88,-13.6C129.74,-9.61 122.23,-5.54 114.75,-3.51 96.41,1.46 90.55,0.59 72,-3.51 69.53,-4.06 67.03,-4.76 64.54,-5.58"/>
<polygon fill="black" stroke="black" stroke-width="2" points="64.75,-1.74 56.69,-8.62 67.28,-8.27 64.75,-1.74"/>
<text text-anchor="middle" x="93.38" y="-6.71" font-family="Times New Roman,serif" font-size="14.00">E ∂y/∂x</text>
</g>
<!-- func&#45;&gt;y -->
<g id="edge3" class="edge">
<title>func&#45;&gt;y</title>
<path fill="none" stroke="black" d="M168.99,-24.01C178.35,-24.01 190.31,-24.01 201.68,-24.01"/>
<polygon fill="black" stroke="black" points="201.68,-27.51 211.68,-24.01 201.68,-20.51 201.68,-27.51"/>
<text text-anchor="middle" x="190.88" y="-27.21" font-family="Times New Roman,serif" font-size="14.00">y</text>
</g>
</g>
</svg>
