<?xml version="1.0" encoding="UTF-8" standalone="no"?>
<!DOCTYPE svg PUBLIC "-//W3C//DTD SVG 1.1//EN"
 "http://www.w3.org/Graphics/SVG/1.1/DTD/svg11.dtd">
<!-- Generated by graphviz version 12.2.1 (20241206.2353)
 -->
<!-- Pages: 1 -->
<svg width="564pt" height="218pt"
 viewBox="7.20 7.20 556.67 210.70" xmlns="http://www.w3.org/2000/svg" xmlns:xlink="http://www.w3.org/1999/xlink">
<g id="graph0" class="graph" transform="scale(1 1) rotate(0) translate(11.2 206.7)">
<polygon fill="white" stroke="none" points="-4,4 -4,-199.5 545.47,-199.5 545.47,4 -4,4"/>
<text text-anchor="middle" x="270.74" y="-7.2" font-family="Times New Roman,serif" font-size="14.00">図5&#45;7 式(5.4)の計算グラフ.</text>
<!-- x -->
<g id="node1" class="node">
<title>x</title>
<text text-anchor="middle" x="27" y="-172.45" font-family="Times New Roman,serif" font-size="14.00"> </text>
</g>
<!-- add -->
<g id="node4" class="node">
<title>add</title>
<ellipse fill="none" stroke="black" cx="202.25" cy="-122.5" rx="18" ry="18"/>
<text text-anchor="middle" x="202.25" y="-117.45" font-family="Times New Roman,serif" font-size="14.00">+</text>
</g>
<!-- x&#45;&gt;add -->
<g id="edge1" class="edge">
<title>x&#45;&gt;add</title>
<path fill="none" stroke="black" d="M53.83,-175.18C77.21,-172.5 112.32,-167.04 141.25,-156.5 153.87,-151.9 166.94,-144.81 177.66,-138.29"/>
<polygon fill="black" stroke="black" points="179.25,-141.42 185.83,-133.12 175.51,-135.5 179.25,-141.42"/>
<text text-anchor="middle" x="119.12" y="-171.35" font-family="Times New Roman,serif" font-size="14.00">x</text>
</g>
<!-- y -->
<g id="node2" class="node">
<title>y</title>
<text text-anchor="middle" x="27" y="-37.45" font-family="Times New Roman,serif" font-size="14.00"> </text>
</g>
<!-- y&#45;&gt;add -->
<g id="edge3" class="edge">
<title>y&#45;&gt;add</title>
<path fill="none" stroke="black" d="M53.88,-46.24C77.6,-50.4 113.2,-58.53 141.25,-73 155.69,-80.45 169.81,-91.83 180.72,-101.8"/>
<polygon fill="black" stroke="black" points="178.31,-104.34 187.97,-108.69 183.13,-99.26 178.31,-104.34"/>
<text text-anchor="middle" x="119.12" y="-76.2" font-family="Times New Roman,serif" font-size="14.00">y</text>
</g>
<!-- z -->
<g id="node3" class="node">
<title>z</title>
<text text-anchor="middle" x="514.47" y="-117.45" font-family="Times New Roman,serif" font-size="14.00"> </text>
</g>
<!-- squ -->
<g id="node5" class="node">
<title>squ</title>
<ellipse fill="none" stroke="black" cx="363.99" cy="-122.5" rx="24.74" ry="24.74"/>
<text text-anchor="middle" x="363.99" y="-117.45" font-family="Times New Roman,serif" font-size="14.00">**2</text>
</g>
<!-- z&#45;&gt;squ -->
<g id="edge7" class="edge">
<title>z&#45;&gt;squ</title>
<path fill="none" stroke="black" stroke-width="2" d="M498.44,-104.6C482.71,-88.18 456.85,-67.54 431.72,-75.5 417.01,-80.16 402.74,-89.36 391.2,-98.39"/>
<polygon fill="black" stroke="black" stroke-width="2" points="390.39,-94.52 384.91,-103.59 394.85,-99.92 390.39,-94.52"/>
<text text-anchor="middle" x="438.1" y="-95.2" font-family="Times New Roman,serif" font-size="14.00">∂z</text>
<text text-anchor="middle" x="438.1" y="-78.7" font-family="Times New Roman,serif" font-size="14.00">∂z</text>
</g>
<!-- add&#45;&gt;x -->
<g id="edge2" class="edge">
<title>add&#45;&gt;x</title>
<path fill="none" stroke="black" stroke-width="2" d="M185.41,-115.78C164.41,-107.91 126.53,-97.39 97,-109.5 76.64,-117.85 59.07,-135.43 46.75,-150.62"/>
<polygon fill="black" stroke="black" stroke-width="2" points="44.96,-147.21 41.63,-157.27 50.5,-151.48 44.96,-147.21"/>
<text text-anchor="middle" x="119.12" y="-129.2" font-family="Times New Roman,serif" font-size="14.00">∂z ∂z ∂t</text>
<text text-anchor="middle" x="119.12" y="-112.7" font-family="Times New Roman,serif" font-size="14.00">∂z ∂t ∂x</text>
</g>
<!-- add&#45;&gt;squ -->
<g id="edge4" class="edge">
<title>add&#45;&gt;squ</title>
<path fill="none" stroke="black" d="M220.65,-122.5C246.14,-122.5 294.21,-122.5 327.39,-122.5"/>
<polygon fill="black" stroke="black" points="327.35,-126 337.35,-122.5 327.35,-119 327.35,-126"/>
<text text-anchor="middle" x="279.75" y="-125.7" font-family="Times New Roman,serif" font-size="14.00">t</text>
</g>
<!-- squ&#45;&gt;z -->
<g id="edge6" class="edge">
<title>squ&#45;&gt;z</title>
<path fill="none" stroke="black" d="M389.17,-122.5C412.73,-122.5 448.86,-122.5 476.11,-122.5"/>
<polygon fill="black" stroke="black" points="476.04,-126 486.04,-122.5 476.04,-119 476.04,-126"/>
<text text-anchor="middle" x="438.1" y="-125.7" font-family="Times New Roman,serif" font-size="14.00">z</text>
</g>
<!-- squ&#45;&gt;add -->
<g id="edge5" class="edge">
<title>squ&#45;&gt;add</title>
<path fill="none" stroke="black" stroke-width="2" d="M345.4,-105.51C332.83,-94.6 314.89,-81.41 296.25,-75.5 282.27,-71.07 277.11,-70.72 263.25,-75.5 248.2,-80.69 234.04,-91.39 223.27,-101.26"/>
<polygon fill="black" stroke="black" stroke-width="2" points="221.97,-97.64 217.23,-107.12 226.85,-102.66 221.97,-97.64"/>
<text text-anchor="middle" x="279.75" y="-95.2" font-family="Times New Roman,serif" font-size="14.00">∂z ∂z </text>
<text text-anchor="middle" x="279.75" y="-78.7" font-family="Times New Roman,serif" font-size="14.00">∂z ∂t</text>
</g>
</g>
</svg>
