<?xml version="1.0" encoding="UTF-8" standalone="no"?>
<!DOCTYPE svg PUBLIC "-//W3C//DTD SVG 1.1//EN"
 "http://www.w3.org/Graphics/SVG/1.1/DTD/svg11.dtd">
<!-- Generated by graphviz version 12.2.1 (20241206.2353)
 -->
<!-- Pages: 1 -->
<svg width="577pt" height="210pt"
 viewBox="7.20 7.20 569.42 202.70" xmlns="http://www.w3.org/2000/svg" xmlns:xlink="http://www.w3.org/1999/xlink">
<g id="graph0" class="graph" transform="scale(1 1) rotate(0) translate(11.2 198.7)">
<polygon fill="white" stroke="none" points="-4,4 -4,-191.5 558.22,-191.5 558.22,4 -4,4"/>
<text text-anchor="middle" x="277.11" y="-7.2" font-family="Times New Roman,serif" font-size="14.00">図5&#45;8 式(5.4)の計算グラフに、微分値を当てはめたもの.</text>
<!-- x -->
<g id="node1" class="node">
<title>x</title>
<text text-anchor="middle" x="27" y="-164.45" font-family="Times New Roman,serif" font-size="14.00"> </text>
</g>
<!-- add -->
<g id="node4" class="node">
<title>add</title>
<ellipse fill="none" stroke="black" cx="219.5" cy="-122.5" rx="18" ry="18"/>
<text text-anchor="middle" x="219.5" y="-117.45" font-family="Times New Roman,serif" font-size="14.00">+</text>
</g>
<!-- x&#45;&gt;add -->
<g id="edge1" class="edge">
<title>x&#45;&gt;add</title>
<path fill="none" stroke="black" d="M53.64,-164.38C80.05,-158.97 122.34,-149.93 158.5,-140.5 169.28,-137.69 181.04,-134.25 191.27,-131.13"/>
<polygon fill="black" stroke="black" points="192.07,-134.54 200.59,-128.24 190,-127.85 192.07,-134.54"/>
<text text-anchor="middle" x="127.75" y="-158.14" font-family="Times New Roman,serif" font-size="14.00">x</text>
</g>
<!-- y -->
<g id="node2" class="node">
<title>y</title>
<text text-anchor="middle" x="27" y="-37.45" font-family="Times New Roman,serif" font-size="14.00"> </text>
</g>
<!-- y&#45;&gt;add -->
<g id="edge3" class="edge">
<title>y&#45;&gt;add</title>
<path fill="none" stroke="black" d="M53.98,-46.94C81.04,-52.21 124.18,-62.42 158.5,-79 172.12,-85.58 185.88,-95.29 196.79,-103.87"/>
<polygon fill="black" stroke="black" points="194.42,-106.45 204.38,-110.05 198.84,-101.02 194.42,-106.45"/>
<text text-anchor="middle" x="127.75" y="-82.2" font-family="Times New Roman,serif" font-size="14.00">y</text>
</g>
<!-- z -->
<g id="node3" class="node">
<title>z</title>
<text text-anchor="middle" x="527.22" y="-117.45" font-family="Times New Roman,serif" font-size="14.00"> </text>
</g>
<!-- squ -->
<g id="node5" class="node">
<title>squ</title>
<ellipse fill="none" stroke="black" cx="382.74" cy="-122.5" rx="24.74" ry="24.74"/>
<text text-anchor="middle" x="382.74" y="-117.45" font-family="Times New Roman,serif" font-size="14.00">**2</text>
</g>
<!-- z&#45;&gt;squ -->
<g id="edge7" class="edge">
<title>z&#45;&gt;squ</title>
<path fill="none" stroke="black" stroke-width="2" d="M501.99,-104.56C487.44,-95.89 468.34,-88.11 450.47,-92 438.21,-94.67 425.5,-99.8 414.51,-105.1"/>
<polygon fill="black" stroke="black" stroke-width="2" points="414.59,-101.14 407.26,-108.79 417.76,-107.38 414.59,-101.14"/>
<text text-anchor="middle" x="453.85" y="-95.2" font-family="Times New Roman,serif" font-size="14.00">1</text>
</g>
<!-- add&#45;&gt;x -->
<g id="edge2" class="edge">
<title>add&#45;&gt;x</title>
<path fill="none" stroke="black" stroke-width="2" d="M201.85,-117.77C177.92,-111.81 132.77,-103.76 97,-116 80.5,-121.65 64.89,-133.03 52.71,-143.85"/>
<polygon fill="black" stroke="black" stroke-width="2" points="51.61,-140.08 46.69,-149.47 56.38,-145.2 51.61,-140.08"/>
<text text-anchor="middle" x="127.75" y="-119.2" font-family="Times New Roman,serif" font-size="14.00">2(x+y)・1</text>
</g>
<!-- add&#45;&gt;squ -->
<g id="edge4" class="edge">
<title>add&#45;&gt;squ</title>
<path fill="none" stroke="black" d="M237.76,-122.5C263.55,-122.5 312.74,-122.5 346.37,-122.5"/>
<polygon fill="black" stroke="black" points="346.05,-126 356.05,-122.5 346.05,-119 346.05,-126"/>
<text text-anchor="middle" x="297.75" y="-125.7" font-family="Times New Roman,serif" font-size="14.00">t</text>
</g>
<!-- squ&#45;&gt;z -->
<g id="edge6" class="edge">
<title>squ&#45;&gt;z</title>
<path fill="none" stroke="black" d="M407.91,-122.5C430.22,-122.5 463.67,-122.5 489.32,-122.5"/>
<polygon fill="black" stroke="black" points="488.97,-126 498.97,-122.5 488.97,-119 488.97,-126"/>
<text text-anchor="middle" x="453.85" y="-125.7" font-family="Times New Roman,serif" font-size="14.00">z</text>
</g>
<!-- squ&#45;&gt;add -->
<g id="edge5" class="edge">
<title>squ&#45;&gt;add</title>
<path fill="none" stroke="black" stroke-width="2" d="M360.91,-110.17C348.14,-103.33 331.18,-95.52 315,-92 300.02,-88.74 295.41,-88.43 280.5,-92 268.06,-94.98 255.28,-100.99 244.73,-106.9"/>
<polygon fill="black" stroke="black" stroke-width="2" points="244.45,-103 237.63,-111.1 248.02,-109.02 244.45,-103"/>
<text text-anchor="middle" x="297.75" y="-95.2" font-family="Times New Roman,serif" font-size="14.00">1・2t</text>
</g>
</g>
</svg>
