<?xml version="1.0" encoding="UTF-8" standalone="no"?>
<!DOCTYPE svg PUBLIC "-//W3C//DTD SVG 1.1//EN"
 "http://www.w3.org/Graphics/SVG/1.1/DTD/svg11.dtd">
<!-- Generated by graphviz version 12.2.1 (20241206.2353)
 -->
<!-- Pages: 1 -->
<svg width="577pt" height="185pt"
 viewBox="7.20 7.20 569.42 178.20" xmlns="http://www.w3.org/2000/svg" xmlns:xlink="http://www.w3.org/1999/xlink">
<g id="graph0" class="graph" transform="scale(1 1) rotate(0) translate(11.2 174.2)">
<polygon fill="white" stroke="none" points="-4,4 -4,-167 558.22,-167 558.22,4 -4,4"/>
<!-- x -->
<g id="node1" class="node">
<title>x</title>
<text text-anchor="middle" x="27" y="-139.95" font-family="Times New Roman,serif" font-size="14.00"> </text>
</g>
<!-- add -->
<g id="node4" class="node">
<title>add</title>
<ellipse fill="none" stroke="black" cx="219.5" cy="-98" rx="18" ry="18"/>
<text text-anchor="middle" x="219.5" y="-92.95" font-family="Times New Roman,serif" font-size="14.00">+</text>
</g>
<!-- x&#45;&gt;add -->
<g id="edge1" class="edge">
<title>x&#45;&gt;add</title>
<path fill="none" stroke="black" d="M53.64,-139.88C80.05,-134.47 122.34,-125.43 158.5,-116 169.28,-113.19 181.04,-109.75 191.27,-106.63"/>
<polygon fill="black" stroke="black" points="192.07,-110.04 200.59,-103.74 190,-103.35 192.07,-110.04"/>
<text text-anchor="middle" x="127.75" y="-133.64" font-family="Times New Roman,serif" font-size="14.00">x</text>
</g>
<!-- y -->
<g id="node2" class="node">
<title>y</title>
<text text-anchor="middle" x="27" y="-12.95" font-family="Times New Roman,serif" font-size="14.00"> </text>
</g>
<!-- y&#45;&gt;add -->
<g id="edge3" class="edge">
<title>y&#45;&gt;add</title>
<path fill="none" stroke="black" d="M53.98,-22.44C81.04,-27.71 124.18,-37.92 158.5,-54.5 172.12,-61.08 185.88,-70.79 196.79,-79.37"/>
<polygon fill="black" stroke="black" points="194.42,-81.95 204.38,-85.55 198.84,-76.52 194.42,-81.95"/>
<text text-anchor="middle" x="127.75" y="-57.7" font-family="Times New Roman,serif" font-size="14.00">y</text>
</g>
<!-- z -->
<g id="node3" class="node">
<title>z</title>
<text text-anchor="middle" x="527.22" y="-92.95" font-family="Times New Roman,serif" font-size="14.00"> </text>
</g>
<!-- squ -->
<g id="node5" class="node">
<title>squ</title>
<ellipse fill="none" stroke="black" cx="382.74" cy="-98" rx="24.74" ry="24.74"/>
<text text-anchor="middle" x="382.74" y="-92.95" font-family="Times New Roman,serif" font-size="14.00">**2</text>
</g>
<!-- z&#45;&gt;squ -->
<g id="edge7" class="edge">
<title>z&#45;&gt;squ</title>
<path fill="none" stroke="black" stroke-width="2" d="M501.99,-80.06C487.44,-71.39 468.34,-63.61 450.47,-67.5 438.21,-70.17 425.5,-75.3 414.51,-80.6"/>
<polygon fill="black" stroke="black" stroke-width="2" points="414.59,-76.64 407.26,-84.29 417.76,-82.88 414.59,-76.64"/>
<text text-anchor="middle" x="453.85" y="-70.7" font-family="Times New Roman,serif" font-size="14.00">1</text>
</g>
<!-- add&#45;&gt;x -->
<g id="edge2" class="edge">
<title>add&#45;&gt;x</title>
<path fill="none" stroke="black" stroke-width="2" d="M201.85,-93.27C177.92,-87.31 132.77,-79.26 97,-91.5 80.5,-97.15 64.89,-108.53 52.71,-119.35"/>
<polygon fill="black" stroke="black" stroke-width="2" points="51.61,-115.58 46.69,-124.97 56.38,-120.7 51.61,-115.58"/>
<text text-anchor="middle" x="127.75" y="-94.7" font-family="Times New Roman,serif" font-size="14.00">2(x+y)・1</text>
</g>
<!-- add&#45;&gt;squ -->
<g id="edge4" class="edge">
<title>add&#45;&gt;squ</title>
<path fill="none" stroke="black" d="M237.76,-98C263.55,-98 312.74,-98 346.37,-98"/>
<polygon fill="black" stroke="black" points="346.05,-101.5 356.05,-98 346.05,-94.5 346.05,-101.5"/>
<text text-anchor="middle" x="297.75" y="-101.2" font-family="Times New Roman,serif" font-size="14.00">t</text>
</g>
<!-- squ&#45;&gt;z -->
<g id="edge6" class="edge">
<title>squ&#45;&gt;z</title>
<path fill="none" stroke="black" d="M407.91,-98C430.22,-98 463.67,-98 489.32,-98"/>
<polygon fill="black" stroke="black" points="488.97,-101.5 498.97,-98 488.97,-94.5 488.97,-101.5"/>
<text text-anchor="middle" x="453.85" y="-101.2" font-family="Times New Roman,serif" font-size="14.00">z</text>
</g>
<!-- squ&#45;&gt;add -->
<g id="edge5" class="edge">
<title>squ&#45;&gt;add</title>
<path fill="none" stroke="black" stroke-width="2" d="M360.91,-85.67C348.14,-78.83 331.18,-71.02 315,-67.5 300.02,-64.24 295.41,-63.93 280.5,-67.5 268.06,-70.48 255.28,-76.49 244.73,-82.4"/>
<polygon fill="black" stroke="black" stroke-width="2" points="244.45,-78.5 237.63,-86.6 248.02,-84.52 244.45,-78.5"/>
<text text-anchor="middle" x="297.75" y="-70.7" font-family="Times New Roman,serif" font-size="14.00">1・2t</text>
</g>
</g>
</svg>
