<?xml version="1.0" encoding="UTF-8" standalone="no"?>
<!DOCTYPE svg PUBLIC "-//W3C//DTD SVG 1.1//EN"
 "http://www.w3.org/Graphics/SVG/1.1/DTD/svg11.dtd">
<!-- Generated by graphviz version 12.2.1 (20241206.2353)
 -->
<!-- Pages: 1 -->
<svg width="351pt" height="177pt"
 viewBox="7.20 7.20 343.95 169.70" xmlns="http://www.w3.org/2000/svg" xmlns:xlink="http://www.w3.org/1999/xlink">
<g id="graph0" class="graph" transform="scale(1 1) rotate(0) translate(11.2 165.7)">
<polygon fill="white" stroke="none" points="-4,4 -4,-158.5 332.75,-158.5 332.75,4 -4,4"/>
<text text-anchor="middle" x="164.38" y="-7.2" font-family="Times New Roman,serif" font-size="14.00">図5&#45;9a 加算ノードの順伝播</text>
<!-- x -->
<g id="node1" class="node">
<title>x</title>
<text text-anchor="middle" x="27" y="-131.45" font-family="Times New Roman,serif" font-size="14.00"> </text>
</g>
<!-- add -->
<g id="node4" class="node">
<title>add</title>
<ellipse fill="none" stroke="black" cx="164.75" cy="-89.5" rx="18" ry="18"/>
<text text-anchor="middle" x="164.75" y="-84.45" font-family="Times New Roman,serif" font-size="14.00">+</text>
</g>
<!-- x&#45;&gt;add -->
<g id="edge1" class="edge">
<title>x&#45;&gt;add</title>
<path fill="none" stroke="black" d="M53.85,-127.55C77.52,-119.35 112.43,-107.27 136.52,-98.93"/>
<polygon fill="black" stroke="black" points="137.64,-102.24 145.95,-95.66 135.35,-95.63 137.64,-102.24"/>
<text text-anchor="middle" x="100.38" y="-114.79" font-family="Times New Roman,serif" font-size="14.00">x</text>
</g>
<!-- y -->
<g id="node2" class="node">
<title>y</title>
<text text-anchor="middle" x="27" y="-37.45" font-family="Times New Roman,serif" font-size="14.00"> </text>
</g>
<!-- y&#45;&gt;add -->
<g id="edge2" class="edge">
<title>y&#45;&gt;add</title>
<path fill="none" stroke="black" d="M53.85,-51.45C77.52,-59.65 112.43,-71.73 136.52,-80.07"/>
<polygon fill="black" stroke="black" points="135.35,-83.37 145.95,-83.34 137.64,-76.76 135.35,-83.37"/>
<text text-anchor="middle" x="100.38" y="-70.61" font-family="Times New Roman,serif" font-size="14.00">y</text>
</g>
<!-- z -->
<g id="node3" class="node">
<title>z</title>
<text text-anchor="middle" x="301.75" y="-84.45" font-family="Times New Roman,serif" font-size="14.00"> </text>
</g>
<!-- add&#45;&gt;z -->
<g id="edge3" class="edge">
<title>add&#45;&gt;z</title>
<path fill="none" stroke="black" d="M183.12,-89.5C203.38,-89.5 237.43,-89.5 263.7,-89.5"/>
<polygon fill="black" stroke="black" points="263.63,-93 273.63,-89.5 263.63,-86 263.63,-93"/>
<text text-anchor="middle" x="228.75" y="-92.7" font-family="Times New Roman,serif" font-size="14.00">z</text>
</g>
</g>
</svg>
