<?xml version="1.0" encoding="UTF-8" standalone="no"?>
<!DOCTYPE svg PUBLIC "-//W3C//DTD SVG 1.1//EN"
 "http://www.w3.org/Graphics/SVG/1.1/DTD/svg11.dtd">
<!-- Generated by graphviz version 12.2.1 (20241206.2353)
 -->
<!-- Pages: 1 -->
<svg width="425pt" height="177pt"
 viewBox="7.20 7.20 418.20 169.70" xmlns="http://www.w3.org/2000/svg" xmlns:xlink="http://www.w3.org/1999/xlink">
<g id="graph0" class="graph" transform="scale(1 1) rotate(0) translate(11.2 165.7)">
<polygon fill="white" stroke="none" points="-4,4 -4,-158.5 407,-158.5 407,4 -4,4"/>
<text text-anchor="middle" x="201.5" y="-7.2" font-family="Times New Roman,serif" font-size="14.00">図5&#45;9b 加算ノードの逆伝播</text>
<!-- x -->
<g id="node1" class="node">
<title>x</title>
<text text-anchor="middle" x="27" y="-131.45" font-family="Times New Roman,serif" font-size="14.00"> </text>
</g>
<!-- y -->
<g id="node2" class="node">
<title>y</title>
<text text-anchor="middle" x="27" y="-37.45" font-family="Times New Roman,serif" font-size="14.00"> </text>
</g>
<!-- z -->
<g id="node3" class="node">
<title>z</title>
<text text-anchor="middle" x="376" y="-84.45" font-family="Times New Roman,serif" font-size="14.00"> </text>
</g>
<!-- add -->
<g id="node4" class="node">
<title>add</title>
<ellipse fill="none" stroke="black" cx="213.5" cy="-89.5" rx="18" ry="18"/>
<text text-anchor="middle" x="213.5" y="-84.45" font-family="Times New Roman,serif" font-size="14.00">+</text>
</g>
<!-- z&#45;&gt;add -->
<g id="edge3" class="edge">
<title>z&#45;&gt;add</title>
<path fill="none" stroke="black" d="M349.21,-89.5C320.24,-89.5 273.34,-89.5 243.22,-89.5"/>
<polygon fill="black" stroke="black" points="243.33,-86 233.33,-89.5 243.33,-93 243.33,-86"/>
<text text-anchor="middle" x="290.25" y="-92.7" font-family="Times New Roman,serif" font-size="14.00">∂L/∂z</text>
</g>
<!-- add&#45;&gt;x -->
<g id="edge1" class="edge">
<title>add&#45;&gt;x</title>
<path fill="none" stroke="black" d="M195.8,-93.75C166.41,-101.24 104.8,-116.94 64.97,-127.08"/>
<polygon fill="black" stroke="black" points="64.16,-123.68 55.33,-129.54 65.88,-130.46 64.16,-123.68"/>
<text text-anchor="middle" x="124.75" y="-121.79" font-family="Times New Roman,serif" font-size="14.00">∂L/∂z・1</text>
</g>
<!-- add&#45;&gt;y -->
<g id="edge2" class="edge">
<title>add&#45;&gt;y</title>
<path fill="none" stroke="black" d="M195.8,-85.25C166.41,-77.76 104.8,-62.06 64.97,-51.92"/>
<polygon fill="black" stroke="black" points="65.88,-48.54 55.33,-49.46 64.16,-55.32 65.88,-48.54"/>
<text text-anchor="middle" x="124.75" y="-76.16" font-family="Times New Roman,serif" font-size="14.00">∂L/∂z・1</text>
</g>
</g>
</svg>
