<svg width="1995" height="1637" xmlns="http://www.w3.org/2000/svg" xmlns:xlink="http://www.w3.org/1999/xlink" xml:space="preserve" overflow="hidden"><g transform="translate(-640 -445)"><rect x="1093.5" y="701.5" width="320" height="1366" stroke="#000000" stroke-width="6.875" stroke-miterlimit="8" fill="#FFFFFF"/><text font-family="Yu Gothic,Yu Gothic_MSFontService,sans-serif" font-weight="400" font-size="64" transform="matrix(1 0 0 1 1130.9 1404)">Softmax</text><rect x="1854.5" y="701.5" width="320" height="1366" stroke="#000000" stroke-width="6.875" stroke-miterlimit="8" fill="#FFFFFF"/><text font-family="Yu Gothic,Yu Gothic_MSFontService,sans-serif" font-weight="400" font-size="64" transform="matrix(1 0 0 1 1929.36 1327)">Cross</text><text font-family="Yu Gothic,Yu Gothic_MSFontService,sans-serif" font-weight="400" font-size="64" transform="matrix(1 0 0 1 1899.86 1404)">Entropy</text><text font-family="Yu Gothic,Yu Gothic_MSFontService,sans-serif" font-weight="400" font-size="64" transform="matrix(1 0 0 1 1940.54 1481)">Error</text><path d="M867.252 700.299C864.47 700.299 861.97 701.421 859.755 703.663 857.539 705.906 855.81 708.911 854.567 712.68 853.325 716.45 852.703 720.212 852.703 723.967 852.703 726.777 853.088 728.878 853.858 730.269 854.628 731.661 855.918 732.357 857.729 732.357 859.512 732.357 861.261 731.586 862.977 730.046 864.692 728.506 866.462 726.311 868.286 723.461 870.11 720.61 871.4 717.321 872.156 713.592L872.521 711.85C872.764 710.742 872.926 709.783 873.007 708.972 873.088 708.162 873.129 707.284 873.129 706.338 873.129 704.258 872.683 702.731 871.792 701.758 870.9 700.786 869.387 700.299 867.252 700.299ZM866.442 697.098C868.198 697.098 869.839 697.294 871.366 697.685 872.893 698.077 874.466 698.773 876.087 699.773L879.816 697.098 882.41 697.746 876.452 723.44C875.858 726.007 875.561 728.007 875.561 729.439 875.561 730.519 875.736 731.303 876.087 731.789 876.439 732.275 876.992 732.519 877.749 732.519 878.56 732.519 879.424 732.188 880.343 731.526 881.261 730.864 882.558 729.601 884.233 727.736L886.543 730.006C884.112 732.6 882.038 734.444 880.323 735.538 878.607 736.632 876.749 737.179 874.75 737.179 873.075 737.179 871.737 736.625 870.738 735.518 869.738 734.41 869.238 732.937 869.238 731.1 869.238 729.614 869.549 728.034 870.17 726.358L869.644 726.196C867.05 729.979 864.591 732.748 862.268 734.504 859.944 736.261 857.485 737.139 854.892 737.139 851.92 737.139 849.616 736.017 847.982 733.775 846.347 731.532 845.53 728.385 845.53 724.332 845.53 719.685 846.442 715.22 848.265 710.938 850.089 706.655 852.595 703.278 855.783 700.806 858.971 698.334 862.524 697.098 866.442 697.098Z" fill-rule="evenodd"/><text fill="#000000" fill-opacity="0" font-family="Arial,Arial_MSFontService,sans-serif" font-size="40.0815" x="845.53" y="732.169">𝑎</text><path d="M905.311 715.011 907.128 715.011C907.088 716.103 907.058 717.081 907.038 717.945 907.018 718.809 907.003 719.648 906.993 720.462 906.984 721.276 906.979 722.08 906.979 722.875L906.979 745.511C906.979 746.127 906.998 746.658 907.038 747.105 907.078 747.552 907.142 747.929 907.232 748.237 907.321 748.544 907.44 748.807 907.589 749.026 907.738 749.244 907.912 749.433 908.11 749.592 908.349 749.83 908.666 750.014 909.064 750.143 909.461 750.272 909.967 750.381 910.583 750.471 911.198 750.56 911.938 750.629 912.802 750.679 913.665 750.729 914.703 750.763 915.914 750.783L915.914 753.375 892.294 753.375 892.294 750.783C893.466 750.744 894.459 750.699 895.273 750.649 896.087 750.6 896.782 750.53 897.358 750.441 897.934 750.351 898.396 750.252 898.743 750.143 899.09 750.034 899.393 749.9 899.651 749.741 899.929 749.562 900.168 749.368 900.366 749.16 900.565 748.951 900.724 748.688 900.843 748.371 900.962 748.053 901.056 747.666 901.126 747.209 901.195 746.752 901.23 746.186 901.23 745.511L901.23 724.155C901.23 723.381 901.081 722.835 900.783 722.517 900.485 722.199 900.058 722.041 899.503 722.041 898.887 722.041 897.974 722.358 896.762 722.994 895.551 723.629 893.982 724.572 892.056 725.823 891.798 725.367 891.56 724.91 891.341 724.453 891.123 723.996 890.895 723.53 890.656 723.053 893.119 721.703 895.556 720.358 897.969 719.017 900.381 717.677 902.828 716.342 905.311 715.011Z" fill-rule="evenodd"/><text fill="#000000" fill-opacity="0" font-family="Arial,Arial_MSFontService,sans-serif" font-size="38.3633" x="890.656" y="748.579">1</text><path d="M683.5 768.062 1060.58 768.063 1060.58 774.938 683.5 774.937ZM1056 757.75 1083.5 771.5 1056 785.25Z"/><path d="M6.44257e-06-6.875 350.741-6.87467 350.741 6.87533-6.44257e-06 6.875ZM343.866-20.6247 385.116 0.000360892 343.866 20.6253Z" transform="matrix(-1 0 0 1 1068.12 829)"/><path d="M772.388 871.129C773.496 871.129 774.441 871.278 775.225 871.575 775.765 871.791 776.306 872.149 776.846 872.649 777.386 873.149 777.866 873.844 778.285 874.736 778.703 875.628 779.068 876.627 779.379 877.735 779.69 878.843 780.034 880.437 780.412 882.517 781.061 886.003 781.689 889.67 782.297 893.521 782.905 897.371 783.425 900.944 783.857 904.24 786.478 900.457 788.7 896.756 790.524 893.135 792.348 889.515 793.658 886.367 794.455 883.693 795.252 881.018 795.651 878.843 795.651 877.168 795.651 875.898 795.38 875.033 794.84 874.574 794.3 874.115 793.381 873.844 792.084 873.763L792.489 871.778 803.148 871.778 804.242 873.804C802.189 879.424 799.406 885.435 795.894 891.839 792.435 898.107 788.477 904.348 784.019 910.562 779.75 916.479 776.197 920.762 773.361 923.409 771.388 925.22 769.483 926.517 767.646 927.3 766.187 927.894 764.634 928.192 762.986 928.192 762.418 928.192 761.763 928.144 761.02 928.05 760.277 927.955 759.703 927.827 759.298 927.665L761.04 919.802 764.242 919.802C764.242 921.532 764.836 922.396 766.025 922.396 767.592 922.396 769.416 921.417 771.496 919.458 773.577 917.499 776.022 914.547 778.832 910.603 778.048 905.875 776.981 900.174 775.63 893.5 774.198 886.367 773.252 881.95 772.793 880.248 772.226 878.194 771.631 876.884 771.01 876.317 770.632 875.965 770.159 875.79 769.591 875.79 768.727 875.79 767.916 876.141 767.16 876.844 766.403 877.546 765.471 878.762 764.363 880.491L761.729 878.748C763.593 875.965 765.336 874 766.957 872.852 768.578 871.703 770.389 871.129 772.388 871.129Z" fill-rule="evenodd"/><text fill="#000000" fill-opacity="0" font-family="Arial,Arial_MSFontService,sans-serif" font-size="57.0625" x="759.298" y="921.059">𝑦</text><path d="M821.125 889.002 822.942 889.002C822.902 890.094 822.872 891.072 822.853 891.936 822.833 892.8 822.818 893.639 822.808 894.453 822.798 895.267 822.793 896.071 822.793 896.865L822.793 919.502C822.793 920.118 822.813 920.649 822.853 921.096 822.892 921.542 822.957 921.92 823.046 922.228 823.136 922.535 823.255 922.798 823.404 923.017 823.553 923.235 823.726 923.424 823.925 923.583 824.163 923.821 824.481 924.005 824.878 924.134 825.275 924.263 825.781 924.372 826.397 924.461 827.013 924.551 827.752 924.62 828.616 924.67 829.48 924.72 830.517 924.754 831.729 924.774L831.729 927.365 808.109 927.365 808.109 924.774C809.281 924.734 810.273 924.69 811.087 924.64 811.902 924.591 812.597 924.521 813.172 924.432 813.748 924.342 814.21 924.243 814.557 924.134 814.905 924.025 815.208 923.891 815.466 923.732 815.744 923.553 815.982 923.359 816.181 923.151 816.379 922.942 816.538 922.679 816.657 922.362 816.776 922.044 816.871 921.657 816.94 921.2 817.01 920.743 817.044 920.177 817.044 919.502L817.044 898.146C817.044 897.372 816.896 896.826 816.598 896.508 816.3 896.19 815.873 896.031 815.317 896.031 814.701 896.031 813.788 896.349 812.577 896.985 811.365 897.62 809.797 898.563 807.871 899.814 807.613 899.357 807.374 898.901 807.156 898.444 806.937 897.987 806.709 897.521 806.471 897.044 808.933 895.694 811.37 894.349 813.783 893.008 816.196 891.668 818.643 890.333 821.125 889.002Z" fill-rule="evenodd"/><text fill="#000000" fill-opacity="0" font-family="Arial,Arial_MSFontService,sans-serif" font-size="38.3633" x="806.471" y="922.57">1</text><path d="M863.755 884.098 913.684 884.098 913.684 889.488 863.755 889.488Z" fill-rule="evenodd"/><text fill="#000000" fill-opacity="0" font-family="Arial,Arial_MSFontService,sans-serif" font-size="5.39014" x="863.755" y="888.814">−</text><path d="M953.77 861.767 959.363 861.767 957.134 871.778 969.455 871.778 968.563 875.871 956.243 875.871 952.636 891.595C951.933 894.648 951.487 896.844 951.298 898.181 951.109 899.519 951.015 900.593 951.015 901.403 951.015 904.753 952.406 906.428 955.189 906.428 956.378 906.428 957.641 905.976 958.978 905.071 960.316 904.166 961.903 902.619 963.74 900.43L966.091 902.862C963.74 905.699 961.477 907.793 959.302 909.144 957.127 910.495 954.851 911.17 952.474 911.17 946.827 911.17 944.003 908.32 944.003 902.619 944.003 900.809 944.233 898.904 944.692 896.905L949.475 875.871 942.666 875.871 943.274 873.074C944.868 873.047 946.077 872.926 946.901 872.71 947.725 872.494 948.414 872.196 948.968 871.818 949.522 871.44 950.028 870.899 950.488 870.197 950.947 869.495 951.393 868.596 951.825 867.502 952.257 866.408 952.906 864.496 953.77 861.767Z" fill-rule="evenodd"/><text fill="#000000" fill-opacity="0" font-family="Arial,Arial_MSFontService,sans-serif" font-size="49.4028" x="942.666" y="904.995">𝑡</text><path d="M987.569 889.002 989.386 889.002C989.346 890.094 989.316 891.072 989.296 891.936 989.277 892.8 989.262 893.639 989.252 894.453 989.242 895.267 989.237 896.071 989.237 896.865L989.237 919.502C989.237 920.118 989.257 920.649 989.296 921.096 989.336 921.542 989.401 921.92 989.49 922.228 989.579 922.535 989.698 922.798 989.847 923.017 989.996 923.235 990.17 923.424 990.369 923.583 990.607 923.821 990.925 924.005 991.322 924.134 991.719 924.263 992.225 924.372 992.841 924.461 993.456 924.551 994.196 924.62 995.06 924.67 995.924 924.72 996.961 924.754 998.172 924.774L998.172 927.365 974.553 927.365 974.553 924.774C975.724 924.734 976.717 924.69 977.531 924.64 978.345 924.591 979.04 924.521 979.616 924.432 980.192 924.342 980.654 924.243 981.001 924.134 981.349 924.025 981.652 923.891 981.91 923.732 982.188 923.553 982.426 923.359 982.625 923.151 982.823 922.942 982.982 922.679 983.101 922.362 983.22 922.044 983.315 921.657 983.384 921.2 983.454 920.743 983.488 920.177 983.488 919.502L983.488 898.146C983.488 897.372 983.339 896.826 983.042 896.508 982.744 896.19 982.317 896.031 981.761 896.031 981.145 896.031 980.232 896.349 979.021 896.985 977.809 897.62 976.241 898.563 974.314 899.814 974.056 899.357 973.818 898.901 973.6 898.444 973.381 897.987 973.153 897.521 972.915 897.044 975.377 895.694 977.814 894.349 980.227 893.008 982.639 891.668 985.087 890.333 987.569 889.002Z" fill-rule="evenodd"/><text fill="#000000" fill-opacity="0" font-family="Arial,Arial_MSFontService,sans-serif" font-size="38.3633" x="972.915" y="922.57">1</text><path d="M867.161 1243.98C864.378 1243.98 861.879 1245.11 859.663 1247.35 857.448 1249.59 855.719 1252.6 854.476 1256.37 853.233 1260.13 852.611 1263.9 852.611 1267.65 852.611 1270.46 852.996 1272.56 853.766 1273.95 854.536 1275.35 855.827 1276.04 857.637 1276.04 859.42 1276.04 861.169 1275.27 862.885 1273.73 864.601 1272.19 866.37 1270 868.194 1267.15 870.018 1264.3 871.308 1261.01 872.065 1257.28L872.429 1255.53C872.672 1254.43 872.835 1253.47 872.916 1252.66 872.997 1251.85 873.037 1250.97 873.037 1250.02 873.037 1247.94 872.591 1246.42 871.7 1245.44 870.808 1244.47 869.295 1243.98 867.161 1243.98ZM866.35 1240.78C868.106 1240.78 869.748 1240.98 871.274 1241.37 872.801 1241.76 874.375 1242.46 875.996 1243.46L879.724 1240.78 882.318 1241.43 876.36 1267.13C875.766 1269.69 875.469 1271.69 875.469 1273.12 875.469 1274.2 875.644 1274.99 875.996 1275.47 876.347 1275.96 876.901 1276.2 877.657 1276.2 878.468 1276.2 879.332 1275.87 880.251 1275.21 881.17 1274.55 882.467 1273.29 884.142 1271.42L886.452 1273.69C884.02 1276.28 881.946 1278.13 880.231 1279.22 878.515 1280.32 876.658 1280.86 874.658 1280.86 872.983 1280.86 871.646 1280.31 870.646 1279.2 869.646 1278.09 869.147 1276.62 869.147 1274.79 869.147 1273.3 869.457 1271.72 870.079 1270.04L869.552 1269.88C866.958 1273.66 864.499 1276.43 862.176 1278.19 859.852 1279.95 857.394 1280.82 854.8 1280.82 851.828 1280.82 849.525 1279.7 847.89 1277.46 846.255 1275.22 845.438 1272.07 845.438 1268.02 845.438 1263.37 846.35 1258.91 848.174 1254.62 849.997 1250.34 852.503 1246.96 855.692 1244.49 858.88 1242.02 862.433 1240.78 866.35 1240.78Z" fill-rule="evenodd"/><text fill="#000000" fill-opacity="0" font-family="Arial,Arial_MSFontService,sans-serif" font-size="40.0815" x="845.438" y="1275.85">𝑎</text><path d="M904.798 1258.49C906.863 1258.49 908.625 1258.72 910.085 1259.19 911.544 1259.65 912.731 1260.28 913.644 1261.08 914.557 1261.87 915.218 1262.83 915.625 1263.94 916.032 1265.05 916.235 1266.25 916.235 1267.54 916.235 1268.32 916.181 1269.04 916.071 1269.7 915.962 1270.37 915.774 1271.02 915.506 1271.67 915.237 1272.31 914.885 1272.96 914.448 1273.62 914.011 1274.27 913.465 1274.97 912.81 1275.7 912.314 1276.34 911.668 1277.07 910.874 1277.91 910.08 1278.74 909.211 1279.64 908.268 1280.59 907.325 1281.54 906.337 1282.53 905.304 1283.57 904.272 1284.6 903.269 1285.62 902.296 1286.63 901.323 1287.65 900.429 1288.63 899.615 1289.58 898.801 1290.54 898.136 1291.41 897.62 1292.2L908.64 1292.2C909.573 1292.2 910.318 1292.17 910.874 1292.1 911.43 1292.03 911.892 1291.88 912.259 1291.64 912.626 1291.4 912.939 1291.04 913.197 1290.55 913.455 1290.07 913.753 1289.39 914.091 1288.54L916.861 1288.54C916.761 1289.95 916.667 1291.37 916.578 1292.8 916.488 1294.23 916.394 1295.65 916.295 1297.06L891.067 1297.06 891.067 1295.51C891.543 1294.44 892.099 1293.38 892.735 1292.34 893.37 1291.3 894.085 1290.24 894.879 1289.17 895.674 1288.09 896.577 1286.99 897.59 1285.85 898.602 1284.7 899.724 1283.52 900.956 1282.29 902.822 1280.42 904.341 1278.83 905.513 1277.51 906.684 1276.19 907.608 1275.01 908.283 1273.98 908.958 1272.94 909.419 1271.99 909.668 1271.12 909.916 1270.24 910.04 1269.31 910.04 1268.32 910.04 1267.3 909.896 1266.37 909.608 1265.52 909.32 1264.66 908.908 1263.94 908.372 1263.34 907.836 1262.75 907.156 1262.28 906.332 1261.94 905.508 1261.61 904.56 1261.44 903.487 1261.44 901.641 1261.44 900.092 1261.94 898.841 1262.94 897.59 1263.94 896.617 1265.4 895.922 1267.3L892.02 1267.3 892.02 1261.5C894.562 1260.44 896.9 1259.68 899.034 1259.2 901.169 1258.73 903.09 1258.49 904.798 1258.49Z" fill-rule="evenodd"/><text fill="#000000" fill-opacity="0" font-family="Arial,Arial_MSFontService,sans-serif" font-size="38.5718" x="891.067" y="1292.24">2</text><path d="M683.5 1311.06 1060.58 1311.06 1060.58 1317.94 683.5 1317.94ZM1056 1300.75 1083.5 1314.5 1056 1328.25Z"/><path d="M6.44257e-06-6.875 350.741-6.87467 350.741 6.87533-6.44257e-06 6.875ZM343.866-20.6247 385.116 0.000360892 343.866 20.6253Z" transform="matrix(-1 0 0 1 1068.12 1373)"/><path d="M772.502 1414.81C773.61 1414.81 774.556 1414.96 775.339 1415.26 775.88 1415.48 776.42 1415.83 776.96 1416.33 777.501 1416.83 777.98 1417.53 778.399 1418.42 778.818 1419.31 779.183 1420.31 779.493 1421.42 779.804 1422.53 780.149 1424.12 780.527 1426.2 781.175 1429.69 781.803 1433.36 782.411 1437.21 783.019 1441.06 783.539 1444.63 783.972 1447.93 786.592 1444.14 788.815 1440.44 790.638 1436.82 792.462 1433.2 793.773 1430.05 794.57 1427.38 795.367 1424.7 795.765 1422.53 795.765 1420.85 795.765 1419.58 795.495 1418.72 794.955 1418.26 794.414 1417.8 793.496 1417.53 792.199 1417.45L792.604 1415.46 803.263 1415.46 804.357 1417.49C802.304 1423.11 799.521 1429.12 796.008 1435.52 792.55 1441.79 788.592 1448.03 784.134 1454.25 779.865 1460.16 776.312 1464.45 773.475 1467.09 771.503 1468.9 769.598 1470.2 767.761 1470.99 766.302 1471.58 764.748 1471.88 763.1 1471.88 762.533 1471.88 761.878 1471.83 761.135 1471.73 760.392 1471.64 759.817 1471.51 759.412 1471.35L761.155 1463.49 764.356 1463.49C764.356 1465.22 764.951 1466.08 766.14 1466.08 767.707 1466.08 769.53 1465.1 771.611 1463.14 773.691 1461.18 776.136 1458.23 778.946 1454.29 778.163 1449.56 777.096 1443.86 775.745 1437.19 774.313 1430.05 773.367 1425.64 772.908 1423.93 772.34 1421.88 771.746 1420.57 771.125 1420 770.746 1419.65 770.273 1419.47 769.706 1419.47 768.841 1419.47 768.031 1419.83 767.274 1420.53 766.518 1421.23 765.586 1422.45 764.478 1424.18L761.844 1422.43C763.708 1419.65 765.451 1417.68 767.072 1416.54 768.693 1415.39 770.503 1414.81 772.502 1414.81Z" fill-rule="evenodd"/><text fill="#000000" fill-opacity="0" font-family="Arial,Arial_MSFontService,sans-serif" font-size="57.0625" x="759.412" y="1464.74">𝑦</text><path d="M820.818 1432.48C822.884 1432.48 824.646 1432.71 826.105 1433.18 827.565 1433.65 828.751 1434.28 829.665 1435.07 830.578 1435.86 831.238 1436.82 831.645 1437.93 832.052 1439.04 832.256 1440.24 832.256 1441.53 832.256 1442.31 832.201 1443.03 832.092 1443.69 831.983 1444.36 831.794 1445.01 831.526 1445.66 831.258 1446.3 830.906 1446.95 830.469 1447.61 830.032 1448.26 829.486 1448.96 828.831 1449.69 828.334 1450.33 827.689 1451.06 826.895 1451.9 826.1 1452.73 825.232 1453.63 824.288 1454.58 823.345 1455.53 822.357 1456.53 821.325 1457.56 820.292 1458.59 819.289 1459.61 818.317 1460.63 817.344 1461.64 816.45 1462.62 815.636 1463.57 814.822 1464.53 814.157 1465.4 813.64 1466.2L824.661 1466.2C825.594 1466.2 826.339 1466.16 826.895 1466.09 827.451 1466.02 827.912 1465.87 828.28 1465.63 828.647 1465.39 828.96 1465.03 829.218 1464.54 829.476 1464.06 829.774 1463.39 830.111 1462.53L832.881 1462.53C832.782 1463.94 832.688 1465.36 832.599 1466.79 832.509 1468.22 832.415 1469.64 832.316 1471.05L807.088 1471.05 807.088 1469.5C807.564 1468.43 808.12 1467.37 808.755 1466.33 809.391 1465.29 810.106 1464.23 810.9 1463.16 811.694 1462.09 812.598 1460.98 813.61 1459.84 814.623 1458.69 815.745 1457.51 816.976 1456.28 818.843 1454.41 820.362 1452.82 821.533 1451.5 822.705 1450.18 823.628 1449 824.303 1447.97 824.978 1446.93 825.44 1445.98 825.688 1445.11 825.937 1444.23 826.061 1443.3 826.061 1442.31 826.061 1441.3 825.917 1440.36 825.629 1439.51 825.341 1438.65 824.929 1437.93 824.393 1437.33 823.857 1436.74 823.176 1436.27 822.352 1435.93 821.528 1435.6 820.58 1435.43 819.508 1435.43 817.661 1435.43 816.112 1435.93 814.861 1436.93 813.61 1437.93 812.638 1439.39 811.943 1441.3L808.041 1441.3 808.041 1435.49C810.582 1434.43 812.92 1433.67 815.055 1433.19 817.19 1432.72 819.111 1432.48 820.818 1432.48Z" fill-rule="evenodd"/><text fill="#000000" fill-opacity="0" font-family="Arial,Arial_MSFontService,sans-serif" font-size="38.5718" x="807.088" y="1466.23">2</text><path d="M865.771 1427.78 915.701 1427.78 915.701 1433.17 865.771 1433.17Z" fill-rule="evenodd"/><text fill="#000000" fill-opacity="0" font-family="Arial,Arial_MSFontService,sans-serif" font-size="5.39014" x="865.771" y="1432.5">−</text><path d="M955.787 1405.45 961.38 1405.45 959.151 1415.46 971.471 1415.46 970.58 1419.56 958.259 1419.56 954.652 1435.28C953.95 1438.33 953.504 1440.53 953.315 1441.87 953.126 1443.2 953.031 1444.28 953.031 1445.09 953.031 1448.44 954.423 1450.11 957.206 1450.11 958.394 1450.11 959.657 1449.66 960.995 1448.76 962.332 1447.85 963.92 1446.3 965.757 1444.12L968.107 1446.55C965.757 1449.38 963.494 1451.48 961.319 1452.83 959.144 1454.18 956.868 1454.86 954.49 1454.86 948.843 1454.86 946.02 1452 946.02 1446.3 946.02 1444.49 946.25 1442.59 946.709 1440.59L951.491 1419.56 944.683 1419.56 945.291 1416.76C946.885 1416.73 948.094 1416.61 948.918 1416.39 949.742 1416.18 950.431 1415.88 950.985 1415.5 951.539 1415.12 952.045 1414.58 952.504 1413.88 952.964 1413.18 953.409 1412.28 953.842 1411.19 954.274 1410.09 954.923 1408.18 955.787 1405.45Z" fill-rule="evenodd"/><text fill="#000000" fill-opacity="0" font-family="Arial,Arial_MSFontService,sans-serif" font-size="49.4028" x="944.683" y="1448.68">𝑡</text><path d="M989.164 1432.48C991.229 1432.48 992.992 1432.71 994.451 1433.18 995.911 1433.65 997.097 1434.28 998.01 1435.07 998.924 1435.86 999.584 1436.82 999.991 1437.93 1000.4 1439.04 1000.6 1440.24 1000.6 1441.53 1000.6 1442.31 1000.55 1443.03 1000.44 1443.69 1000.33 1444.36 1000.14 1445.01 999.872 1445.66 999.604 1446.3 999.252 1446.95 998.815 1447.61 998.378 1448.26 997.832 1448.96 997.177 1449.69 996.68 1450.33 996.035 1451.06 995.24 1451.9 994.446 1452.73 993.577 1453.63 992.634 1454.58 991.691 1455.53 990.703 1456.53 989.671 1457.56 988.638 1458.59 987.635 1459.61 986.662 1460.63 985.689 1461.64 984.796 1462.62 983.982 1463.57 983.168 1464.53 982.502 1465.4 981.986 1466.2L993.007 1466.2C993.94 1466.2 994.685 1466.16 995.24 1466.09 995.796 1466.02 996.258 1465.87 996.625 1465.63 996.993 1465.39 997.306 1465.03 997.564 1464.54 997.822 1464.06 998.12 1463.39 998.457 1462.53L1001.23 1462.53C1001.13 1463.94 1001.03 1465.36 1000.94 1466.79 1000.85 1468.22 1000.76 1469.64 1000.66 1471.05L975.433 1471.05 975.433 1469.5C975.91 1468.43 976.466 1467.37 977.101 1466.33 977.737 1465.29 978.452 1464.23 979.246 1463.16 980.04 1462.09 980.944 1460.98 981.956 1459.84 982.969 1458.69 984.091 1457.51 985.322 1456.28 987.189 1454.41 988.708 1452.82 989.879 1451.5 991.051 1450.18 991.974 1449 992.649 1447.97 993.324 1446.93 993.786 1445.98 994.034 1445.11 994.282 1444.23 994.406 1443.3 994.406 1442.31 994.406 1441.3 994.263 1440.36 993.975 1439.51 993.687 1438.65 993.275 1437.93 992.739 1437.33 992.202 1436.74 991.522 1436.27 990.698 1435.93 989.874 1435.6 988.926 1435.43 987.854 1435.43 986.007 1435.43 984.458 1435.93 983.207 1436.93 981.956 1437.93 980.983 1439.39 980.288 1441.3L976.386 1441.3 976.386 1435.49C978.928 1434.43 981.266 1433.67 983.401 1433.19 985.535 1432.72 987.457 1432.48 989.164 1432.48Z" fill-rule="evenodd"/><text fill="#000000" fill-opacity="0" font-family="Arial,Arial_MSFontService,sans-serif" font-size="38.5718" x="975.433" y="1466.23">2</text><path d="M867.161 1826.9C864.378 1826.9 861.879 1828.02 859.663 1830.26 857.448 1832.51 855.719 1835.51 854.476 1839.28 853.233 1843.05 852.611 1846.81 852.611 1850.57 852.611 1853.38 852.996 1855.48 853.766 1856.87 854.536 1858.26 855.827 1858.96 857.637 1858.96 859.42 1858.96 861.169 1858.19 862.885 1856.65 864.601 1855.11 866.37 1852.91 868.194 1850.06 870.018 1847.21 871.308 1843.92 872.065 1840.19L872.429 1838.45C872.672 1837.34 872.835 1836.38 872.916 1835.57 872.997 1834.76 873.037 1833.88 873.037 1832.94 873.037 1830.86 872.591 1829.33 871.7 1828.36 870.808 1827.39 869.295 1826.9 867.161 1826.9ZM866.35 1823.7C868.106 1823.7 869.748 1823.89 871.274 1824.29 872.801 1824.68 874.375 1825.37 875.996 1826.37L879.724 1823.7 882.318 1824.35 876.36 1850.04C875.766 1852.61 875.469 1854.61 875.469 1856.04 875.469 1857.12 875.644 1857.9 875.996 1858.39 876.347 1858.88 876.901 1859.12 877.657 1859.12 878.468 1859.12 879.332 1858.79 880.251 1858.13 881.17 1857.46 882.467 1856.2 884.142 1854.34L886.452 1856.61C884.02 1859.2 881.946 1861.04 880.231 1862.14 878.515 1863.23 876.658 1863.78 874.658 1863.78 872.983 1863.78 871.646 1863.23 870.646 1862.12 869.646 1861.01 869.147 1859.54 869.147 1857.7 869.147 1856.22 869.457 1854.63 870.079 1852.96L869.552 1852.8C866.958 1856.58 864.499 1859.35 862.176 1861.11 859.852 1862.86 857.394 1863.74 854.8 1863.74 851.828 1863.74 849.525 1862.62 847.89 1860.38 846.255 1858.13 845.438 1854.99 845.438 1850.93 845.438 1846.29 846.35 1841.82 848.174 1837.54 849.997 1833.26 852.503 1829.88 855.692 1827.41 858.88 1824.94 862.433 1823.7 866.35 1823.7Z" fill-rule="evenodd"/><text fill="#000000" fill-opacity="0" font-family="Arial,Arial_MSFontService,sans-serif" font-size="40.0815" x="845.438" y="1858.77">𝑎</text><path d="M904.738 1841.4C906.327 1841.4 907.811 1841.57 909.191 1841.91 910.571 1842.25 911.768 1842.76 912.78 1843.44 913.793 1844.13 914.582 1844.98 915.148 1846.01 915.714 1847.03 915.997 1848.21 915.997 1849.57 915.997 1850.84 915.818 1851.96 915.461 1852.93 915.103 1853.9 914.552 1854.79 913.808 1855.58 913.063 1856.38 912.15 1857.1 911.068 1857.74 909.985 1858.39 908.739 1859.01 907.33 1859.6L907.33 1859.96C908.66 1860.2 909.901 1860.58 911.053 1861.11 912.204 1861.63 913.212 1862.3 914.076 1863.1 914.94 1863.91 915.62 1864.84 916.116 1865.89 916.613 1866.94 916.861 1868.1 916.861 1869.37 916.861 1870.96 916.563 1872.44 915.967 1873.8 915.372 1875.16 914.478 1876.33 913.287 1877.32 912.095 1878.32 910.626 1879.09 908.878 1879.65 907.131 1880.2 905.086 1880.48 902.743 1880.48 900.896 1880.48 899.019 1880.3 897.113 1879.93 895.207 1879.56 893.4 1879.08 891.692 1878.49L891.692 1872.05 895.535 1872.05C895.852 1873.05 896.23 1873.89 896.666 1874.6 897.103 1875.3 897.615 1875.88 898.2 1876.33 898.786 1876.77 899.461 1877.1 900.226 1877.3 900.99 1877.49 901.859 1877.59 902.832 1877.59 905.393 1877.59 907.334 1876.98 908.655 1875.76 909.975 1874.54 910.636 1872.69 910.636 1870.21 910.636 1867.57 909.767 1865.56 908.029 1864.2 906.292 1862.84 903.716 1862.16 900.3 1862.16L897.679 1862.16 897.679 1859.3C899.764 1859.21 901.566 1858.91 903.085 1858.43 904.604 1857.94 905.87 1857.31 906.883 1856.53 907.895 1855.76 908.65 1854.86 909.146 1853.82 909.643 1852.79 909.891 1851.69 909.891 1850.52 909.891 1848.61 909.325 1847.11 908.193 1846.01 907.061 1844.9 905.423 1844.35 903.279 1844.35 901.472 1844.35 899.958 1844.85 898.737 1845.84 897.515 1846.83 896.577 1848.31 895.922 1850.28L892.139 1850.28 892.139 1844.41C894.482 1843.42 896.691 1842.67 898.766 1842.16 900.841 1841.66 902.832 1841.4 904.738 1841.4Z" fill-rule="evenodd"/><text fill="#000000" fill-opacity="0" font-family="Arial,Arial_MSFontService,sans-serif" font-size="39.0781" x="891.692" y="1875.6">3</text><path d="M683.5 1894.06 1060.58 1894.06 1060.58 1900.94 683.5 1900.94ZM1056 1883.75 1083.5 1897.5 1056 1911.25Z"/><path d="M6.44257e-06-6.875 350.741-6.87467 350.741 6.87533-6.44257e-06 6.875ZM343.866-20.6247 385.116 0.000360892 343.866 20.6253Z" transform="matrix(-1 0 0 1 1068.12 1956)"/><path d="M772.502 1997.73C773.61 1997.73 774.556 1997.88 775.339 1998.18 775.88 1998.39 776.42 1998.75 776.96 1999.25 777.501 1999.75 777.98 2000.45 778.399 2001.34 778.818 2002.23 779.183 2003.23 779.493 2004.34 779.804 2005.44 780.149 2007.04 780.527 2009.12 781.175 2012.6 781.803 2016.27 782.411 2020.12 783.019 2023.97 783.539 2027.55 783.972 2030.84 786.592 2027.06 788.815 2023.36 790.638 2019.74 792.462 2016.12 793.773 2012.97 794.57 2010.29 795.367 2007.62 795.765 2005.44 795.765 2003.77 795.765 2002.5 795.495 2001.63 794.955 2001.18 794.414 2000.72 793.496 2000.45 792.199 2000.36L792.604 1998.38 803.263 1998.38 804.357 2000.41C802.304 2006.03 799.521 2012.04 796.008 2018.44 792.55 2024.71 788.592 2030.95 784.134 2037.16 779.865 2043.08 776.312 2047.36 773.475 2050.01 771.503 2051.82 769.598 2053.12 767.761 2053.9 766.302 2054.5 764.748 2054.79 763.1 2054.79 762.533 2054.79 761.878 2054.75 761.135 2054.65 760.392 2054.56 759.817 2054.43 759.412 2054.27L761.155 2046.4 764.356 2046.4C764.356 2048.13 764.951 2049 766.14 2049 767.707 2049 769.53 2048.02 771.611 2046.06 773.691 2044.1 776.136 2041.15 778.946 2037.2 778.163 2032.48 777.096 2026.78 775.745 2020.1 774.313 2012.97 773.367 2008.55 772.908 2006.85 772.34 2004.8 771.746 2003.49 771.125 2002.92 770.746 2002.57 770.273 2002.39 769.706 2002.39 768.841 2002.39 768.031 2002.74 767.274 2003.44 766.518 2004.15 765.586 2005.36 764.478 2007.09L761.844 2005.35C763.708 2002.57 765.451 2000.6 767.072 1999.45 768.693 1998.3 770.503 1997.73 772.502 1997.73Z" fill-rule="evenodd"/><text fill="#000000" fill-opacity="0" font-family="Arial,Arial_MSFontService,sans-serif" font-size="57.0625" x="759.412" y="2047.66">𝑦</text><path d="M820.759 2015.4C822.347 2015.4 823.832 2015.56 825.212 2015.9 826.592 2016.24 827.788 2016.75 828.801 2017.44 829.814 2018.12 830.603 2018.97 831.169 2020 831.735 2021.02 832.018 2022.21 832.018 2023.56 832.018 2024.83 831.839 2025.95 831.482 2026.92 831.124 2027.89 830.573 2028.78 829.828 2029.57 829.084 2030.37 828.17 2031.09 827.088 2031.73 826.006 2032.38 824.76 2033 823.35 2033.59L823.35 2033.95C824.681 2034.19 825.922 2034.57 827.073 2035.1 828.225 2035.62 829.233 2036.29 830.097 2037.09 830.96 2037.9 831.64 2038.83 832.137 2039.88 832.633 2040.93 832.881 2042.09 832.881 2043.36 832.881 2044.95 832.584 2046.43 831.988 2047.79 831.392 2049.15 830.499 2050.32 829.307 2051.32 828.116 2052.31 826.646 2053.08 824.899 2053.64 823.152 2054.2 821.106 2054.47 818.763 2054.47 816.917 2054.47 815.04 2054.29 813.134 2053.92 811.228 2053.55 809.421 2053.07 807.713 2052.48L807.713 2046.04 811.555 2046.04C811.873 2047.04 812.25 2047.89 812.687 2048.59 813.124 2049.3 813.635 2049.87 814.221 2050.32 814.807 2050.76 815.482 2051.09 816.246 2051.29 817.011 2051.48 817.88 2051.58 818.853 2051.58 821.414 2051.58 823.355 2050.97 824.676 2049.75 825.996 2048.53 826.656 2046.68 826.656 2044.2 826.656 2041.56 825.788 2039.56 824.05 2038.2 822.313 2036.84 819.736 2036.16 816.321 2036.16L813.7 2036.16 813.7 2033.3C815.785 2033.2 817.587 2032.9 819.106 2032.42 820.625 2031.93 821.891 2031.3 822.903 2030.53 823.916 2029.75 824.671 2028.85 825.167 2027.82 825.664 2026.78 825.912 2025.68 825.912 2024.51 825.912 2022.6 825.346 2021.1 824.214 2020 823.082 2018.89 821.444 2018.34 819.299 2018.34 817.492 2018.34 815.978 2018.84 814.757 2019.83 813.536 2020.83 812.598 2022.31 811.943 2024.27L808.16 2024.27 808.16 2018.4C810.503 2017.41 812.712 2016.66 814.787 2016.15 816.862 2015.65 818.853 2015.4 820.759 2015.4Z" fill-rule="evenodd"/><text fill="#000000" fill-opacity="0" font-family="Arial,Arial_MSFontService,sans-serif" font-size="39.0781" x="807.713" y="2049.59">3</text><path d="M865.771 2010.7 915.701 2010.7 915.701 2016.09 865.771 2016.09Z" fill-rule="evenodd"/><text fill="#000000" fill-opacity="0" font-family="Arial,Arial_MSFontService,sans-serif" font-size="5.39014" x="865.771" y="2015.42">−</text><path d="M955.787 1988.37 961.38 1988.37 959.151 1998.38 971.471 1998.38 970.58 2002.47 958.259 2002.47 954.652 2018.2C953.95 2021.25 953.504 2023.45 953.315 2024.78 953.126 2026.12 953.031 2027.19 953.031 2028 953.031 2031.35 954.423 2033.03 957.206 2033.03 958.394 2033.03 959.657 2032.58 960.995 2031.67 962.332 2030.77 963.92 2029.22 965.757 2027.03L968.107 2029.46C965.757 2032.3 963.494 2034.39 961.319 2035.75 959.144 2037.1 956.868 2037.77 954.49 2037.77 948.843 2037.77 946.02 2034.92 946.02 2029.22 946.02 2027.41 946.25 2025.51 946.709 2023.51L951.491 2002.47 944.683 2002.47 945.291 1999.68C946.885 1999.65 948.094 1999.53 948.918 1999.31 949.742 1999.09 950.431 1998.8 950.985 1998.42 951.539 1998.04 952.045 1997.5 952.504 1996.8 952.964 1996.1 953.409 1995.2 953.842 1994.1 954.274 1993.01 954.923 1991.1 955.787 1988.37Z" fill-rule="evenodd"/><text fill="#000000" fill-opacity="0" font-family="Arial,Arial_MSFontService,sans-serif" font-size="49.4028" x="944.683" y="2031.6">𝑡</text><path d="M989.105 2015.4C990.693 2015.4 992.178 2015.56 993.558 2015.9 994.938 2016.24 996.134 2016.75 997.147 2017.44 998.159 2018.12 998.949 2018.97 999.515 2020 1000.08 2021.02 1000.36 2022.21 1000.36 2023.56 1000.36 2024.83 1000.18 2025.95 999.827 2026.92 999.47 2027.89 998.919 2028.78 998.174 2029.57 997.43 2030.37 996.516 2031.09 995.434 2031.73 994.352 2032.38 993.106 2033 991.696 2033.59L991.696 2033.95C993.026 2034.19 994.268 2034.57 995.419 2035.1 996.571 2035.62 997.579 2036.29 998.442 2037.09 999.306 2037.9 999.986 2038.83 1000.48 2039.88 1000.98 2040.93 1001.23 2042.09 1001.23 2043.36 1001.23 2044.95 1000.93 2046.43 1000.33 2047.79 999.738 2049.15 998.844 2050.32 997.653 2051.32 996.462 2052.31 994.992 2053.08 993.245 2053.64 991.497 2054.2 989.452 2054.47 987.109 2054.47 985.262 2054.47 983.386 2054.29 981.48 2053.92 979.573 2053.55 977.767 2053.07 976.059 2052.48L976.059 2046.04 979.901 2046.04C980.219 2047.04 980.596 2047.89 981.033 2048.59 981.47 2049.3 981.981 2049.87 982.567 2050.32 983.153 2050.76 983.828 2051.09 984.592 2051.29 985.357 2051.48 986.226 2051.58 987.198 2051.58 989.76 2051.58 991.701 2050.97 993.021 2049.75 994.342 2048.53 995.002 2046.68 995.002 2044.2 995.002 2041.56 994.133 2039.56 992.396 2038.2 990.659 2036.84 988.082 2036.16 984.667 2036.16L982.046 2036.16 982.046 2033.3C984.131 2033.2 985.933 2032.9 987.452 2032.42 988.971 2031.93 990.237 2031.3 991.249 2030.53 992.262 2029.75 993.017 2028.85 993.513 2027.82 994.009 2026.78 994.258 2025.68 994.258 2024.51 994.258 2022.6 993.692 2021.1 992.56 2020 991.428 2018.89 989.79 2018.34 987.645 2018.34 985.838 2018.34 984.324 2018.84 983.103 2019.83 981.882 2020.83 980.944 2022.31 980.288 2024.27L976.506 2024.27 976.506 2018.4C978.849 2017.41 981.058 2016.66 983.133 2016.15 985.208 2015.65 987.198 2015.4 989.105 2015.4Z" fill-rule="evenodd"/><text fill="#000000" fill-opacity="0" font-family="Arial,Arial_MSFontService,sans-serif" font-size="39.0781" x="976.059" y="2049.59">3</text><path d="M1612.72 697.138C1613.82 697.138 1614.77 697.287 1615.55 697.584 1616.09 697.8 1616.63 698.158 1617.17 698.658 1617.71 699.158 1618.19 699.854 1618.61 700.745 1619.03 701.637 1619.4 702.636 1619.71 703.744 1620.02 704.852 1620.36 706.446 1620.74 708.526 1621.39 712.012 1622.02 715.68 1622.62 719.53 1623.23 723.38 1623.75 726.953 1624.18 730.249 1626.81 726.467 1629.03 722.765 1630.85 719.145 1632.67 715.524 1633.99 712.377 1634.78 709.702 1635.58 707.027 1635.98 704.852 1635.98 703.177 1635.98 701.907 1635.71 701.042 1635.17 700.583 1634.63 700.124 1633.71 699.854 1632.41 699.773L1632.82 697.787 1643.48 697.787 1644.57 699.813C1642.52 705.433 1639.73 711.444 1636.22 717.848 1632.76 724.116 1628.8 730.357 1624.35 736.571 1620.08 742.488 1616.52 746.771 1613.69 749.419 1611.72 751.229 1609.81 752.526 1607.97 753.309 1606.51 753.904 1604.96 754.201 1603.31 754.201 1602.75 754.201 1602.09 754.153 1601.35 754.059 1600.6 753.964 1600.03 753.836 1599.62 753.674L1601.37 745.812 1604.57 745.812C1604.57 747.541 1605.16 748.405 1606.35 748.405 1607.92 748.405 1609.74 747.426 1611.82 745.467 1613.9 743.508 1616.35 740.557 1619.16 736.612 1618.38 731.884 1617.31 726.183 1615.96 719.509 1614.53 712.377 1613.58 707.959 1613.12 706.257 1612.55 704.203 1611.96 702.893 1611.34 702.326 1610.96 701.974 1610.49 701.799 1609.92 701.799 1609.05 701.799 1608.24 702.15 1607.49 702.853 1606.73 703.555 1605.8 704.771 1604.69 706.5L1602.06 704.757C1603.92 701.974 1605.66 700.009 1607.28 698.861 1608.91 697.712 1610.72 697.138 1612.72 697.138Z" fill-rule="evenodd"/><text fill="#000000" fill-opacity="0" font-family="Arial,Arial_MSFontService,sans-serif" font-size="57.0625" x="1599.62" y="747.068">𝑦</text><path d="M1661.45 715.011 1663.27 715.011C1663.23 716.103 1663.2 717.081 1663.18 717.945 1663.16 718.809 1663.15 719.648 1663.14 720.462 1663.13 721.276 1663.12 722.08 1663.12 722.875L1663.12 745.511C1663.12 746.127 1663.14 746.658 1663.18 747.105 1663.22 747.552 1663.28 747.929 1663.37 748.237 1663.46 748.544 1663.58 748.807 1663.73 749.026 1663.88 749.244 1664.05 749.433 1664.25 749.592 1664.49 749.83 1664.81 750.014 1665.21 750.143 1665.6 750.272 1666.11 750.381 1666.72 750.471 1667.34 750.56 1668.08 750.629 1668.94 750.679 1669.81 750.729 1670.84 750.763 1672.06 750.783L1672.06 753.375 1648.44 753.375 1648.44 750.783C1649.61 750.744 1650.6 750.699 1651.41 750.649 1652.23 750.6 1652.92 750.53 1653.5 750.441 1654.08 750.351 1654.54 750.252 1654.88 750.143 1655.23 750.034 1655.53 749.9 1655.79 749.741 1656.07 749.562 1656.31 749.368 1656.51 749.16 1656.71 748.951 1656.87 748.688 1656.98 748.371 1657.1 748.053 1657.2 747.666 1657.27 747.209 1657.34 746.752 1657.37 746.186 1657.37 745.511L1657.37 724.155C1657.37 723.381 1657.22 722.835 1656.92 722.517 1656.63 722.199 1656.2 722.041 1655.64 722.041 1655.03 722.041 1654.12 722.358 1652.9 722.994 1651.69 723.629 1650.12 724.572 1648.2 725.823 1647.94 725.367 1647.7 724.91 1647.48 724.453 1647.26 723.996 1647.04 723.53 1646.8 723.053 1649.26 721.703 1651.7 720.358 1654.11 719.017 1656.52 717.677 1658.97 716.342 1661.45 715.011Z" fill-rule="evenodd"/><text fill="#000000" fill-opacity="0" font-family="Arial,Arial_MSFontService,sans-serif" font-size="38.3633" x="1646.8" y="748.579">1</text><path d="M1441.5 768.062 1818.58 768.063 1818.58 774.938 1441.5 774.937ZM1814 757.75 1841.5 771.5 1814 785.25Z"/><path d="M6.44257e-06-6.875 350.741-6.87467 350.741 6.87533-6.44257e-06 6.875ZM343.866-20.6247 385.116 0.000360892 343.866 20.6253Z" transform="matrix(-1 0 0 1 1826.12 829)"/><path d="M1612.62 1240.82C1613.73 1240.82 1614.68 1240.97 1615.46 1241.27 1616 1241.49 1616.54 1241.84 1617.08 1242.34 1617.62 1242.84 1618.1 1243.54 1618.52 1244.43 1618.94 1245.32 1619.3 1246.32 1619.61 1247.43 1619.93 1248.54 1620.27 1250.13 1620.65 1252.21 1621.3 1255.7 1621.92 1259.36 1622.53 1263.21 1623.14 1267.06 1623.66 1270.64 1624.09 1273.93 1626.71 1270.15 1628.94 1266.45 1630.76 1262.83 1632.58 1259.21 1633.89 1256.06 1634.69 1253.39 1635.49 1250.71 1635.89 1248.54 1635.89 1246.86 1635.89 1245.59 1635.62 1244.73 1635.08 1244.27 1634.54 1243.81 1633.62 1243.54 1632.32 1243.46L1632.72 1241.47 1643.38 1241.47 1644.48 1243.5C1642.42 1249.12 1639.64 1255.13 1636.13 1261.53 1632.67 1267.8 1628.71 1274.04 1624.25 1280.26 1619.99 1286.17 1616.43 1290.46 1613.6 1293.1 1611.62 1294.91 1609.72 1296.21 1607.88 1296.99 1606.42 1297.59 1604.87 1297.89 1603.22 1297.89 1602.65 1297.89 1602 1297.84 1601.26 1297.74 1600.51 1297.65 1599.94 1297.52 1599.53 1297.36L1601.28 1289.5 1604.48 1289.5C1604.48 1291.23 1605.07 1292.09 1606.26 1292.09 1607.83 1292.09 1609.65 1291.11 1611.73 1289.15 1613.81 1287.19 1616.26 1284.24 1619.07 1280.3 1618.28 1275.57 1617.22 1269.87 1615.87 1263.19 1614.43 1256.06 1613.49 1251.64 1613.03 1249.94 1612.46 1247.89 1611.87 1246.58 1611.25 1246.01 1610.87 1245.66 1610.39 1245.48 1609.83 1245.48 1608.96 1245.48 1608.15 1245.84 1607.4 1246.54 1606.64 1247.24 1605.71 1248.46 1604.6 1250.19L1601.96 1248.44C1603.83 1245.66 1605.57 1243.69 1607.19 1242.55 1608.81 1241.4 1610.62 1240.82 1612.62 1240.82Z" fill-rule="evenodd"/><text fill="#000000" fill-opacity="0" font-family="Arial,Arial_MSFontService,sans-serif" font-size="57.0625" x="1599.53" y="1290.75">𝑦</text><path d="M1660.94 1258.49C1663 1258.49 1664.77 1258.72 1666.23 1259.19 1667.69 1259.65 1668.87 1260.28 1669.79 1261.08 1670.7 1261.87 1671.36 1262.83 1671.77 1263.94 1672.17 1265.05 1672.38 1266.25 1672.38 1267.54 1672.38 1268.32 1672.32 1269.04 1672.21 1269.7 1672.1 1270.37 1671.92 1271.02 1671.65 1271.67 1671.38 1272.31 1671.03 1272.96 1670.59 1273.62 1670.15 1274.27 1669.61 1274.97 1668.95 1275.7 1668.46 1276.34 1667.81 1277.07 1667.02 1277.91 1666.22 1278.74 1665.35 1279.64 1664.41 1280.59 1663.47 1281.54 1662.48 1282.53 1661.45 1283.57 1660.41 1284.6 1659.41 1285.62 1658.44 1286.63 1657.46 1287.65 1656.57 1288.63 1655.76 1289.58 1654.94 1290.54 1654.28 1291.41 1653.76 1292.2L1664.78 1292.2C1665.71 1292.2 1666.46 1292.17 1667.02 1292.1 1667.57 1292.03 1668.03 1291.88 1668.4 1291.64 1668.77 1291.4 1669.08 1291.04 1669.34 1290.55 1669.6 1290.07 1669.89 1289.39 1670.23 1288.54L1673 1288.54C1672.9 1289.95 1672.81 1291.37 1672.72 1292.8 1672.63 1294.23 1672.54 1295.65 1672.44 1297.06L1647.21 1297.06 1647.21 1295.51C1647.69 1294.44 1648.24 1293.38 1648.88 1292.34 1649.51 1291.3 1650.23 1290.24 1651.02 1289.17 1651.82 1288.09 1652.72 1286.99 1653.73 1285.85 1654.74 1284.7 1655.87 1283.52 1657.1 1282.29 1658.96 1280.42 1660.48 1278.83 1661.65 1277.51 1662.83 1276.19 1663.75 1275.01 1664.42 1273.98 1665.1 1272.94 1665.56 1271.99 1665.81 1271.12 1666.06 1270.24 1666.18 1269.31 1666.18 1268.32 1666.18 1267.3 1666.04 1266.37 1665.75 1265.52 1665.46 1264.66 1665.05 1263.94 1664.51 1263.34 1663.98 1262.75 1663.3 1262.28 1662.47 1261.94 1661.65 1261.61 1660.7 1261.44 1659.63 1261.44 1657.78 1261.44 1656.23 1261.94 1654.98 1262.94 1653.73 1263.94 1652.76 1265.4 1652.06 1267.3L1648.16 1267.3 1648.16 1261.5C1650.7 1260.44 1653.04 1259.68 1655.18 1259.2 1657.31 1258.73 1659.23 1258.49 1660.94 1258.49Z" fill-rule="evenodd"/><text fill="#000000" fill-opacity="0" font-family="Arial,Arial_MSFontService,sans-serif" font-size="38.5718" x="1647.21" y="1292.24">2</text><path d="M1441.5 1311.06 1818.58 1311.06 1818.58 1317.94 1441.5 1317.94ZM1814 1300.75 1841.5 1314.5 1814 1328.25Z"/><path d="M6.44257e-06-6.875 350.741-6.87467 350.741 6.87533-6.44257e-06 6.875ZM343.866-20.6247 385.116 0.000360892 343.866 20.6253Z" transform="matrix(-1 0 0 1 1826.12 1373)"/><path d="M1612.62 1823.74C1613.73 1823.74 1614.68 1823.89 1615.46 1824.19 1616 1824.4 1616.54 1824.76 1617.08 1825.26 1617.62 1825.76 1618.1 1826.45 1618.52 1827.35 1618.94 1828.24 1619.3 1829.24 1619.61 1830.35 1619.93 1831.45 1620.27 1833.05 1620.65 1835.13 1621.3 1838.61 1621.92 1842.28 1622.53 1846.13 1623.14 1849.98 1623.66 1853.55 1624.09 1856.85 1626.71 1853.07 1628.94 1849.37 1630.76 1845.75 1632.58 1842.13 1633.89 1838.98 1634.69 1836.3 1635.49 1833.63 1635.89 1831.45 1635.89 1829.78 1635.89 1828.51 1635.62 1827.64 1635.08 1827.18 1634.54 1826.72 1633.62 1826.45 1632.32 1826.37L1632.72 1824.39 1643.38 1824.39 1644.48 1826.41C1642.42 1832.03 1639.64 1838.05 1636.13 1844.45 1632.67 1850.72 1628.71 1856.96 1624.25 1863.17 1619.99 1869.09 1616.43 1873.37 1613.6 1876.02 1611.62 1877.83 1609.72 1879.13 1607.88 1879.91 1606.42 1880.5 1604.87 1880.8 1603.22 1880.8 1602.65 1880.8 1602 1880.75 1601.26 1880.66 1600.51 1880.57 1599.94 1880.44 1599.53 1880.28L1601.28 1872.41 1604.48 1872.41C1604.48 1874.14 1605.07 1875.01 1606.26 1875.01 1607.83 1875.01 1609.65 1874.03 1611.73 1872.07 1613.81 1870.11 1616.26 1867.16 1619.07 1863.21 1618.28 1858.48 1617.22 1852.78 1615.87 1846.11 1614.43 1838.98 1613.49 1834.56 1613.03 1832.86 1612.46 1830.8 1611.87 1829.49 1611.25 1828.93 1610.87 1828.58 1610.39 1828.4 1609.83 1828.4 1608.96 1828.4 1608.15 1828.75 1607.4 1829.45 1606.64 1830.16 1605.71 1831.37 1604.6 1833.1L1601.96 1831.36C1603.83 1828.58 1605.57 1826.61 1607.19 1825.46 1608.81 1824.31 1610.62 1823.74 1612.62 1823.74Z" fill-rule="evenodd"/><text fill="#000000" fill-opacity="0" font-family="Arial,Arial_MSFontService,sans-serif" font-size="57.0625" x="1599.53" y="1873.67">𝑦</text><path d="M1660.88 1841.4C1662.47 1841.4 1663.95 1841.57 1665.33 1841.91 1666.71 1842.25 1667.91 1842.76 1668.92 1843.44 1669.93 1844.13 1670.72 1844.98 1671.29 1846.01 1671.86 1847.03 1672.14 1848.21 1672.14 1849.57 1672.14 1850.84 1671.96 1851.96 1671.6 1852.93 1671.25 1853.9 1670.69 1854.79 1669.95 1855.58 1669.2 1856.38 1668.29 1857.1 1667.21 1857.74 1666.13 1858.39 1664.88 1859.01 1663.47 1859.6L1663.47 1859.96C1664.8 1860.2 1666.04 1860.58 1667.19 1861.11 1668.35 1861.63 1669.35 1862.3 1670.22 1863.1 1671.08 1863.91 1671.76 1864.84 1672.26 1865.89 1672.75 1866.94 1673 1868.1 1673 1869.37 1673 1870.96 1672.7 1872.44 1672.11 1873.8 1671.51 1875.16 1670.62 1876.33 1669.43 1877.32 1668.24 1878.32 1666.77 1879.09 1665.02 1879.65 1663.27 1880.2 1661.23 1880.48 1658.88 1880.48 1657.04 1880.48 1655.16 1880.3 1653.25 1879.93 1651.35 1879.56 1649.54 1879.08 1647.83 1878.49L1647.83 1872.05 1651.68 1872.05C1651.99 1873.05 1652.37 1873.89 1652.81 1874.6 1653.24 1875.3 1653.76 1875.88 1654.34 1876.33 1654.93 1876.77 1655.6 1877.1 1656.37 1877.3 1657.13 1877.49 1658 1877.59 1658.97 1877.59 1661.54 1877.59 1663.48 1876.98 1664.8 1875.76 1666.12 1874.54 1666.78 1872.69 1666.78 1870.21 1666.78 1867.57 1665.91 1865.56 1664.17 1864.2 1662.43 1862.84 1659.86 1862.16 1656.44 1862.16L1653.82 1862.16 1653.82 1859.3C1655.91 1859.21 1657.71 1858.91 1659.23 1858.43 1660.75 1857.94 1662.01 1857.31 1663.02 1856.53 1664.04 1855.76 1664.79 1854.86 1665.29 1853.82 1665.78 1852.79 1666.03 1851.69 1666.03 1850.52 1666.03 1848.61 1665.47 1847.11 1664.33 1846.01 1663.2 1844.9 1661.56 1844.35 1659.42 1844.35 1657.61 1844.35 1656.1 1844.85 1654.88 1845.84 1653.66 1846.83 1652.72 1848.31 1652.06 1850.28L1648.28 1850.28 1648.28 1844.41C1650.62 1843.42 1652.83 1842.67 1654.91 1842.16 1656.98 1841.66 1658.97 1841.4 1660.88 1841.4Z" fill-rule="evenodd"/><text fill="#000000" fill-opacity="0" font-family="Arial,Arial_MSFontService,sans-serif" font-size="39.0781" x="1647.83" y="1875.6">3</text><path d="M1441.5 1894.06 1818.58 1894.06 1818.58 1900.94 1441.5 1900.94ZM1814 1883.75 1841.5 1897.5 1814 1911.25Z"/><path d="M6.44257e-06-6.875 350.741-6.87467 350.741 6.87533-6.44257e-06 6.875ZM343.866-20.6247 385.116 0.000360892 343.866 20.6253Z" transform="matrix(-1 0 0 1 1826.12 1956)"/><path d="M1593.95 488.821 1599.55 488.821 1597.32 498.831 1609.64 498.831 1608.75 502.924 1596.43 502.924 1592.82 518.649C1592.12 521.702 1591.67 523.897 1591.48 525.235 1591.29 526.572 1591.2 527.646 1591.2 528.457 1591.2 531.807 1592.59 533.482 1595.37 533.482 1596.56 533.482 1597.82 533.029 1599.16 532.124 1600.5 531.219 1602.09 529.672 1603.92 527.484L1606.27 529.916C1603.92 532.752 1601.66 534.846 1599.49 536.197 1597.31 537.548 1595.03 538.224 1592.66 538.224 1587.01 538.224 1584.19 535.373 1584.19 529.672 1584.19 527.862 1584.42 525.957 1584.88 523.958L1589.66 502.924 1582.85 502.924 1583.46 500.128C1585.05 500.101 1586.26 499.979 1587.08 499.763 1587.91 499.547 1588.6 499.25 1589.15 498.872 1589.71 498.493 1590.21 497.953 1590.67 497.25 1591.13 496.548 1591.58 495.65 1592.01 494.555 1592.44 493.461 1593.09 491.55 1593.95 488.821Z" fill-rule="evenodd"/><text fill="#000000" fill-opacity="0" font-family="Arial,Arial_MSFontService,sans-serif" font-size="49.4028" x="1582.85" y="532.048">𝑡</text><path d="M1627.75 516.056 1629.57 516.056C1629.53 517.148 1629.5 518.126 1629.48 518.99 1629.46 519.853 1629.45 520.692 1629.44 521.506 1629.43 522.32 1629.42 523.125 1629.42 523.919L1629.42 546.556C1629.42 547.171 1629.44 547.702 1629.48 548.149 1629.52 548.596 1629.58 548.973 1629.67 549.281 1629.76 549.589 1629.88 549.852 1630.03 550.07 1630.18 550.289 1630.35 550.477 1630.55 550.636 1630.79 550.875 1631.11 551.058 1631.51 551.187 1631.9 551.316 1632.41 551.426 1633.02 551.515 1633.64 551.604 1634.38 551.674 1635.24 551.723 1636.11 551.773 1637.14 551.808 1638.36 551.828L1638.36 554.419 1614.74 554.419 1614.74 551.828C1615.91 551.788 1616.9 551.743 1617.71 551.694 1618.53 551.644 1619.22 551.574 1619.8 551.485 1620.38 551.396 1620.84 551.296 1621.18 551.187 1621.53 551.078 1621.83 550.944 1622.09 550.785 1622.37 550.606 1622.61 550.413 1622.81 550.204 1623.01 549.996 1623.17 549.733 1623.28 549.415 1623.4 549.097 1623.5 548.71 1623.57 548.253 1623.64 547.797 1623.67 547.231 1623.67 546.556L1623.67 525.2C1623.67 524.425 1623.52 523.879 1623.22 523.562 1622.93 523.244 1622.5 523.085 1621.94 523.085 1621.33 523.085 1620.42 523.403 1619.2 524.038 1617.99 524.674 1616.42 525.617 1614.5 526.868 1614.24 526.411 1614 525.954 1613.78 525.498 1613.56 525.041 1613.34 524.574 1613.1 524.098 1615.56 522.747 1618 521.402 1620.41 520.062 1622.82 518.721 1625.27 517.386 1627.75 516.056Z" fill-rule="evenodd"/><text fill="#000000" fill-opacity="0" font-family="Arial,Arial_MSFontService,sans-serif" font-size="38.3633" x="1613.1" y="549.624">1</text><path d="M1689.05 580.195 1826.69 732.474 1821.58 737.084 1683.95 584.805ZM1831.26 722.159 1839.5 751.78 1810.86 740.598Z"/><path d="M0 0 131.785 0.000360892" stroke="#000000" stroke-width="6.875" stroke-miterlimit="8" fill="none" fill-rule="evenodd" transform="matrix(-1 0 0 1 1686.28 582.5)"/><path d="M1593.86 1032.42 1599.46 1032.42 1597.23 1042.43 1609.55 1042.43 1608.65 1046.52 1596.33 1046.52 1592.73 1062.25C1592.03 1065.3 1591.58 1067.49 1591.39 1068.83 1591.2 1070.17 1591.11 1071.24 1591.11 1072.05 1591.11 1075.4 1592.5 1077.08 1595.28 1077.08 1596.47 1077.08 1597.73 1076.63 1599.07 1075.72 1600.41 1074.82 1601.99 1073.27 1603.83 1071.08L1606.18 1073.51C1603.83 1076.35 1601.57 1078.44 1599.39 1079.79 1597.22 1081.15 1594.94 1081.82 1592.57 1081.82 1586.92 1081.82 1584.1 1078.97 1584.1 1073.27 1584.1 1071.46 1584.32 1069.55 1584.78 1067.56L1589.57 1046.52 1582.76 1046.52 1583.37 1043.72C1584.96 1043.7 1586.17 1043.58 1586.99 1043.36 1587.82 1043.14 1588.51 1042.85 1589.06 1042.47 1589.61 1042.09 1590.12 1041.55 1590.58 1040.85 1591.04 1040.15 1591.48 1039.25 1591.92 1038.15 1592.35 1037.06 1593 1035.15 1593.86 1032.42Z" fill-rule="evenodd"/><text fill="#000000" fill-opacity="0" font-family="Arial,Arial_MSFontService,sans-serif" font-size="49.4028" x="1582.76" y="1075.65">𝑡</text><path d="M1627.24 1059.44C1629.3 1059.44 1631.07 1059.68 1632.53 1060.14 1633.99 1060.61 1635.17 1061.24 1636.09 1062.04 1637 1062.83 1637.66 1063.78 1638.07 1064.89 1638.47 1066.01 1638.68 1067.21 1638.68 1068.5 1638.68 1069.27 1638.62 1069.99 1638.51 1070.66 1638.4 1071.32 1638.22 1071.98 1637.95 1072.62 1637.68 1073.27 1637.33 1073.92 1636.89 1074.58 1636.45 1075.23 1635.91 1075.93 1635.25 1076.66 1634.76 1077.3 1634.11 1078.03 1633.32 1078.86 1632.52 1079.7 1631.65 1080.59 1630.71 1081.54 1629.77 1082.5 1628.78 1083.49 1627.75 1084.52 1626.71 1085.56 1625.71 1086.58 1624.74 1087.59 1623.76 1088.6 1622.87 1089.59 1622.06 1090.54 1621.24 1091.49 1620.58 1092.37 1620.06 1093.16L1631.08 1093.16C1632.02 1093.16 1632.76 1093.13 1633.32 1093.06 1633.87 1092.99 1634.33 1092.83 1634.7 1092.6 1635.07 1092.36 1635.38 1091.99 1635.64 1091.51 1635.9 1091.02 1636.19 1090.35 1636.53 1089.5L1639.3 1089.5C1639.2 1090.91 1639.11 1092.33 1639.02 1093.76 1638.93 1095.19 1638.84 1096.61 1638.74 1098.02L1613.51 1098.02 1613.51 1096.47C1613.99 1095.39 1614.54 1094.34 1615.18 1093.3 1615.81 1092.25 1616.53 1091.2 1617.32 1090.12 1618.12 1089.05 1619.02 1087.94 1620.03 1086.8 1621.04 1085.66 1622.17 1084.47 1623.4 1083.24 1625.26 1081.38 1626.78 1079.78 1627.95 1078.46 1629.13 1077.14 1630.05 1075.97 1630.72 1074.93 1631.4 1073.9 1631.86 1072.95 1632.11 1072.07 1632.36 1071.2 1632.48 1070.27 1632.48 1069.27 1632.48 1068.26 1632.34 1067.33 1632.05 1066.47 1631.76 1065.62 1631.35 1064.89 1630.81 1064.3 1630.28 1063.7 1629.6 1063.24 1628.77 1062.9 1627.95 1062.56 1627 1062.39 1625.93 1062.39 1624.08 1062.39 1622.53 1062.89 1621.28 1063.9 1620.03 1064.9 1619.06 1066.35 1618.36 1068.26L1614.46 1068.26 1614.46 1062.45C1617 1061.4 1619.34 1060.64 1621.48 1060.16 1623.61 1059.68 1625.53 1059.44 1627.24 1059.44Z" fill-rule="evenodd"/><text fill="#000000" fill-opacity="0" font-family="Arial,Arial_MSFontService,sans-serif" font-size="38.5718" x="1613.51" y="1093.19">2</text><path d="M1689.05 1124.2 1826.69 1276.47 1821.58 1281.08 1683.95 1128.8ZM1831.26 1266.16 1839.5 1295.78 1810.86 1284.6Z"/><path d="M0 0 131.785 0.000360892" stroke="#000000" stroke-width="6.875" stroke-miterlimit="8" fill="none" fill-rule="evenodd" transform="matrix(-1 0 0 1 1686.28 1126.5)"/><path d="M1593.86 1605.27 1599.46 1605.27 1597.23 1615.28 1609.55 1615.28 1608.65 1619.37 1596.33 1619.37 1592.73 1635.1C1592.03 1638.15 1591.58 1640.35 1591.39 1641.68 1591.2 1643.02 1591.11 1644.09 1591.11 1644.91 1591.11 1648.26 1592.5 1649.93 1595.28 1649.93 1596.47 1649.93 1597.73 1649.48 1599.07 1648.57 1600.41 1647.67 1601.99 1646.12 1603.83 1643.93L1606.18 1646.36C1603.83 1649.2 1601.57 1651.3 1599.39 1652.65 1597.22 1654 1594.94 1654.67 1592.57 1654.67 1586.92 1654.67 1584.1 1651.82 1584.1 1646.12 1584.1 1644.31 1584.32 1642.41 1584.78 1640.41L1589.57 1619.37 1582.76 1619.37 1583.37 1616.58C1584.96 1616.55 1586.17 1616.43 1586.99 1616.21 1587.82 1616 1588.51 1615.7 1589.06 1615.32 1589.61 1614.94 1590.12 1614.4 1590.58 1613.7 1591.04 1613 1591.48 1612.1 1591.92 1611 1592.35 1609.91 1593 1608 1593.86 1605.27Z" fill-rule="evenodd"/><text fill="#000000" fill-opacity="0" font-family="Arial,Arial_MSFontService,sans-serif" font-size="49.4028" x="1582.76" y="1648.5">𝑡</text><path d="M1627.18 1632.3C1628.77 1632.3 1630.25 1632.46 1631.63 1632.8 1633.01 1633.14 1634.21 1633.65 1635.22 1634.34 1636.23 1635.02 1637.02 1635.88 1637.59 1636.9 1638.16 1637.92 1638.44 1639.11 1638.44 1640.46 1638.44 1641.73 1638.26 1642.85 1637.9 1643.82 1637.55 1644.8 1636.99 1645.68 1636.25 1646.47 1635.5 1647.27 1634.59 1647.99 1633.51 1648.63 1632.43 1649.28 1631.18 1649.9 1629.77 1650.49L1629.77 1650.85C1631.1 1651.09 1632.34 1651.47 1633.49 1652 1634.65 1652.53 1635.65 1653.19 1636.52 1653.99 1637.38 1654.8 1638.06 1655.73 1638.56 1656.78 1639.05 1657.83 1639.3 1658.99 1639.3 1660.26 1639.3 1661.85 1639 1663.33 1638.41 1664.69 1637.81 1666.05 1636.92 1667.22 1635.73 1668.22 1634.54 1669.21 1633.07 1669.98 1631.32 1670.54 1629.57 1671.1 1627.53 1671.37 1625.18 1671.37 1623.34 1671.37 1621.46 1671.19 1619.55 1670.82 1617.65 1670.46 1615.84 1669.97 1614.13 1669.38L1614.13 1662.95 1617.98 1662.95C1618.29 1663.94 1618.67 1664.79 1619.11 1665.49 1619.55 1666.2 1620.06 1666.77 1620.64 1667.22 1621.23 1667.67 1621.9 1667.99 1622.67 1668.19 1623.43 1668.39 1624.3 1668.49 1625.27 1668.49 1627.84 1668.49 1629.78 1667.87 1631.1 1666.65 1632.42 1665.43 1633.08 1663.58 1633.08 1661.1 1633.08 1658.46 1632.21 1656.46 1630.47 1655.1 1628.73 1653.74 1626.16 1653.06 1622.74 1653.06L1620.12 1653.06 1620.12 1650.2C1622.21 1650.1 1624.01 1649.8 1625.53 1649.32 1627.05 1648.83 1628.31 1648.2 1629.32 1647.43 1630.34 1646.65 1631.09 1645.75 1631.59 1644.72 1632.08 1643.68 1632.33 1642.58 1632.33 1641.41 1632.33 1639.5 1631.77 1638 1630.64 1636.9 1629.5 1635.8 1627.86 1635.24 1625.72 1635.24 1623.91 1635.24 1622.4 1635.74 1621.18 1636.73 1619.96 1637.73 1619.02 1639.21 1618.36 1641.17L1614.58 1641.17 1614.58 1635.3C1616.92 1634.31 1619.13 1633.56 1621.21 1633.06 1623.28 1632.55 1625.27 1632.3 1627.18 1632.3Z" fill-rule="evenodd"/><text fill="#000000" fill-opacity="0" font-family="Arial,Arial_MSFontService,sans-serif" font-size="39.0781" x="1614.13" y="1666.49">3</text><path d="M1689.05 1697.2 1826.69 1849.47 1821.58 1854.08 1683.95 1701.8ZM1831.26 1839.16 1839.5 1868.78 1810.86 1857.6Z"/><path d="M0 0 131.785 0.000360892" stroke="#000000" stroke-width="6.875" stroke-miterlimit="8" fill="none" fill-rule="evenodd" transform="matrix(-1 0 0 1 1686.28 1699.5)"/><path d="M2377.44 1224.9 2393.66 1224.9 2393.21 1226.88C2392.18 1227.1 2391.45 1227.34 2391 1227.61 2390.55 1227.88 2390.16 1228.29 2389.8 1228.83 2389.45 1229.37 2389.09 1230.21 2388.71 1231.36 2388.33 1232.51 2387.86 1234.38 2387.29 1236.97L2378.62 1276.49 2388.59 1276.49C2390.4 1276.49 2391.82 1276.31 2392.86 1275.96 2393.91 1275.61 2394.89 1274.97 2395.82 1274.04 2396.76 1273.1 2397.67 1271.84 2398.56 1270.25 2399.45 1268.65 2400.36 1266.67 2401.27 1264.29L2405.21 1264.29 2401.11 1280.22 2366.83 1280.22 2367.27 1278.23C2368.3 1278.07 2369.07 1277.8 2369.58 1277.44 2370.1 1277.07 2370.53 1276.57 2370.88 1275.92 2371.23 1275.27 2371.55 1274.48 2371.85 1273.55 2372.15 1272.62 2372.59 1270.81 2373.19 1268.14L2380.08 1236.93C2380.67 1234.23 2380.97 1232.06 2380.97 1230.41 2380.97 1229.14 2380.65 1228.25 2380.02 1227.75 2379.38 1227.25 2378.38 1226.96 2377 1226.88Z" fill-rule="evenodd"/><text fill="#000000" fill-opacity="0" font-family="Arial,Arial_MSFontService,sans-serif" font-size="55.3198" x="2366.83" y="1273.3">𝐿</text><path d="M2206.5 1311.06 2583.58 1311.06 2583.58 1317.94 2206.5 1317.94ZM2579 1300.75 2606.5 1314.5 2579 1328.25Z"/><path d="M6.44257e-06-6.875 350.741-6.87467 350.741 6.87533-6.44257e-06 6.875ZM343.866-20.6247 385.116 0.000360892 343.866 20.6253Z" transform="matrix(-1 0 0 1 2591.12 1373)"/><path d="M2390.65 1398.24 2392.88 1398.24C2392.72 1400.83 2392.64 1404.43 2392.64 1409.02L2392.64 1443.63C2392.64 1445.2 2392.72 1446.38 2392.9 1447.18 2393.07 1447.97 2393.39 1448.62 2393.83 1449.12 2394.28 1449.62 2394.92 1450.01 2395.76 1450.3 2396.59 1450.58 2397.65 1450.8 2398.92 1450.94 2400.19 1451.09 2401.86 1451.19 2403.94 1451.25L2403.94 1454.21 2373.99 1454.21 2373.99 1451.25C2376.99 1451.11 2379.13 1450.93 2380.42 1450.7 2381.7 1450.47 2382.68 1450.13 2383.36 1449.67 2384.03 1449.21 2384.52 1448.56 2384.83 1447.72 2385.15 1446.88 2385.3 1445.52 2385.3 1443.63L2385.3 1410.76C2385.3 1409.68 2385.11 1408.89 2384.73 1408.39 2384.35 1407.89 2383.8 1407.64 2383.07 1407.64 2382.21 1407.64 2380.98 1408.09 2379.38 1408.98 2377.79 1409.87 2375.82 1411.1 2373.47 1412.67L2371.68 1409.55Z" fill-rule="evenodd"/><text fill="#000000" fill-opacity="0" font-family="Arial,Arial_MSFontService,sans-serif" font-size="55.9683" x="2371.68" y="1447.21">1</text><path d="M1505.18 885.208 1555.11 885.208 1555.11 890.598 1505.18 890.598Z" fill-rule="evenodd"/><text fill="#000000" fill-opacity="0" font-family="Arial,Arial_MSFontService,sans-serif" font-size="5.39014" x="1505.18" y="889.924">−</text><path d="M1576.86 862.877 1582.46 862.877 1580.23 872.887 1592.55 872.887 1591.66 876.981 1579.33 876.981 1575.73 892.705C1575.03 895.758 1574.58 897.953 1574.39 899.291 1574.2 900.628 1574.11 901.702 1574.11 902.513 1574.11 905.863 1575.5 907.538 1578.28 907.538 1579.47 907.538 1580.73 907.086 1582.07 906.181 1583.41 905.275 1584.99 903.729 1586.83 901.54L1589.18 903.972C1586.83 906.809 1584.57 908.903 1582.39 910.254 1580.22 911.604 1577.94 912.28 1575.57 912.28 1569.92 912.28 1567.1 909.43 1567.1 903.729 1567.1 901.918 1567.33 900.014 1567.78 898.014L1572.57 876.981 1565.76 876.981 1566.37 874.184C1567.96 874.157 1569.17 874.036 1569.99 873.819 1570.82 873.603 1571.51 873.306 1572.06 872.928 1572.61 872.55 1573.12 872.009 1573.58 871.307 1574.04 870.604 1574.48 869.706 1574.92 868.612 1575.35 867.517 1576 865.606 1576.86 862.877Z" fill-rule="evenodd"/><text fill="#000000" fill-opacity="0" font-family="Arial,Arial_MSFontService,sans-serif" font-size="49.4028" x="1565.76" y="906.105">𝑡</text><path d="M1610.66 890.112 1612.48 890.112C1612.44 891.204 1612.41 892.182 1612.39 893.046 1612.37 893.91 1612.35 894.748 1612.34 895.563 1612.33 896.377 1612.33 897.181 1612.33 897.975L1612.33 920.612C1612.33 921.227 1612.35 921.759 1612.39 922.205 1612.43 922.652 1612.49 923.029 1612.58 923.337 1612.67 923.645 1612.79 923.908 1612.94 924.127 1613.09 924.345 1613.26 924.534 1613.46 924.693 1613.7 924.931 1614.02 925.114 1614.41 925.244 1614.81 925.373 1615.32 925.482 1615.93 925.571 1616.55 925.661 1617.29 925.73 1618.15 925.78 1619.02 925.829 1620.05 925.864 1621.26 925.884L1621.26 928.475 1597.64 928.475 1597.64 925.884C1598.82 925.844 1599.81 925.799 1600.62 925.75 1601.44 925.7 1602.13 925.631 1602.71 925.541 1603.28 925.452 1603.75 925.353 1604.09 925.244 1604.44 925.134 1604.74 925 1605 924.841 1605.28 924.663 1605.52 924.469 1605.72 924.261 1605.92 924.052 1606.07 923.789 1606.19 923.471 1606.31 923.154 1606.41 922.766 1606.48 922.31 1606.55 921.853 1606.58 921.287 1606.58 920.612L1606.58 899.256C1606.58 898.482 1606.43 897.935 1606.13 897.618 1605.84 897.3 1605.41 897.141 1604.85 897.141 1604.24 897.141 1603.32 897.459 1602.11 898.094 1600.9 898.73 1599.33 899.673 1597.41 900.924 1597.15 900.467 1596.91 900.011 1596.69 899.554 1596.47 899.097 1596.24 898.63 1596.01 898.154 1598.47 896.804 1600.91 895.458 1603.32 894.118 1605.73 892.778 1608.18 891.442 1610.66 890.112Z" fill-rule="evenodd"/><text fill="#000000" fill-opacity="0" font-family="Arial,Arial_MSFontService,sans-serif" font-size="38.3633" x="1596.01" y="923.68">1</text><path d="M1660.77 853.637 1667.05 853.637 1637.79 929.058 1631.43 929.058Z" fill-rule="evenodd"/><text fill="#000000" fill-opacity="0" font-family="Arial,Arial_MSFontService,sans-serif" font-size="75.4214" x="1631.43" y="919.631">/</text><path d="M1682.97 872.239C1684.08 872.239 1685.02 872.388 1685.81 872.685 1686.35 872.901 1686.89 873.259 1687.43 873.759 1687.97 874.258 1688.45 874.954 1688.87 875.846 1689.29 876.737 1689.65 877.737 1689.96 878.845 1690.27 879.953 1690.62 881.547 1690.99 883.627 1691.64 887.112 1692.27 890.78 1692.88 894.63 1693.49 898.48 1694.01 902.054 1694.44 905.35 1697.06 901.567 1699.28 897.866 1701.11 894.245 1702.93 890.625 1704.24 887.477 1705.04 884.802 1705.83 882.128 1706.23 879.953 1706.23 878.277 1706.23 877.008 1705.96 876.143 1705.42 875.684 1704.88 875.224 1703.96 874.954 1702.67 874.873L1703.07 872.887 1713.73 872.887 1714.82 874.914C1712.77 880.534 1709.99 886.545 1706.48 892.948 1703.02 899.217 1699.06 905.458 1694.6 911.672 1690.33 917.589 1686.78 921.871 1683.94 924.519 1681.97 926.329 1680.07 927.626 1678.23 928.41 1676.77 929.004 1675.22 929.301 1673.57 929.301 1673 929.301 1672.34 929.254 1671.6 929.16 1670.86 929.065 1670.28 928.937 1669.88 928.775L1671.62 920.912 1674.82 920.912C1674.82 922.641 1675.42 923.506 1676.61 923.506 1678.17 923.506 1680 922.527 1682.08 920.568 1684.16 918.609 1686.6 915.657 1689.41 911.713 1688.63 906.984 1687.56 901.284 1686.21 894.61 1684.78 887.477 1683.83 883.06 1683.37 881.358 1682.81 879.304 1682.21 877.994 1681.59 877.426 1681.21 877.075 1680.74 876.9 1680.17 876.9 1679.31 876.9 1678.5 877.251 1677.74 877.953 1676.98 878.656 1676.05 879.872 1674.95 881.601L1672.31 879.858C1674.18 877.075 1675.92 875.11 1677.54 873.961 1679.16 872.813 1680.97 872.239 1682.97 872.239Z" fill-rule="evenodd"/><text fill="#000000" fill-opacity="0" font-family="Arial,Arial_MSFontService,sans-serif" font-size="57.0625" x="1669.88" y="922.169">𝑦</text><path d="M1731.71 890.112 1733.52 890.112C1733.48 891.204 1733.45 892.182 1733.43 893.046 1733.41 893.91 1733.4 894.748 1733.39 895.563 1733.38 896.377 1733.37 897.181 1733.37 897.975L1733.37 920.612C1733.37 921.227 1733.39 921.759 1733.43 922.205 1733.47 922.652 1733.54 923.029 1733.63 923.337 1733.72 923.645 1733.84 923.908 1733.99 924.127 1734.13 924.345 1734.31 924.534 1734.51 924.693 1734.74 924.931 1735.06 925.114 1735.46 925.244 1735.86 925.373 1736.36 925.482 1736.98 925.571 1737.59 925.661 1738.33 925.73 1739.2 925.78 1740.06 925.829 1741.1 925.864 1742.31 925.884L1742.31 928.475 1718.69 928.475 1718.69 925.884C1719.86 925.844 1720.85 925.799 1721.67 925.75 1722.48 925.7 1723.18 925.631 1723.75 925.541 1724.33 925.452 1724.79 925.353 1725.14 925.244 1725.49 925.134 1725.79 925 1726.05 924.841 1726.33 924.663 1726.56 924.469 1726.76 924.261 1726.96 924.052 1727.12 923.789 1727.24 923.471 1727.36 923.154 1727.45 922.766 1727.52 922.31 1727.59 921.853 1727.63 921.287 1727.63 920.612L1727.63 899.256C1727.63 898.482 1727.48 897.935 1727.18 897.618 1726.88 897.3 1726.45 897.141 1725.9 897.141 1725.28 897.141 1724.37 897.459 1723.16 898.094 1721.95 898.73 1720.38 899.673 1718.45 900.924 1718.19 900.467 1717.96 900.011 1717.74 899.554 1717.52 899.097 1717.29 898.63 1717.05 898.154 1719.51 896.804 1721.95 895.458 1724.36 894.118 1726.78 892.778 1729.22 891.442 1731.71 890.112Z" fill-rule="evenodd"/><text fill="#000000" fill-opacity="0" font-family="Arial,Arial_MSFontService,sans-serif" font-size="38.3633" x="1717.05" y="923.68">1</text><path d="M1505.29 1427.78 1555.22 1427.78 1555.22 1433.17 1505.29 1433.17Z" fill-rule="evenodd"/><text fill="#000000" fill-opacity="0" font-family="Arial,Arial_MSFontService,sans-serif" font-size="5.39014" x="1505.29" y="1432.5">−</text><path d="M1576.98 1405.45 1582.57 1405.45 1580.34 1415.46 1592.66 1415.46 1591.77 1419.56 1579.45 1419.56 1575.84 1435.28C1575.14 1438.33 1574.69 1440.53 1574.5 1441.87 1574.32 1443.2 1574.22 1444.28 1574.22 1445.09 1574.22 1448.44 1575.61 1450.11 1578.4 1450.11 1579.58 1450.11 1580.85 1449.66 1582.18 1448.76 1583.52 1447.85 1585.11 1446.3 1586.95 1444.12L1589.3 1446.55C1586.95 1449.38 1584.68 1451.48 1582.51 1452.83 1580.33 1454.18 1578.06 1454.86 1575.68 1454.86 1570.03 1454.86 1567.21 1452 1567.21 1446.3 1567.21 1444.49 1567.44 1442.59 1567.9 1440.59L1572.68 1419.56 1565.87 1419.56 1566.48 1416.76C1568.07 1416.73 1569.28 1416.61 1570.11 1416.39 1570.93 1416.18 1571.62 1415.88 1572.17 1415.5 1572.73 1415.12 1573.23 1414.58 1573.69 1413.88 1574.15 1413.18 1574.6 1412.28 1575.03 1411.19 1575.46 1410.09 1576.11 1408.18 1576.98 1405.45Z" fill-rule="evenodd"/><text fill="#000000" fill-opacity="0" font-family="Arial,Arial_MSFontService,sans-serif" font-size="49.4028" x="1565.87" y="1448.68">𝑡</text><path d="M1610.35 1432.48C1612.42 1432.48 1614.18 1432.71 1615.64 1433.18 1617.1 1433.65 1618.29 1434.28 1619.2 1435.07 1620.11 1435.86 1620.77 1436.82 1621.18 1437.93 1621.59 1439.04 1621.79 1440.24 1621.79 1441.53 1621.79 1442.31 1621.74 1443.03 1621.63 1443.69 1621.52 1444.36 1621.33 1445.01 1621.06 1445.66 1620.79 1446.3 1620.44 1446.95 1620 1447.61 1619.57 1448.26 1619.02 1448.96 1618.37 1449.69 1617.87 1450.33 1617.22 1451.06 1616.43 1451.9 1615.64 1452.73 1614.77 1453.63 1613.82 1454.58 1612.88 1455.53 1611.89 1456.53 1610.86 1457.56 1609.83 1458.59 1608.83 1459.61 1607.85 1460.63 1606.88 1461.64 1605.99 1462.62 1605.17 1463.57 1604.36 1464.53 1603.69 1465.4 1603.18 1466.2L1614.2 1466.2C1615.13 1466.2 1615.87 1466.16 1616.43 1466.09 1616.99 1466.02 1617.45 1465.87 1617.82 1465.63 1618.18 1465.39 1618.5 1465.03 1618.75 1464.54 1619.01 1464.06 1619.31 1463.39 1619.65 1462.53L1622.42 1462.53C1622.32 1463.94 1622.22 1465.36 1622.13 1466.79 1622.04 1468.22 1621.95 1469.64 1621.85 1471.05L1596.62 1471.05 1596.62 1469.5C1597.1 1468.43 1597.66 1467.37 1598.29 1466.33 1598.93 1465.29 1599.64 1464.23 1600.44 1463.16 1601.23 1462.09 1602.13 1460.98 1603.15 1459.84 1604.16 1458.69 1605.28 1457.51 1606.51 1456.28 1608.38 1454.41 1609.9 1452.82 1611.07 1451.5 1612.24 1450.18 1613.16 1449 1613.84 1447.97 1614.51 1446.93 1614.98 1445.98 1615.22 1445.11 1615.47 1444.23 1615.6 1443.3 1615.6 1442.31 1615.6 1441.3 1615.45 1440.36 1615.16 1439.51 1614.88 1438.65 1614.46 1437.93 1613.93 1437.33 1613.39 1436.74 1612.71 1436.27 1611.89 1435.93 1611.06 1435.6 1610.12 1435.43 1609.04 1435.43 1607.2 1435.43 1605.65 1435.93 1604.4 1436.93 1603.15 1437.93 1602.17 1439.39 1601.48 1441.3L1597.58 1441.3 1597.58 1435.49C1600.12 1434.43 1602.46 1433.67 1604.59 1433.19 1606.73 1432.72 1608.65 1432.48 1610.35 1432.48Z" fill-rule="evenodd"/><text fill="#000000" fill-opacity="0" font-family="Arial,Arial_MSFontService,sans-serif" font-size="38.5718" x="1596.62" y="1466.23">2</text><path d="M1662.79 1396.21 1669.07 1396.21 1639.81 1471.63 1633.45 1471.63Z" fill-rule="evenodd"/><text fill="#000000" fill-opacity="0" font-family="Arial,Arial_MSFontService,sans-serif" font-size="75.4214" x="1633.45" y="1462.21">/</text><path d="M1684.99 1414.81C1686.09 1414.81 1687.04 1414.96 1687.82 1415.26 1688.36 1415.48 1688.9 1415.83 1689.44 1416.33 1689.98 1416.83 1690.46 1417.53 1690.88 1418.42 1691.3 1419.31 1691.67 1420.31 1691.98 1421.42 1692.29 1422.53 1692.63 1424.12 1693.01 1426.2 1693.66 1429.69 1694.29 1433.36 1694.9 1437.21 1695.5 1441.06 1696.02 1444.63 1696.46 1447.93 1699.08 1444.14 1701.3 1440.44 1703.12 1436.82 1704.95 1433.2 1706.26 1430.05 1707.05 1427.38 1707.85 1424.7 1708.25 1422.53 1708.25 1420.85 1708.25 1419.58 1707.98 1418.72 1707.44 1418.26 1706.9 1417.8 1705.98 1417.53 1704.68 1417.45L1705.09 1415.46 1715.75 1415.46 1716.84 1417.49C1714.79 1423.11 1712 1429.12 1708.49 1435.52 1705.03 1441.79 1701.08 1448.03 1696.62 1454.25 1692.35 1460.16 1688.8 1464.45 1685.96 1467.09 1683.99 1468.9 1682.08 1470.2 1680.24 1470.99 1678.79 1471.58 1677.23 1471.88 1675.58 1471.88 1675.02 1471.88 1674.36 1471.83 1673.62 1471.73 1672.88 1471.64 1672.3 1471.51 1671.9 1471.35L1673.64 1463.49 1676.84 1463.49C1676.84 1465.22 1677.43 1466.08 1678.62 1466.08 1680.19 1466.08 1682.01 1465.1 1684.09 1463.14 1686.18 1461.18 1688.62 1458.23 1691.43 1454.29 1690.65 1449.56 1689.58 1443.86 1688.23 1437.19 1686.8 1430.05 1685.85 1425.64 1685.39 1423.93 1684.82 1421.88 1684.23 1420.57 1683.61 1420 1683.23 1419.65 1682.76 1419.47 1682.19 1419.47 1681.33 1419.47 1680.51 1419.83 1679.76 1420.53 1679 1421.23 1678.07 1422.45 1676.96 1424.18L1674.33 1422.43C1676.19 1419.65 1677.93 1417.68 1679.56 1416.54 1681.18 1415.39 1682.99 1414.81 1684.99 1414.81Z" fill-rule="evenodd"/><text fill="#000000" fill-opacity="0" font-family="Arial,Arial_MSFontService,sans-serif" font-size="57.0625" x="1671.9" y="1464.74">𝑦</text><path d="M1733.3 1432.48C1735.37 1432.48 1737.13 1432.71 1738.59 1433.18 1740.05 1433.65 1741.23 1434.28 1742.15 1435.07 1743.06 1435.86 1743.72 1436.82 1744.13 1437.93 1744.54 1439.04 1744.74 1440.24 1744.74 1441.53 1744.74 1442.31 1744.69 1443.03 1744.58 1443.69 1744.47 1444.36 1744.28 1445.01 1744.01 1445.66 1743.74 1446.3 1743.39 1446.95 1742.95 1447.61 1742.52 1448.26 1741.97 1448.96 1741.31 1449.69 1740.82 1450.33 1740.17 1451.06 1739.38 1451.9 1738.58 1452.73 1737.72 1453.63 1736.77 1454.58 1735.83 1455.53 1734.84 1456.53 1733.81 1457.56 1732.78 1458.59 1731.77 1459.61 1730.8 1460.63 1729.83 1461.64 1728.93 1462.62 1728.12 1463.57 1727.31 1464.53 1726.64 1465.4 1726.12 1466.2L1737.14 1466.2C1738.08 1466.2 1738.82 1466.16 1739.38 1466.09 1739.93 1466.02 1740.4 1465.87 1740.76 1465.63 1741.13 1465.39 1741.44 1465.03 1741.7 1464.54 1741.96 1464.06 1742.26 1463.39 1742.6 1462.53L1745.37 1462.53C1745.27 1463.94 1745.17 1465.36 1745.08 1466.79 1744.99 1468.22 1744.9 1469.64 1744.8 1471.05L1719.57 1471.05 1719.57 1469.5C1720.05 1468.43 1720.6 1467.37 1721.24 1466.33 1721.87 1465.29 1722.59 1464.23 1723.38 1463.16 1724.18 1462.09 1725.08 1460.98 1726.09 1459.84 1727.11 1458.69 1728.23 1457.51 1729.46 1456.28 1731.33 1454.41 1732.85 1452.82 1734.02 1451.5 1735.19 1450.18 1736.11 1449 1736.79 1447.97 1737.46 1446.93 1737.92 1445.98 1738.17 1445.11 1738.42 1444.23 1738.54 1443.3 1738.54 1442.31 1738.54 1441.3 1738.4 1440.36 1738.11 1439.51 1737.82 1438.65 1737.41 1437.93 1736.88 1437.33 1736.34 1436.74 1735.66 1436.27 1734.84 1435.93 1734.01 1435.6 1733.06 1435.43 1731.99 1435.43 1730.15 1435.43 1728.6 1435.93 1727.35 1436.93 1726.09 1437.93 1725.12 1439.39 1724.43 1441.3L1720.52 1441.3 1720.52 1435.49C1723.07 1434.43 1725.4 1433.67 1727.54 1433.19 1729.67 1432.72 1731.59 1432.48 1733.3 1432.48Z" fill-rule="evenodd"/><text fill="#000000" fill-opacity="0" font-family="Arial,Arial_MSFontService,sans-serif" font-size="38.5718" x="1719.57" y="1466.23">2</text><path d="M1505.29 2014.89 1555.22 2014.89 1555.22 2020.28 1505.29 2020.28Z" fill-rule="evenodd"/><text fill="#000000" fill-opacity="0" font-family="Arial,Arial_MSFontService,sans-serif" font-size="5.39014" x="1505.29" y="2019.6">−</text><path d="M1576.98 1992.56 1582.57 1992.56 1580.34 2002.57 1592.66 2002.57 1591.77 2006.66 1579.45 2006.66 1575.84 2022.39C1575.14 2025.44 1574.69 2027.63 1574.5 2028.97 1574.32 2030.31 1574.22 2031.38 1574.22 2032.19 1574.22 2035.54 1575.61 2037.22 1578.4 2037.22 1579.58 2037.22 1580.85 2036.77 1582.18 2035.86 1583.52 2034.96 1585.11 2033.41 1586.95 2031.22L1589.3 2033.65C1586.95 2036.49 1584.68 2038.58 1582.51 2039.93 1580.33 2041.28 1578.06 2041.96 1575.68 2041.96 1570.03 2041.96 1567.21 2039.11 1567.21 2033.41 1567.21 2031.6 1567.44 2029.69 1567.9 2027.69L1572.68 2006.66 1565.87 2006.66 1566.48 2003.86C1568.07 2003.84 1569.28 2003.72 1570.11 2003.5 1570.93 2003.28 1571.62 2002.99 1572.17 2002.61 1572.73 2002.23 1573.23 2001.69 1573.69 2000.99 1574.15 2000.28 1574.6 1999.39 1575.03 1998.29 1575.46 1997.2 1576.11 1995.29 1576.98 1992.56Z" fill-rule="evenodd"/><text fill="#000000" fill-opacity="0" font-family="Arial,Arial_MSFontService,sans-serif" font-size="49.4028" x="1565.87" y="2035.78">𝑡</text><path d="M1610.29 2019.58C1611.88 2019.58 1613.37 2019.75 1614.75 2020.09 1616.13 2020.43 1617.32 2020.94 1618.34 2021.62 1619.35 2022.31 1620.14 2023.16 1620.7 2024.19 1621.27 2025.21 1621.55 2026.39 1621.55 2027.75 1621.55 2029.02 1621.37 2030.14 1621.02 2031.11 1620.66 2032.08 1620.11 2032.97 1619.36 2033.76 1618.62 2034.56 1617.71 2035.28 1616.62 2035.92 1615.54 2036.57 1614.3 2037.19 1612.89 2037.78L1612.89 2038.14C1614.22 2038.38 1615.46 2038.76 1616.61 2039.29 1617.76 2039.81 1618.77 2040.48 1619.63 2041.28 1620.5 2042.09 1621.18 2043.02 1621.67 2044.07 1622.17 2045.12 1622.42 2046.28 1622.42 2047.55 1622.42 2049.14 1622.12 2050.62 1621.52 2051.98 1620.93 2053.34 1620.03 2054.51 1618.84 2055.5 1617.65 2056.5 1616.18 2057.27 1614.43 2057.83 1612.69 2058.38 1610.64 2058.66 1608.3 2058.66 1606.45 2058.66 1604.58 2058.48 1602.67 2058.11 1600.76 2057.74 1598.96 2057.26 1597.25 2056.67L1597.25 2050.23 1601.09 2050.23C1601.41 2051.23 1601.79 2052.07 1602.22 2052.78 1602.66 2053.48 1603.17 2054.06 1603.76 2054.51 1604.34 2054.95 1605.02 2055.28 1605.78 2055.48 1606.55 2055.67 1607.42 2055.77 1608.39 2055.77 1610.95 2055.77 1612.89 2055.16 1614.21 2053.94 1615.53 2052.72 1616.19 2050.87 1616.19 2048.39 1616.19 2045.75 1615.32 2043.74 1613.59 2042.38 1611.85 2041.02 1609.27 2040.34 1605.86 2040.34L1603.24 2040.34 1603.24 2037.48C1605.32 2037.39 1607.12 2037.09 1608.64 2036.61 1610.16 2036.12 1611.43 2035.49 1612.44 2034.71 1613.45 2033.94 1614.21 2033.04 1614.7 2032 1615.2 2030.97 1615.45 2029.87 1615.45 2028.7 1615.45 2026.79 1614.88 2025.29 1613.75 2024.19 1612.62 2023.08 1610.98 2022.53 1608.84 2022.53 1607.03 2022.53 1605.51 2023.03 1604.29 2024.02 1603.07 2025.01 1602.13 2026.49 1601.48 2028.46L1597.7 2028.46 1597.7 2022.59C1600.04 2021.6 1602.25 2020.85 1604.32 2020.34 1606.4 2019.84 1608.39 2019.58 1610.29 2019.58Z" fill-rule="evenodd"/><text fill="#000000" fill-opacity="0" font-family="Arial,Arial_MSFontService,sans-serif" font-size="39.0781" x="1597.25" y="2053.78">3</text><path d="M1662.79 1983.32 1669.07 1983.32 1639.81 2058.74 1633.45 2058.74Z" fill-rule="evenodd"/><text fill="#000000" fill-opacity="0" font-family="Arial,Arial_MSFontService,sans-serif" font-size="75.4213" x="1633.45" y="2049.31">/</text><path d="M1684.99 2001.92C1686.09 2001.92 1687.04 2002.07 1687.82 2002.37 1688.36 2002.58 1688.9 2002.94 1689.44 2003.44 1689.98 2003.94 1690.46 2004.63 1690.88 2005.53 1691.3 2006.42 1691.67 2007.42 1691.98 2008.53 1692.29 2009.63 1692.63 2011.23 1693.01 2013.31 1693.66 2016.79 1694.29 2020.46 1694.9 2024.31 1695.5 2028.16 1696.02 2031.73 1696.46 2035.03 1699.08 2031.25 1701.3 2027.55 1703.12 2023.93 1704.95 2020.31 1706.26 2017.16 1707.05 2014.48 1707.85 2011.81 1708.25 2009.63 1708.25 2007.96 1708.25 2006.69 1707.98 2005.82 1707.44 2005.36 1706.9 2004.9 1705.98 2004.63 1704.68 2004.55L1705.09 2002.57 1715.75 2002.57 1716.84 2004.59C1714.79 2010.21 1712 2016.23 1708.49 2022.63 1705.03 2028.9 1701.08 2035.14 1696.62 2041.35 1692.35 2047.27 1688.8 2051.55 1685.96 2054.2 1683.99 2056.01 1682.08 2057.31 1680.24 2058.09 1678.79 2058.68 1677.23 2058.98 1675.58 2058.98 1675.02 2058.98 1674.36 2058.93 1673.62 2058.84 1672.88 2058.75 1672.3 2058.62 1671.9 2058.45L1673.64 2050.59 1676.84 2050.59C1676.84 2052.32 1677.43 2053.19 1678.62 2053.19 1680.19 2053.19 1682.01 2052.21 1684.09 2050.25 1686.18 2048.29 1688.62 2045.34 1691.43 2041.39 1690.65 2036.66 1689.58 2030.96 1688.23 2024.29 1686.8 2017.16 1685.85 2012.74 1685.39 2011.04 1684.82 2008.98 1684.23 2007.67 1683.61 2007.11 1683.23 2006.76 1682.76 2006.58 1682.19 2006.58 1681.33 2006.58 1680.51 2006.93 1679.76 2007.63 1679 2008.34 1678.07 2009.55 1676.96 2011.28L1674.33 2009.54C1676.19 2006.76 1677.93 2004.79 1679.56 2003.64 1681.18 2002.49 1682.99 2001.92 1684.99 2001.92Z" fill-rule="evenodd"/><text fill="#000000" fill-opacity="0" font-family="Arial,Arial_MSFontService,sans-serif" font-size="57.0624" x="1671.9" y="2051.85">𝑦</text><path d="M1733.24 2019.58C1734.83 2019.58 1736.32 2019.75 1737.7 2020.09 1739.08 2020.43 1740.27 2020.94 1741.28 2021.62 1742.3 2022.31 1743.09 2023.16 1743.65 2024.19 1744.22 2025.21 1744.5 2026.39 1744.5 2027.75 1744.5 2029.02 1744.32 2030.14 1743.97 2031.11 1743.61 2032.08 1743.06 2032.97 1742.31 2033.76 1741.57 2034.56 1740.65 2035.28 1739.57 2035.92 1738.49 2036.57 1737.24 2037.19 1735.83 2037.78L1735.83 2038.14C1737.16 2038.38 1738.41 2038.76 1739.56 2039.29 1740.71 2039.81 1741.72 2040.48 1742.58 2041.28 1743.44 2042.09 1744.12 2043.02 1744.62 2044.07 1745.12 2045.12 1745.37 2046.28 1745.37 2047.55 1745.37 2049.14 1745.07 2050.62 1744.47 2051.98 1743.88 2053.34 1742.98 2054.51 1741.79 2055.5 1740.6 2056.5 1739.13 2057.27 1737.38 2057.83 1735.64 2058.38 1733.59 2058.66 1731.25 2058.66 1729.4 2058.66 1727.52 2058.48 1725.62 2058.11 1723.71 2057.74 1721.9 2057.26 1720.2 2056.67L1720.2 2050.23 1724.04 2050.23C1724.36 2051.23 1724.73 2052.07 1725.17 2052.78 1725.61 2053.48 1726.12 2054.06 1726.7 2054.51 1727.29 2054.95 1727.97 2055.28 1728.73 2055.48 1729.49 2055.67 1730.36 2055.77 1731.34 2055.77 1733.9 2055.77 1735.84 2055.16 1737.16 2053.94 1738.48 2052.72 1739.14 2050.87 1739.14 2048.39 1739.14 2045.75 1738.27 2043.74 1736.53 2042.38 1734.8 2041.02 1732.22 2040.34 1728.8 2040.34L1726.18 2040.34 1726.18 2037.48C1728.27 2037.39 1730.07 2037.09 1731.59 2036.61 1733.11 2036.12 1734.37 2035.49 1735.39 2034.71 1736.4 2033.94 1737.15 2033.04 1737.65 2032 1738.15 2030.97 1738.4 2029.87 1738.4 2028.7 1738.4 2026.79 1737.83 2025.29 1736.7 2024.19 1735.57 2023.08 1733.93 2022.53 1731.78 2022.53 1729.98 2022.53 1728.46 2023.03 1727.24 2024.02 1726.02 2025.01 1725.08 2026.49 1724.43 2028.46L1720.64 2028.46 1720.64 2022.59C1722.99 2021.6 1725.2 2020.85 1727.27 2020.34 1729.35 2019.84 1731.34 2019.58 1733.24 2019.58Z" fill-rule="evenodd"/><text fill="#000000" fill-opacity="0" font-family="Arial,Arial_MSFontService,sans-serif" font-size="39.0781" x="1720.2" y="2053.78">3</text></g></svg>